<?xml version="1.0" standalone="no"?>
<!DOCTYPE svg PUBLIC "-//W3C//DTD SVG 1.1//EN" "http://www.w3.org/Graphics/SVG/1.1/DTD/svg11.dtd" >
<svg xmlns="http://www.w3.org/2000/svg">
<metadata></metadata>
<defs>
<font id="adelaideregular" horiz-adv-x="1331" >
<font-face units-per-em="2048" ascent="1638" descent="-410" />
<missing-glyph horiz-adv-x="466" />
<glyph horiz-adv-x="2048" />
<glyph horiz-adv-x="2048" />
<glyph unicode="&#xd;" horiz-adv-x="2048" />
<glyph unicode=" "  horiz-adv-x="466" />
<glyph unicode="&#x09;" horiz-adv-x="466" />
<glyph unicode="&#xa0;" horiz-adv-x="466" />
<glyph unicode="!" horiz-adv-x="643" d="M74 96q-6 46 18 56q7 2 16 11t13 11q7 7 31 12q38 8 59 -22q27 -36 27 -58q4 -32 -16 -55t-52 -31q-36 -9 -70 15q-16 12 -22 20q-4 28 -4 41zM215 414q-15 7 6 80q3 20 10.5 57t10.5 57q10 55 37 219q3 15 5.5 52.5t6.5 56.5q8 29 26 113q39 164 45 223q0 4 1.5 21.5 t3.5 25.5q8 37 10 53q13 77 39 105l8 8l8.5 8.5t7.5 7t8 6.5t8.5 5t10 4t10.5 1.5t12 0.5q51 -7 70 -50q31 -66 -18 -188q-5 -16 -16.5 -45.5t-16.5 -44.5q-7 -19 -20.5 -52.5t-18.5 -47.5q-10 -27 -37.5 -92.5t-40.5 -102.5q-6 -18 -16 -51t-19.5 -60t-19.5 -51 q-16 -45 -41 -134t-39 -132q-4 -18 -15 -35.5t-26 -17.5z" />
<glyph unicode="&#x22;" horiz-adv-x="638" d="M50.5 1382.5q-2.5 35.5 12.5 61.5q33 44 91 53q19 4 45 -4t43 -20q32 -23 61 -68q14 -24 21 -41q3 -7 4 -17t1 -22t1 -18q3 -48 -19 -99q-27 -57 -47 -84q-27 -34 -63 -65q-6 -6 -18.5 -17.5t-18.5 -17.5q-1 -1 -21 -16q-2 -1 -26 -7q-3 -1 -18 -8.5t-23 -5.5 q-5 10 12.5 24.5t34.5 22.5q46 33 65 70q4 8 14 24.5t16.5 30.5t8.5 27q8 64 -2 96q-7 20 -20 31q-15 0 -47 -8q-40 -10 -80 22q-25 20 -27.5 55.5zM371 1438.5q8 52.5 41 74.5q48 31 80 27q44 -6 71 -31q57 -57 51 -155q-4 -56 -20 -97q-19 -53 -49 -96q-8 -15 -20.5 -29 t-34 -33.5t-29.5 -27.5q-7 -6 -22.5 -18.5t-22.5 -18.5q-25 -25 -37 -10q-2 7 2 14.5t9 12t14.5 12t11.5 8.5q41 32 67 62q65 78 47 170q-1 7 -2.5 12t-6.5 10t-11 4q-6 0 -18.5 -4t-18.5 -4q-48 3 -82 37q-28 28 -20 80.5z" />
<glyph unicode="#" horiz-adv-x="1216" d="M31 490.5q0 12.5 8 15.5q14 5 31 7t40 2.5t31 0.5h107q2 0 11 -0.5t14.5 -0.5t12 2t9.5 5q11 7 20 39q13 42 23.5 69t25.5 61t19 44q5 13 16.5 41t16.5 41q2 7 14 43q1 4 2.5 9.5t2 8t0 6t-4 6t-10.5 5.5q-10 2 -39 0.5t-41 -0.5q-15 0 -27.5 0.5t-32.5 1.5t-38 2 q-23 0 -33 10q-5 11 -0.5 17t12.5 8q41 12 109 8q16 0 50 1t50 1q13 1 22.5 7.5t13.5 13.5t10.5 21t10.5 20q8 19 39 94.5t47 109.5q6 16 22.5 54.5t25.5 66.5q2 7 10 22.5t10 22.5q9 23 21 25q21 -11 14 -29q-3 -10 -9 -28t-11.5 -33t-10.5 -29q-31 -75 -35 -88 q-1 -4 -41 -92q-25 -61 -34 -90q-1 -3 -7.5 -16t-9 -20t-5 -17t2.5 -15t16 -6q59 -8 144 -6.5t153 8.5q6 1 11.5 4.5t9.5 9t7.5 10t6.5 12.5l4.5 12t4.5 13t4 11q36 91 81 201t72 180q6 13 19.5 18t19.5 -14q2 -11 -6 -31q-3 -9 -10.5 -26.5t-10.5 -26.5q-26 -56 -79 -205 q-2 -6 -16 -41t-19 -53q-1 -3 -5.5 -11.5t-9.5 -17t-8.5 -17.5t-2.5 -16t7 -10q18 -2 25 -2t26 3t25 3q19 0 55 1t54 1q75 0 82 -22q1 -6 -8 -9.5t-24 -5t-24.5 -2t-15.5 -0.5q-12 -1 -35 -3.5t-35 -3t-35 0.5q-12 0 -49 -3t-59 -1q-4 -1 -7.5 -3t-6 -3.5t-5.5 -5.5 t-4.5 -5.5t-5 -7t-4.5 -6.5q-7 -24 -26.5 -68.5t-26.5 -66.5q-10 -34 -34 -98t-34 -98q-10 -17 -10 -33q11 -9 41 -4q28 -3 53 0q74 4 111 4q8 0 23 -3t22 -3q2 0 8 -1t9 -2t7 -3.5t5 -6.5q-2 -24 -78 -24q-18 -1 -53.5 -2t-53.5 -2h-51q-4 0 -28.5 0.5t-26.5 -4.5 q-6 -2 -9.5 -13.5t-5.5 -13.5q0 -1 -8 -21.5t-12 -31.5q-12 -40 -43 -111q-46 -123 -84 -217l-5.5 -16.5t-9 -19.5t-12 -9.5t-14.5 12.5q-6 11 -5.5 25t3.5 24t8.5 25.5t7.5 22.5q15 48 62.5 157t64.5 174q1 6 0 10t-8 6.5t-8.5 3t-11.5 1.5q-17 2 -59.5 0t-57.5 0 q-78 0 -115 8q-7 0 -18 1.5t-18 2t-14.5 -2.5t-12.5 -11q-15 -23 -37 -92q-38 -140 -94 -279q-3 -9 -7 -18t-5.5 -13.5t-4 -10.5t-3 -8t-3 -5.5t-3 -4.5t-3 -4.5t-4 -4.5t-5.5 -5.5t-7 -7.5q-12 -13 -19.5 -8.5t-5.5 20.5q3 25 23 66q2 5 30 92q55 164 90 256q1 4 4.5 12 t3 11t-5.5 10q-9 6 -25.5 7.5t-37 0.5t-27.5 0q-8 0 -24.5 -1t-24.5 -1q-10 -1 -29 1.5t-26 2.5q-5 3 -11.5 3.5t-15.5 -0.5t-12 -1q-10 1 -10 13.5zM350 541q-7 -24 10 -29q68 -10 142 -10q37 -2 110 -2q38 0 56 -2q4 4 8 10.5t7.5 15t6.5 13.5q8 34 30.5 96.5t29.5 85.5 q6 18 23.5 61t30.5 75.5t11 35.5q-4 6 -19 7t-36 -1t-23 -2q-18 0 -59.5 -1.5t-75.5 -1t-67 4.5q-1 0 -15 1t-21.5 -0.5t-11.5 -6.5q-12 -12 -20 -45q-19 -59 -92 -234q-5 -11 -10 -23t-6.5 -16t-3.5 -10t-3 -10t-2 -12z" />
<glyph unicode="$" horiz-adv-x="1110" d="M47 166q-39 95 10 186q17 35 72 39q44 3 72 -51q8 -20 8 -34.5t-11 -33.5t-22 -32t-25.5 -30t-21.5 -28q-22 -40 5 -79t71 -62q84 -44 207 -41q1 -3 4 10q2 7 7 26l5 21q8 37 26.5 103t24.5 92q11 42 23 104t24 105q8 38 28.5 113.5t27.5 103.5q-22 19 -74 62t-82 71 l-18.5 18.5l-20 20t-18 18.5t-19.5 22t-16 20.5t-16.5 24t-12.5 23.5q-20 42 -29 93t0 92q9 39 35 92q49 98 140 162.5t204 83.5q69 10 113 4q15 58 16 67q9 41 25 62q10 15 20 2q3 -5 4 -11t0.5 -10t-2.5 -10.5t-2 -9.5q-11 -46 -20 -98q99 -13 166 -70q104 -88 115 -186 q8 -7 1.5 -54.5t-16.5 -60.5q-15 -19 -46.5 -32t-53.5 -3q-44 20 -55 68q-5 24 9.5 93t-1.5 103q-19 51 -48 76.5t-83 32.5q-12 -47 -27 -98q-1 -4 -5 -22.5t-8 -34.5t-7 -23q-9 -29 -21 -86q-7 -36 -21.5 -107.5t-21.5 -107.5q-3 -14 -8.5 -31t-7.5 -37q13 -10 44.5 -34 t49 -38t43.5 -35.5t47.5 -43.5t40.5 -46q67 -85 102 -190q31 -103 11 -201q-13 -54 -43.5 -101t-76 -84.5t-87 -63.5t-99.5 -56q-33 -17 -105.5 -28t-145.5 -13q-3 -6 -7.5 -23t-9.5 -36t-6 -23q-3 -17 -16.5 -45t-16.5 -41q-2 -6 -6 -18.5t-6 -18.5q-3 -8 -12 -9t-11 9 q-1 15 2.5 31.5t11 37.5t9.5 30q0 1 6.5 24t10 44t3.5 38q-202 6 -307 111q-24 24 -49 92zM459 2q263 10 332 242q15 80 10 106q-16 85 -68 168q-9 17 -35 45t-30 33q-29 34 -52 57q-1 -10 -12 -53q-8 -32 -19.5 -74t-20 -73t-15.5 -62q-3 -12 -8.5 -41.5t-12.5 -54.5 q-8 -36 -24 -102q-5 -18 -14.5 -56.5t-14.5 -56.5q-17 -68 -16 -78zM477 1116q19 -89 101 -158q9 -8 27.5 -20t25.5 -18q8 22 15 67t16 76q3 12 7.5 42.5t10.5 45.5q6 24 43 174q3 12 13 48t20 75q-40 10 -86 0q-47 -13 -101 -51t-71 -84q-41 -103 -21 -197z" />
<glyph unicode="%" horiz-adv-x="1486" d="M84 1018q7 63 20 112q5 24 27 78q17 41 49 92q59 85 131 121q29 14 50 19t59 8q98 4 155 -31q51 -34 87 -88q28 -45 32 -108q-1 -20 0.5 -23.5t-2 -24.5t-3.5 -25t-5 -25.5t-6 -25.5t-6 -25t-6 -25q-16 -56 -101 -175q-6 -9 -15.5 -18t-17 -14.5t-21.5 -15.5t-19 -13 q-32 -22 -95 -45q-43 -19 -96 -12q-4 0 -15 1.5t-16 2t-15 2t-16 3t-14.5 4t-15 6t-12.5 7.5q-10 7 -19.5 16t-21 21.5t-17.5 18.5q-33 33 -49 86q-10 32 -6 96zM199 1014q-3 -59 2 -107q6 -46 28 -88q11 -20 27 -26.5t45 -10.5q87 -5 150 74q67 81 86 164q30 126 32 209 q0 46 -16 92q-36 95 -117 92q-84 -2 -160 -113q-9 -13 -21 -39t-17 -34q-4 -5 -6 -13t-4 -18t-3 -14q-12 -40 -14 -58q-1 -19 -6 -55.5t-6 -54.5zM324 14q0 13 14 41q21 41 55 90q17 30 30 51t38 62t57 94q28 46 68 115q66 115 116.5 206t90.5 161q14 24 56 101t60 107 q14 26 38 73.5t42.5 80.5t42.5 72q35 50 53 88q11 22 52 92q16 32 28 39q1 0 9 5t11.5 5.5t6.5 -4.5q1 -11 -5 -24.5t-16.5 -28.5t-13.5 -21q-39 -81 -43 -88q-8 -15 -46 -80t-56 -104q-13 -28 -29.5 -58.5t-40.5 -72t-33 -58.5q-184 -336 -288 -524q-3 -9 -43 -75t-43 -72 q-80 -125 -109 -170q-4 -6 -13.5 -18.5t-13.5 -18.5q-6 -9 -23 -36t-28 -40q-8 -9 -16 -6t-8 16zM811 274q7 65 20 113q5 24 27 78q18 41 49 92q59 85 131 121q29 14 50 19t59 8q94 4 145 -27q50 -33 86 -88q29 -47 33 -109q1 -15 0.5 -31t-5 -39t-6.5 -31.5t-9.5 -39.5 t-8.5 -33q-8 -28 -27.5 -63t-31 -51.5t-41.5 -59.5q-7 -11 -17.5 -20.5t-33 -24.5t-23.5 -16q-33 -23 -94 -45q-49 -22 -86 -17q-78 9 -104 27q-10 7 -19 15.5t-21.5 21.5t-17.5 18q-33 33 -49 86q-10 33 -6 96zM915 274q-1 -16 9 -108q8 -59 22 -86q11 -20 27 -26.5 t45 -10.5q86 -5 149 74q67 81 86 164q31 131 33 208q0 47 -16 93q-15 41 -53.5 69t-81.5 27q-11 0 -21.5 -2.5t-20.5 -7.5t-17.5 -9.5t-17 -14t-14.5 -14t-14.5 -17t-12.5 -17t-12.5 -18.5t-11.5 -17q-9 -13 -22 -39.5t-17 -34.5q-5 -7 -8.5 -25.5t-3.5 -19.5 q-12 -41 -14 -57q-1 -19 -6.5 -56t-6.5 -55z" />
<glyph unicode="&#x26;" horiz-adv-x="1423" d="M22 469q9 110 56 193q11 21 22.5 38t19 28t20.5 25t19 20.5t23 23t25 24.5q58 58 147 105q20 11 95 41q21 9 41 15t29.5 10t17.5 12q3 3 5.5 9.5t3.5 12.5t2 14t1 11q12 103 43 157q22 42 88 138q10 13 31.5 34t31.5 33q37 44 91 60q58 21 100.5 15t75.5 -42 q28 -35 28 -90q0 -68 -60.5 -144t-131.5 -110q-17 -11 -69.5 -39t-78.5 -49q0 -38 2 -56q1 -21 5.5 -60t5.5 -60q12 -142 28 -215q1 -8 6.5 -25t6.5 -25q11 -52 12 -53q2 -8 9 -23.5t9 -21.5q2 -4 4.5 -11t4 -12t5 -11t7.5 -9q9 1 26 33.5t19 34.5q10 22 22.5 43.5t31 52 t26.5 43.5q39 65 61 98q11 17 34.5 47t27.5 35q6 6 18 19.5t18 19.5q4 4 16.5 13t16.5 14q42 24 90 24q46 0 90 -18q31 -13 39 -23q23 -23 29 -32q13 -17 21.5 -43.5t6 -56t-23.5 -44.5q-7 -8 -20.5 -14.5t-30 -8.5t-33.5 8.5t-26 33.5q-6 16 -4.5 48t-4.5 46q-18 41 -45 53 q-13 1 -23 2t-24 -7.5t-24 -15t-23.5 -21t-22.5 -24.5t-21 -26t-19 -26t-17 -24t-14 -20q-129 -176 -193 -321q-8 -11 -6 -21q4 -8 8 -24q10 -33 21 -58q6 -16 20.5 -46t20.5 -46q5 -17 33 -63q30 -44 63 -56q4 -1 17.5 -6.5t21.5 -7.5q6 -2 14.5 -2t19 1t15.5 1 q73 2 168 113q68 76 111 194q11 35 16 76q0 2 1 10.5t3 13.5t6 9q8 7 13.5 -6t5.5 -23q0 -39 -8 -78q-17 -69 -78 -176q-39 -60 -110 -118t-134 -62q-51 -3 -109 12t-98 47q-24 17 -40 35t-32 41t-24 33q-2 2 -9 12.5t-13 15.5t-13 7q-4 0 -7.5 -3t-7.5 -9t-7 -9 q-6 -5 -16 -16t-11 -12q-15 -13 -36 -39t-32 -37q-28 -26 -43 -39t-44 -28.5t-62 -22.5q-16 -4 -51 -4q-3 0 -15 -1t-24.5 -0.5t-28.5 3.5q-65 12 -124.5 48t-100.5 89q-40 49 -78 151q-30 85 -21 195zM205 442q4 -25 6 -48.5t4.5 -36t7.5 -29.5q19 -63 32.5 -100.5 t34.5 -81t47 -66.5t58 -29q60 -10 90 0q24 7 84 49q2 2 31.5 30t56.5 56q7 11 26 31t22 33q3 11 -2 22.5t-15 26.5t-14 23q-102 223 -123 428q-12 109 -14 208q-25 -2 -80 -22q-40 -16 -78 -39q-66 -32 -114.5 -101t-57.5 -145q-17 -114 -2 -209zM692 1079q1 -8 4.5 -11 t9.5 -0.5t11 5.5t11.5 8t8.5 6q9 6 49.5 30.5t75.5 49.5q89 63 111 117q34 99 16 141q-12 29 -55.5 34.5t-71.5 -5.5q-18 -5 -33.5 -15t-26 -20t-23 -29t-18.5 -30t-18.5 -35.5t-17.5 -34.5q-21 -50 -33 -145q-3 -33 0 -66z" />
<glyph unicode="'" horiz-adv-x="405" d="M293 1356q0 1 4 15.5t8 21.5q1 2 6 10.5t10 13.5t9 6q1 0 26 17q20 14 37 16q17 4 43 -4t43 -20q34 -25 62 -68q10 -17 20 -41q3 -7 4 -17t1 -22t1 -18q3 -50 -18 -99q-27 -57 -47 -84q-36 -45 -64 -65q-25 -25 -37 -35q-4 -4 -20 -16q-5 -2 -15.5 -4t-11.5 -2 q-3 -1 -18 -9t-23 -6q-7 14 47 47q47 34 66 70q4 8 14 24.5t16.5 30.5t8.5 27q8 64 -2 96q-6 19 -21 31q-15 0 -47 -8q-12 -6 -29.5 -2t-25.5 8t-25 14q-40 26 -22 72z" />
<glyph unicode="(" horiz-adv-x="827" d="M143 367q0 15 5.5 52t3.5 56q-5 24 4 92q2 32 18 107q11 55 49 190q7 22 39 88q3 9 43 97q5 8 44 78.5t61 105.5q5 9 17 31.5t19 34.5t17.5 30.5t21 33.5t21.5 28q64 86 129 151q37 47 61 68q11 11 33 31.5t31 31.5q26 35 74 53q26 11 43 11q2 -1 10 -1t14 -1.5t6 -5.5 q1 -8 -9.5 -15.5t-26.5 -14.5t-19 -9q-18 -16 -48.5 -42t-37.5 -32q-34 -34 -68 -74q-5 -5 -14 -13.5t-15 -14.5t-13.5 -14.5t-12.5 -16.5q-8 -13 -29.5 -34t-29.5 -34q-8 -14 -27 -33q-58 -75 -82 -120q-7 -15 -24.5 -41.5t-18.5 -28.5q-27 -43 -47 -88q-43 -72 -49 -86 q-5 -13 -22 -46.5t-23 -53.5q-4 -12 -14.5 -39.5t-14.5 -42.5q-26 -75 -29 -105q-2 -17 -22 -94q-6 -35 -10 -109q-13 -124 -13 -229q2 -68 27 -227q6 -53 21 -101q11 -71 22 -114q8 -24 25 -76q1 -2 5 -11q29 -60 5 -60q-4 0 -8 1q-7 1 -13 8t-8.5 13.5t-6.5 17t-5 12.5 q-4 7 -9.5 21.5t-9.5 21.5q-5 9 -11 28t-7 22q-24 97 -39 202q-5 19 -9.5 52t-6.5 45q-1 9 -6.5 49.5t-6.5 62.5q0 16 -2 50t-2 51z" />
<glyph unicode=")" horiz-adv-x="989" d="M86 -283q-9 15 11 31t40 25q20 14 84 65q80 57 160 154q111 146 211 352q6 15 24.5 43t24.5 47q17 35 25 47q11 11 24 54q58 176 66 213q2 36 18 106q8 32 8 51q10 41 9 51q1 27 9 106t5 122q-3 34 -2.5 111.5t-3.5 111.5q-6 108 -35 225q-11 40 -33 76q-7 11 -3 20.5 t15 6.5q4 -1 7.5 -3.5t5.5 -5.5t6 -8.5t6 -7.5q40 -67 55 -180q21 -114 21 -223v-105q-1 -13 -1.5 -55t-2.5 -64q0 -17 -0.5 -48.5t-1 -49.5t-3 -44t-8.5 -50q-10 -38 -24 -106t-21 -95q-4 -19 -49 -162q-13 -33 -35 -82q-5 -16 -19 -36.5t-17 -26.5q-17 -47 -43 -93.5 t-63 -104.5t-52 -85q-55 -82 -96 -127q-45 -66 -111 -114q-67 -67 -113 -95q-6 -3 -28 -21t-40.5 -26.5t-29.5 0.5z" />
<glyph unicode="*" horiz-adv-x="892" d="M45 1075q-11 36 20 64.5t82 15.5q159 -42 283 -35q-34 51 -67.5 87t-54 51t-41.5 35.5t-36 45.5q-14 26 -13.5 53t22.5 46t55 14q22 -3 47 -24t33 -48q2 -8 17 -78t32 -118.5t35 -50.5q43 61 75 151.5t54 122.5t56 35t46 -19q13 -20 12.5 -46.5t-10.5 -41.5 q-26 -39 -107 -117.5t-98 -97.5q24 -9 145.5 10.5t174.5 6.5q31 -8 41.5 -43.5t-12.5 -61.5q-17 -20 -51 -22.5t-52 2t-55 14.5q-10 3 -39.5 17t-68 27t-83.5 17q11 -28 34.5 -59t47.5 -54.5t50 -51.5t42 -51t23.5 -52.5t-4.5 -56.5q-4 -19 -24.5 -26.5t-41.5 -2.5 q-33 5 -58 48.5t-37 94.5t-27 112t-29 87q-17 -21 -38 -67t-36.5 -88t-29.5 -81t-15 -42q-18 -40 -52.5 -56t-70.5 7q-21 15 -31 44.5t-2 53.5q11 31 44 61t68.5 51.5t74.5 55.5t59 71q-43 0 -83.5 -6t-62 -12t-49 -16t-30.5 -11q-23 -5 -36.5 -7.5t-38 -4.5t-39.5 1.5 t-29.5 15t-20.5 30.5z" />
<glyph unicode="+" horiz-adv-x="1124" d="M70 726.5q-2 10.5 2 16.5q16 16 32 19q147 4 209 2q41 -2 118 0.5t112 1.5q4 16 4 31.5t-2 30t-2 20.5q0 21 -1 61.5t-1 59.5q-3 57 0 112q1 9 -0.5 86t0.5 78q3 10 18.5 9t20.5 -9q13 -16 14.5 -46.5t-2.5 -49.5q-6 -79 -2 -238q0 -10 0.5 -27t0.5 -31t-1 -26 q0 -3 -1 -13t-0.5 -16.5t1.5 -14.5t5.5 -12.5t12.5 -4.5q26 -1 158 4q131 0 168 4q11 1 38 -0.5t38 0.5l8 -1q9 -1 12 -2l9 -3t8.5 -5.5t3.5 -8.5q0 -14 -7 -19t-23 -5t-20 -1q-70 -8 -112 -8q-38 -1 -105 -2t-106 -2q-80 0 -86 -23q-5 -7 -4.5 -56t0.5 -56q-2 -2 -1 -50 t1 -49q-1 -33 -0.5 -82.5t-0.5 -82t-5 -64.5q-3 -24 -21 -20.5t-20 24.5q-6 96 -2 221q1 2 1 55l-1 54q0 39 2 57q0 35 -2 51q-3 9 -10 14t-16 5.5t-19.5 1t-18.5 0.5q-39 0 -47 2q-232 0 -264 -4q-6 0 -25.5 -1.5t-29.5 -0.5h-31q-6 3 -8 13.5z" />
<glyph unicode="," horiz-adv-x="411" d="M74 180q4 16 4 23q9 23 20 41q23 34 74 43q9 1 16 1.5t14.5 -1.5t12 -2.5t13 -5t11 -6l12.5 -7.5t13 -8q44 -28 60 -84q14 -35 14 -37q2 -20 -2 -59q-1 -15 -5 -30t-11.5 -35.5t-10.5 -30.5q-4 -13 -10.5 -25t-17 -27.5t-15.5 -23.5q-31 -48 -61 -74q-30 -25 -37 -29 q-4 -3 -35 -28q-14 -14 -22 -11q-23 17 22 54q33 22 37 26q5 5 22 24t26 29.5t20 27t16 30.5q19 49 8 94q-8 25 -20 33q-6 1 -13 -1t-14.5 -6t-11.5 -5q-28 -9 -78 4q-20 4 -33 18.5t-16 34.5q-6 25 -2 53z" />
<glyph unicode="-" horiz-adv-x="1089" d="M104 744.5q-6 18.5 15 23.5q16 4 33.5 4.5t41.5 -1t35 -1.5q8 0 42 -1.5t48 -0.5q12 2 60 2t61 -2q7 -2 49.5 -0.5t49.5 0.5q127 -9 182 -2q14 0 61.5 1.5t87.5 1.5t62 -3q9 -1 28.5 -1t28.5 -1q2 -1 14 -3.5t19.5 -6.5t7.5 -11q-1 -12 -27.5 -17t-44.5 -5q-16 2 -47 -2 q-10 -2 -61.5 -1.5t-61.5 -0.5q-22 0 -227.5 4t-236.5 -2q-8 -1 -25 1t-25 1q-22 -5 -49 -2q-32 0 -98 4q-17 3 -23 21.5z" />
<glyph unicode="." horiz-adv-x="311" d="M74 86q-5 46 18 55q4 2 9 6t10.5 10.5t7.5 8.5q4 2 33 12q37 5 59 -22q25 -38 27 -60q4 -31 -16.5 -54.5t-53.5 -31.5q-34 -9 -68 15q-16 12 -22 20q-4 28 -4 41z" />
<glyph unicode="/" horiz-adv-x="1007" d="M174.5 -193.5q-0.5 13.5 4 34.5t11 46t16 53t17 50t14.5 42.5t9 26.5q16 48 35 117q14 56 36 123q10 27 22 73.5t36 110.5q8 20 31 90t38 105q3 15 13 42.5t14 43.5q15 40 100 297q7 18 16.5 55.5t14.5 52.5q19 64 35 103q23 123 76 256q15 41 26 81t15.5 63t9 42t11 27 t18.5 10q4 3 9 -2t8 -15.5t1 -19.5q3 -12 -6 -18q1 -8 -1.5 -23t-2.5 -22q-5 -30 -27 -101q-4 -17 -12.5 -43.5t-19.5 -57t-15 -42.5q-18 -73 -63 -207q-3 -13 -15 -45t-14 -47q-5 -18 -14 -57.5t-15 -57.5q-13 -34 -29 -89.5t-28 -88.5q-49 -132 -86 -244 q-42 -132 -51 -145q-2 -10 -13 -45q-5 -22 -16 -43q-4 -22 -19.5 -71.5t-19.5 -69.5q-8 -22 -32.5 -99.5t-41.5 -117.5q-2 -8 -9 -33t-17.5 -59.5t-26.5 -80.5q-6 -18 -15 -22t-14 1l-6 5q-7 2 -7.5 15.5z" />
<glyph unicode="0" horiz-adv-x="1128" d="M115 344q-13 114 4 217q5 20 9.5 57.5t6.5 49.5q2 21 11 59t12 55q17 81 59 197q46 124 154 268q1 2 32 39q8 8 22 23t21 22q64 60 160.5 90t169.5 27q75 -4 139 -64t95 -122q15 -28 20 -47t8 -27q13 -47 15 -60q8 -35 10 -53t2.5 -58.5t3.5 -62.5q1 -19 -4 -120 q-6 -89 -47 -246q-3 -17 -16 -57t-15 -48q-7 -20 -23.5 -53t-21.5 -45q-37 -81 -108 -176q-8 -13 -29.5 -34t-28.5 -32q-3 -4 -12.5 -16t-13 -16.5t-11 -13t-14 -14t-14.5 -11.5q-20 -17 -39 -25q-20 -11 -35 -24q-43 -32 -86 -43q-23 -7 -81 -9t-81 2q-89 17 -113 33 q-18 13 -35.5 33.5t-26 32.5t-27.5 44t-23 38q-33 53 -47 177q-1 9 -2 13zM295 338q-13 -135 6 -199q11 -43 38.5 -76t66.5 -43q55 -17 100 -4q41 10 94 50q10 7 18.5 16t18.5 22t16 19q12 23 43 92q23 45 56 146.5t49 164.5q14 58 30 116t24 88.5t11 45.5q0 1 11.5 71.5 t11.5 80.5q16 109 14 162q0 16 -0.5 51.5t-1 56t-3.5 49.5t-9 53q-13 45 -41 77t-74 32q-54 5 -82.5 -3.5t-64.5 -41.5q-6 -5 -18.5 -22.5t-18.5 -22.5q-13 -13 -33 -41q-25 -34 -59 -96q-50 -91 -86 -199q-75 -223 -95 -426q-11 -141 -22 -219z" />
<glyph unicode="1" horiz-adv-x="954" d="M25 39q1 3 3.5 5.5t4.5 3.5l2 1q34 -2 60 -1.5t57.5 20t74.5 65.5q11 31 23 70t14 45q4 14 15.5 41t15.5 45q5 19 23 54t22 44q4 11 31 100q3 14 14 46.5t14 50.5q9 37 23 69q10 28 16 50q32 79 56 174q18 78 26 102q8 16 13 32.5t10.5 41t9.5 37.5q3 11 9 29l11 33t9 28 q0 1 3 7.5t4.5 10.5t3 9.5t0 8.5t-6.5 3q-7 1 -12 -2.5t-10 -9.5t-9 -9q-100 -60 -172 -88q-39 -12 -68 6q-8 3 -8.5 10.5t8.5 10.5q8 2 21 4t20 4q62 23 80 33q17 11 52 27.5t51 25.5q15 9 44 28.5t44 28.5q14 7 41 26.5t43 26.5q5 2 15 9t17 10q1 1 33 20q50 44 74 23 q31 -19 -16 -80q-12 -18 -24 -57.5t-15 -46.5q-7 -19 -24 -65t-28 -79.5t-18 -66.5q-35 -136 -100 -334q-1 -1 -15 -39t-18 -53q-3 -8 -5.5 -29.5t-6.5 -32.5q-14 -25 -21 -57q-3 -10 -10 -31t-10 -31q-2 -8 -17.5 -54.5t-17.5 -59.5q-4 -12 -21.5 -56t-21.5 -55 q-10 -29 -14 -59.5t3.5 -65t30.5 -55.5q10 -8 20.5 -11t27 -3.5t24.5 -1.5q5 -1 14 0t19 -1t12 -8q1 -5 -2.5 -8t-11 -5t-9.5 -3q-8 -3 -28.5 -9.5t-30.5 -9t-28.5 -6t-39 -2.5t-45.5 4q-28 4 -47.5 9t-27 9t-19.5 11.5t-18 11.5q-8 5 -26 33.5t-17 34.5q1 5 -6 1 q-3 -3 -12 -10q-33 -29 -60 -44q-67 -37 -129 -21q-2 0 -10.5 11t-5.5 16z" />
<glyph unicode="2" horiz-adv-x="1122" d="M27 10q0 19 18 33q21 21 33 31q4 11 31 37q33 29 88 93t63 72q23 25 141 138q30 28 66 69q47 60 57 70t21 23t24 29.5t21 25.5q43 46 74 88q10 15 31.5 40t29.5 36q5 8 18.5 23.5t22 28t12.5 25.5q5 9 23 39t26 47q32 62 41 99q28 119 23 207q-4 54 -35 77q-35 30 -84 37 q-65 14 -92 8q-27 -4 -88 -26q-53 -24 -78 -51q-17 -17 -29 -47.5t-10 -53.5q1 -10 4.5 -32.5t4 -34t-2.5 -31.5q-18 -57 -55 -57q-40 0 -72 32q-5 6 -8.5 12t-5 14t-2 12.5t0.5 15t1.5 13.5t3 15t2.5 13q9 38 14 45t15.5 20.5t15.5 20.5q27 40 70 69q66 51 186 86 q86 25 193 -18q59 -22 88 -51q9 -9 19.5 -17t15.5 -14q27 -27 30 -31q42 -57 51 -86q21 -58 21 -100q0 -49 -8 -88q-3 -13 -8 -51q-5 -22 -25 -50q-46 -80 -127 -161q-10 -10 -36 -39t-40 -44t-36.5 -37.5t-41.5 -39.5q-30 -29 -89 -78.5t-79 -66.5q-15 -14 -44 -38t-42 -36 q-16 -16 -47.5 -39.5t-46.5 -38.5q-47 -42 -67 -64q-19 -19 -37 -40q-2 -3 -10.5 -11.5t-13.5 -15.5t-7 -14l-14 -17q10 -4 24.5 -4.5t23.5 1t27.5 6t22.5 5.5q43 7 113 7q132 -3 227 4q43 3 68.5 6.5t59 19.5t48.5 43q17 26 21 39q6 28 16 29q3 0 6 -2q14 -10 17 -27 q6 -42 6 -47q0 -8 -6.5 -24.5t-6.5 -18.5q-1 -4 -4 -17.5t-6 -19.5q-29 -49 -45 -61q-4 -4 -16.5 -13.5t-16.5 -15.5q-9 -11 25 -25q32 0 37 -4q10 -9 -14 -15q-3 0 -9 -2l-6 -1q-39 -10 -118 -10h-87q-68 -4 -200 8q-9 1 -26.5 1t-25.5 1q-5 0 -23 1.5t-28 0.5 q-16 -2 -47 2q-9 1 -27.5 0t-27.5 0q-52 3 -94 -2q-9 -1 -28 0.5t-24 1.5q-42 -6 -45 -6q-19 0 -30 14z" />
<glyph unicode="3" horiz-adv-x="1034" d="M33.5 117q-2.5 30 9.5 49q19 31 70 31q40 0 65 -47q16 -37 21 -46q6 -4 18.5 -12t18.5 -12q74 -48 188 6q46 24 98 66q33 23 62 73q4 6 12 19.5t12 19.5q5 15 23 51q16 26 37 91q20 75 22 108q1 35 1.5 66.5t-6.5 66t-23 60.5q-3 5 -11.5 11t-11.5 11q-18 21 -33 29 q-42 23 -110 12q-40 -9 -86 -31q-25 -10 -35 0q-4 10 1 20t15 15q5 5 35 17q5 3 45 20q20 7 55 23.5t43 19.5q67 32 86 45q15 9 31 25q7 6 37 41q66 69 96 178q40 135 0 215q-45 81 -170 74q-58 -4 -82 -21q-24 -19 -43 -82q-4 -16 -7 -32.5t-6 -37.5t-5 -32 q-3 -20 -18 -41.5t-33 -32.5q-16 -11 -41 -12t-41 10q-32 29 -41 68q-12 75 90 163q20 16 72 41q32 14 45 17q9 1 25 7t22 7q65 13 86 12q25 -1 41.5 -3.5t33 -6.5t27.5 -6q52 -14 78 -33q46 -34 74 -67q60 -69 57 -172q-2 -33 -17 -67.5t-29.5 -55.5t-41.5 -56 q-1 -1 -7.5 -10.5t-8.5 -12t-8 -10.5t-9.5 -11t-9.5 -8.5t-11.5 -9t-11.5 -5.5q-4 -2 -51 -33q-39 -28 -45 -35q-2 -2 -8 -5.5t-10 -7.5t-4 -9q1 -5 11.5 -10.5t24.5 -10t17 -6.5q7 -6 24 -18.5t25 -20.5q23 -23 33 -35q5 -6 12 -20.5t12 -20.5q16 -60 19 -110 q0 -40 -10 -92q-2 -7 -9 -43.5t-14 -53.5q-6 -15 -15 -29t-20.5 -30.5t-17.5 -26.5q-55 -64 -92 -101t-88 -75q-14 -11 -41 -28.5t-39 -26.5q-8 -6 -49 -21q-9 -4 -28 -12t-28 -12q-26 -13 -102 -31q-20 -6 -53 -6q-20 2 -62 2q-100 7 -170 70q-15 13 -17.5 43z" />
<glyph unicode="4" horiz-adv-x="1124" d="M18 518q5 16 33 53t43 52q16 16 43 47.5t39 44.5q31 31 78 83.5t59 65.5q15 18 35 38t33 32.5t40 37t38 34.5q21 20 80.5 71t87.5 78q48 38 71 64q33 33 107 98q77 69 127 96q19 9 41 25t37.5 21.5t42.5 2.5q15 0 10 -32q-3 -21 -21 -48q-5 -10 -18 -43q-8 -38 -18 -55 q-5 -9 -21 -45q-3 -8 -5.5 -23t-4.5 -20q-26 -38 -45 -111q-19 -43 -44 -123.5t-32 -101.5q-14 -35 -47 -140t-49 -145q-3 -9 -5 -12.5t-3 -3.5t-2.5 -3.5t-2.5 -12.5q1 -5 -3 -13t-5.5 -12t4.5 -8q7 -2 38.5 0.5t35.5 1.5q49 -5 111 -2q14 -1 67.5 0.5t67.5 -0.5 q12 -2 26 -31q-2 -14 -22 -18q-1 0 -47 -6q-8 -1 -48.5 5t-49.5 5q-12 1 -55.5 -5.5t-57.5 1.5q-11 2 -42 -0.5t-36 -7.5q-25 -16 -22 -33q-3 -17 -30 -105t-30 -104q-12 -30 -16.5 -63t4 -66t33.5 -49q64 -22 88 -17q7 1 16.5 8.5t13.5 8.5q4 3 8.5 1.5t4.5 -7.5 q0 -3 -1.5 -5.5t-3 -3.5t-4 -2.5t-4.5 -3.5q-32 -22 -57 -28q-23 -9 -30.5 -10.5t-36.5 1.5q-36 5 -66 13q-1 0 -57 24q-16 7 -44 40.5t-38 39.5q0 2 -3 -3q-11 -17 -22 -26q-31 -40 -67 -49q-42 -14 -62 -22h-33q-14 3 -18 12q-3 5 4 8q11 6 34 6t36 7l19 9.5t20 10.5 q27 14 38 41q5 15 20 45.5t21 46.5q2 8 6.5 31.5t8 39.5t9.5 36.5t13 33.5q0 1 10.5 37t18.5 68t4 35q-6 3 -20 3t-17 1q-68 4 -104 -2q-36 0 -106 4t-105 4q-10 -1 -28 0.5t-23 1.5q-36 -5 -48 0q-26 -4 -39.5 10t-5.5 37zM92 512q1 -1 4 -2q34 -4 51 -2q35 8 70 4 q18 -1 46 0t46 0q12 -1 51.5 -1.5t59.5 -2.5q15 -2 38.5 -1t46 3.5t23.5 3.5q26 26 35 57q1 4 24.5 79.5t33.5 97.5q6 21 26 66t25 69q3 23 17 66t18 61q3 17 10 38t17.5 46t13.5 34q36 107 36 109q-9 -2 -21 -10.5t-25 -20t-17 -14.5q-16 -9 -28 -19.5t-29.5 -29 t-20.5 -21.5q-8 -7 -59 -51.5t-82 -74.5t-58 -62q-3 -3 -39.5 -44.5t-62.5 -62.5q-31 -42 -81 -99t-83 -89q-22 -33 -28 -39q-8 -7 -19 -20.5t-12 -20.5q-1 -3 -12 -13q-29 -28 -15 -34z" />
<glyph unicode="5" horiz-adv-x="1148" d="M4 174q0 39 31 64q24 17 59 20q21 0 39 -9t25 -24q26 -34 37 -75q12 -51 56 -83t103 -34q54 -4 92 1.5t72 24t58 39.5t63 62q3 4 12.5 19t19 28t15.5 20q18 32 27 45q8 10 15 24t15 33.5t13 30.5q72 197 55 336q-11 65 -53 107q-5 7 -9.5 12t-10.5 9.5t-9.5 6.5t-13 7 t-15.5 8q-24 14 -76.5 15.5t-74.5 -5.5q-33 -4 -71 -20t-52 -17q-5 -1 -22.5 -6.5t-30 -5t-17.5 11.5q-7 34 4 66q4 9 19.5 45.5t21.5 58.5q5 13 32.5 94t45.5 123q7 22 31 87t35 104q34 62 63 73q56 15 94 13q84 -9 220 -13q73 4 102 13q3 1 12.5 5.5t20 8.5t21 7.5t18 3.5 t8.5 -5q-3 -13 -9 -24t-15.5 -23.5t-14.5 -21.5q-23 -35 -25 -37q-8 -6 -23 -21t-22 -20q-10 -4 -8.5 -11.5t14.5 -7.5q20 3 39 11q14 9 29 7q8 -1 6 -9q-1 -7 -26 -17q-35 -15 -41 -18q-10 -2 -30 -2.5t-26 -1.5q-10 -1 -29 -6.5t-24 -6.5q-12 -2 -33 1t-26 3 q-65 -11 -105 -4q-27 5 -104 9q-67 8 -90 -29q-20 -46 -33 -88q-18 -31 -33 -92q-3 -11 -21 -61t-32.5 -96.5t-15.5 -62.5q-1 -10 25 -3q10 2 33 10q28 9 32 8q2 1 23.5 8t29.5 8q82 13 133 10q11 1 25 0t20 -2t20.5 -3.5t26.5 -4.5q55 -9 70 -17q3 -2 69 -44q10 -7 26 -25 t17 -28q2 -4 6 -12.5t5 -12.5q1 -6 8 -20t8 -19q23 -77 23 -135q-30 -165 -64 -238q-43 -92 -125 -174q-22 -25 -63 -63q-21 -16 -31.5 -22.5t-18.5 -11.5t-18 -11q-30 -27 -86 -54q-4 -1 -19.5 -8t-22 -9.5t-23.5 -7.5t-37 -9q-86 -10 -154 -4q-97 6 -133 16 q-68 20 -101.5 36t-82.5 60q-23 29 -23 82z" />
<glyph unicode="6" horiz-adv-x="1054" d="M51 442q1 6 4 52t8 67q24 138 43 189q11 32 39 98q12 33 58 108q47 78 49 80q38 51 98 133q8 13 19 26t26 29t23 25q7 7 21 22t25.5 26t22.5 20q12 12 26.5 22.5t32.5 22.5t29 20q62 40 101 50q111 32 190 8q48 -15 83.5 -46.5t45.5 -78.5q11 -50 -14 -79.5t-84 -18.5 q-56 12 -70 47q-5 15 -7 46t-10.5 52t-33.5 31q-37 15 -84.5 6.5t-77.5 -33.5q-10 -8 -22 -20q-5 -6 -15.5 -19.5t-15.5 -19.5q-30 -36 -33 -39q-16 -21 -43 -70q-71 -137 -92 -182q-20 -53 -35 -88q-30 -71 -26 -99q8 -3 35 17q64 38 182 51q70 9 138 -15.5t122 -84.5 q27 -31 43 -90q6 -15 9 -29.5t4.5 -39.5t2.5 -32q2 -18 -0.5 -79t-9.5 -87q-1 -5 -6 -23.5t-6 -27.5q-5 -25 -33 -88q-4 -8 -14 -24.5t-11 -18.5q-18 -37 -26 -49q-47 -66 -55 -76q-66 -66 -84 -78q-42 -32 -97 -51.5t-100 -19.5q-7 0 -23.5 -0.5t-28 -0.5t-26 1t-24.5 4 q-4 1 -29 6t-33 8q-2 1 -21.5 7t-27.5 11q-12 6 -24 16.5t-15.5 15.5t-17.5 22q-38 47 -54 86q-24 46 -32 80q-25 101 -19 202zM211 344q-15 -130 10 -201q16 -44 50.5 -75.5t82.5 -40.5q16 -6 51.5 -4.5t47.5 12.5q1 0 23.5 15t29.5 22q34 29 45 47q47 72 57 90 q8 14 16.5 34.5t13.5 35t13.5 42t10.5 33.5q3 11 6 37t4 33q10 48 8 68q0 10 2 31.5t2 31.5q1 9 -0.5 28t-1.5 23q-3 17 -7 51.5t-7 51.5q-10 47 -41 100q-14 24 -29 35q-20 13 -43 16q-40 7 -93.5 -9.5t-90.5 -45.5q-8 -8 -33.5 -29t-36.5 -35q-10 -12 -14 -41 q-2 -7 -8 -22t-7 -23q-3 -20 -15 -56t-15 -50q-5 -43 -6 -45q-1 -9 -4.5 -24t-4.5 -21q-12 -78 -16 -115z" />
<glyph unicode="7" horiz-adv-x="921" d="M72 39q-12 22 0 53q4 22 16.5 48t21.5 40t32 45.5t28 38.5q22 29 62.5 91t62.5 91q2 3 18 30t27 36q28 28 72 92q49 67 127 170q100 137 125 174q88 128 120 189q9 19 28 47t24 37q1 3 7 13t12 20.5t11 22t4.5 20.5t-6.5 12q-7 4 -37 4q-33 0 -49 -2q-20 -1 -60.5 -2 t-60.5 -2q-8 -3 -53.5 -0.5t-56.5 2.5q-78 -4 -117 -4q-61 -10 -106 -13q-80 -13 -101 -53q-4 -7 -12 -23.5t-16 -29t-19 -21.5q-13 -8 -14.5 8t2.5 23q1 6 4 27t4 34q19 62 45 95q4 6 12.5 17t12.5 17q3 3 10 8.5t10.5 8.5t7 7.5t4.5 8.5q3 9 -7.5 14t-25.5 8.5t-18 6.5 q-8 6 -5 12t11 6q31 0 50 -8q7 -2 15.5 -2t18.5 1t15 1q48 -6 53 -6q2 0 119 6q28 2 92 0.5t94 -2.5t89 -4t77 -4q5 0 20 2.5t26 3t24.5 0t23 -6t12.5 -15.5q-8 -67 -63 -187q-52 -126 -84 -180q-63 -105 -88 -156q-12 -22 -34.5 -62t-41 -73t-35.5 -63q-7 -15 -51 -84 q-3 -7 -10 -25t-12 -27q-10 -19 -58.5 -104t-66.5 -123q-11 -20 -32.5 -60t-38.5 -71t-34 -57q-18 -27 -22 -43q-7 -29 -19 -43q-6 -7 -17.5 -21t-18.5 -21.5t-16.5 -17.5t-18.5 -16q-20 -12 -48.5 -9.5t-48.5 15.5q-18 12 -28 35z" />
<glyph unicode="8" horiz-adv-x="1038" d="M61 401q12 63 31 97q34 58 62 86q74 77 163 118q25 15 41 23q21 11 35 25q-44 32 -55 45q-43 43 -62 77q-13 25 -38 84q-37 81 -15 193q11 54 33 86q41 60 82 92q57 44 104 64q64 28 107 39.5t104 15.5q55 4 99 -6q80 -25 114 -54q30 -27 49 -51q31 -38 52 -127 q30 -130 -86 -274q-13 -16 -29.5 -31t-37.5 -32.5t-32 -28.5q-34 -30 -57 -39q-18 -7 -28 -13.5t-31 -13.5q8 -9 22 -21t23 -22q41 -27 77 -82q43 -64 52 -88q18 -48 18 -108q0 -108 -37 -183q-23 -50 -43 -77q-9 -16 -30 -41q-4 -7 -13 -16t-21 -19.5t-16 -14.5 q-54 -54 -84 -67q-14 -6 -38 -19t-41 -18q-49 -13 -103 -16q-23 -2 -72.5 5.5t-80.5 22.5q-62 28 -101 60q-55 43 -96 141q-40 98 -21 188zM166 334q0 -8 3 -23.5t3 -23.5l12 -54q27 -74 41 -96q12 -17 24 -30.5t20 -21.5t20.5 -15t18 -9.5t19.5 -8t19 -7.5q39 -16 100 -12 q20 0 44 3.5t66.5 22.5t72.5 52q40 43 55.5 82t20.5 104q2 30 -15 123q-10 46 -29 78t-57 77q-14 17 -41 39.5t-33 28.5q-18 16 -39 31.5t-33 23.5l-12 7q-7 -3 -20.5 -7.5t-19.5 -7.5l-39 -26q-6 -4 -18.5 -12.5t-18.5 -12.5q-18 -12 -33 -27q-61 -65 -72 -82 q-34 -51 -47 -94q-8 -25 -12 -102zM369 1122q0 -47 24 -100q3 -8 8 -16t8.5 -13.5t10.5 -14t10 -11.5t12 -13t11 -12q51 -60 77 -76q28 -23 31 -24q16 -9 43 2q27 12 98 67q18 15 33 33q3 4 26 28.5t34 39.5q28 37 45 82q18 45 18 104q0 54 -12 86q-35 101 -141 117 q-26 5 -99 -4q-28 -4 -45 -13q-38 -17 -65 -32q-46 -28 -86.5 -102t-40.5 -128z" />
<glyph unicode="9" horiz-adv-x="1036" d="M50.5 145.5q4.5 31.5 17.5 42.5q43 31 86 19q19 -6 34 -25t15 -39q0 -8 -4.5 -30.5t-6 -36t4.5 -27.5q18 -22 69 -22q17 1 33 4.5t38 9.5t30 8q79 20 147 119q34 51 49 80q19 34 33 76q2 7 39 108q3 9 14.5 40t14.5 40q1 5 5 15t5 14.5t2.5 14.5t-0.5 15q-6 2 -13 0 t-14.5 -6.5t-11.5 -5.5q-13 -6 -26.5 -10t-23 -6t-25 -3t-23.5 -1h-29h-31q-47 0 -117 24q-16 5 -26.5 9t-20.5 10t-13.5 8t-15.5 11.5t-16 12.5q-68 52 -94 146q-12 53 -12 104q0 28 22 109q4 14 13.5 45t13.5 49q1 6 8 18t8 15q13 40 47.5 99t77.5 108q48 48 54 53 q95 75 186 92q13 3 30.5 3.5t29 0t33.5 -2t28 -1.5q15 -1 29.5 -5.5t24.5 -9t24 -14t20 -14.5t20.5 -17.5t18.5 -15.5q11 -8 39 -47q79 -110 92 -258q3 -31 -6 -119q-10 -95 -45 -221q-4 -14 -10 -28.5t-13.5 -32.5t-11.5 -29q-99 -253 -141 -309q-19 -26 -42 -62t-36 -55 q-9 -11 -22.5 -28.5t-22.5 -28.5q-22 -25 -27 -32q-1 -2 -8 -9l-27 -27q-15 -15 -23.5 -21t-29.5 -18t-45 -28q-7 -5 -13.5 -8t-12 -5.5t-18 -5.5t-21.5 -5.5t-34 -8t-44 -10.5q-15 -3 -66.5 -1.5t-66.5 5.5q-45 11 -50 14q-25 14 -41 25q-43 27 -55 75q-5 16 -0.5 47.5z M346 856q-14 -122 14 -203q16 -42 54 -59q52 -25 92 -23q43 0 68.5 9.5t52.5 29.5q13 10 23.5 20.5t15.5 16.5t14 19.5t12 17.5q74 106 107 266q23 96 30 127q15 59 15 117q-3 53 -6 78.5t-17.5 59t-42.5 52.5q-36 24 -86 27q-44 0 -104 -25q-42 -19 -81.5 -55.5 t-60.5 -75.5q-40 -69 -67 -190q-11 -47 -19 -98q-12 -68 -14 -111z" />
<glyph unicode=":" horiz-adv-x="483" d="M43 103.5q0 9.5 1.5 15t6 18t6.5 21.5q4 17 12.5 28t22.5 17.5t21 8t24 5.5q23 6 41 2.5t35 -20.5q40 -28 43 -62q6 -29 -10 -67q-8 -15 -24 -34t-29 -28q-55 -19 -93 8q-3 3 -10 7.5t-9 6.5t-7 6t-6.5 6t-5 5.5t-5 6.5t-3.5 7.5t-3.5 9.5t-3.5 11q-4 12 -4 21.5z M190 844q9 32 32 53.5t52 26.5q43 5 71 -6t54 -50q18 -25 4 -80q-5 -35 -43 -61q-23 -16 -71 -16q-5 1 -17.5 4t-16 4t-12 4.5t-12.5 6.5t-9.5 8.5t-10.5 13.5q-28 42 -21 92z" />
<glyph unicode=";" horiz-adv-x="512" d="M72 106q4 16 4 23q9 23 20 41q23 34 74 43q9 1 16 1.5t14.5 -1.5t12 -2.5t13 -5t11 -6l12.5 -7.5t13 -8q44 -28 60 -84q14 -35 14 -37q2 -19 -2 -59q-1 -15 -5 -30t-11.5 -35.5t-10.5 -30.5q-4 -13 -10.5 -25t-17 -27.5t-15.5 -23.5q-31 -48 -61 -74q-26 -22 -37 -28 q-1 0 -35 -29q-13 -13 -22 -10q-4 3 -6.5 6t-2.5 6.5t0.5 7t3.5 7t4.5 6t6 6.5t6 5.5t5.5 5t5 3.5q30 20 37 27q5 6 21.5 24t26 29t20.5 27t16 30q19 49 8 94q-8 25 -20 33q-6 1 -13 -1t-14.5 -6t-11.5 -5q-28 -9 -78 4q-20 4 -33 18.5t-16 34.5q-6 25 -2 53zM190 844 q9 32 32 53.5t52 26.5q43 5 71 -6t54 -50q18 -25 4 -80q-5 -35 -43 -61q-23 -16 -71 -16q-5 1 -17.5 4t-16 4t-12 4.5t-12.5 6.5t-9.5 8.5t-10.5 13.5q-28 42 -21 92z" />
<glyph unicode="&#x3c;" horiz-adv-x="1392" d="M167 732.5q-5 7.5 3 17.5q2 4 20 10q4 2 19.5 10t23.5 10q120 38 189 72q57 28 174 94t180 96q102 49 187 93q107 60 174 90q1 0 5 1.5t6.5 2.5t7.5 2.5t7.5 1.5h7t6.5 -1.5t5 -3.5t2.5 -6.5t-0.5 -9.5q-3 -9 -10 -14.5t-19.5 -10.5t-15.5 -7q-20 -11 -77.5 -45.5 t-90.5 -49.5q-28 -13 -79.5 -39.5t-70.5 -35.5q-35 -17 -99 -54t-95 -53q-7 -4 -21.5 -10.5t-19.5 -9.5q-14 -7 -40 -20.5t-40 -20.5q-62 -30 -80 -37q-65 -27 -90 -33q-3 -1 -11.5 -4.5t-15 -5.5t-12.5 -2q-15 -2 -37 -12q-12 -8 6 -14q5 -1 8 -1q3 -6 15 -6q8 -4 24 -16 q14 -9 45 -22t35 -15l92 -39q19 -7 51 -22t42 -19q59 -27 104 -45q13 -8 40 -21t34 -16q17 -7 47.5 -21t38.5 -18q16 -8 80 -35t96 -45q16 -7 45.5 -20.5t44.5 -20.5q67 -28 86 -47q14 -7 20 -22q1 -9 -5 -12.5t-16 -1t-16.5 5t-11.5 4.5q-62 34 -100 49q-64 32 -176 80 q-92 37 -199 90q-7 3 -19.5 10t-19.5 10q-6 3 -18.5 7t-18.5 7q-12 8 -27.5 14.5t-35 13t-31.5 11.5q-81 36 -84 37q-7 2 -21.5 10.5t-17.5 10.5q-8 4 -24.5 10t-24.5 10q-14 6 -65 31t-80 33q-2 1 -12.5 4t-14.5 5.5t-9 10z" />
<glyph unicode="=" horiz-adv-x="1275" d="M112 945.5q1 8.5 15 12.5q16 4 34 4.5t43.5 -0.5t33.5 -1q5 0 21.5 1.5t25.5 0.5q1 0 115.5 5.5t134.5 4.5q16 -2 52 -0.5t52 -1.5q9 -1 26.5 0t26.5 0q1 1 33 0.5t33 -0.5q10 3 64.5 0.5t66.5 -2.5q19 0 67 2.5t74 1.5q9 -1 29 -2t28 -2q13 -2 29 -10t17 -17 q-1 -5 -7.5 -8t-16.5 -3.5t-19 0l-18 1t-11 0.5q-33 0 -49 -4q-15 -6 -150 -6q-11 0 -45.5 2t-64.5 2q-30 2 -146.5 0t-163.5 -6q-19 -3 -53.5 -1.5t-54.5 -0.5q-6 0 -22.5 1.5t-24.5 0.5t-25.5 -2.5t-25.5 -2.5q-81 5 -97 7q-11 0 -19.5 7.5t-7.5 16zM126 540.5 q1 8.5 15 12.5q7 5 55.5 4.5t55.5 -0.5h119q4 0 36 1.5t44 0.5q17 0 49 4t49 4q16 -2 52 -0.5t52 -1.5q10 -1 29 0.5t25 1.5q12 0 33 -1t32 -1q10 3 64.5 0.5t66.5 -2.5q118 5 141 4q9 -1 29.5 -2t28.5 -2q13 -2 28.5 -9.5t16.5 -16.5q-2 -19 -76 -19q-16 0 -47 -2t-51 -2 h-203q-63 0 -134 1.5t-109 1.5t-70 -3q-17 -2 -53.5 -1t-55.5 -1h-98q-65 0 -96 4q-11 1 -20 8.5t-8 16z" />
<glyph unicode="&#x3e;" horiz-adv-x="1308" d="M158 285q6 12 16 22q16 13 82 47q39 15 86 41q32 17 92 43t78 35q44 25 128.5 64t119.5 57q11 4 41 19.5t47 21.5q25 9 88 39q7 4 35.5 16t42.5 21q4 3 10.5 8.5t9.5 7.5q16 5 17 6q9 0 15 7q1 5 -3 8q-11 7 -35 12q-5 1 -39 12q-25 9 -84 33q-13 6 -37.5 18.5 t-38.5 18.5q-4 2 -20 13t-29 17.5t-26 10.5q-12 8 -35.5 22t-36.5 23q-20 16 -44.5 29t-59.5 29t-50 24q-102 57 -141 75q-29 14 -82 48t-78 47q-2 1 -14.5 6.5t-18.5 11t-8 14.5q-2 12 2 17.5t13.5 4t15 -3t14.5 -5.5q40 -19 166 -90q49 -29 176 -93q58 -28 168.5 -93.5 t167.5 -94.5q68 -37 181 -74q8 -2 22 -10.5t16 -9.5q19 -6 21 -10q2 -9 4 -13.5t-5 -9t-10.5 -6t-12 -4t-9.5 -2.5q-21 -7 -42.5 -17.5t-51.5 -26.5t-41 -22q-7 -4 -23.5 -10t-23.5 -10q-4 -2 -17.5 -10t-21.5 -11q-17 -6 -45 -20t-35 -17q-28 -14 -82 -37t-80 -36 q-72 -40 -188 -90q-45 -20 -168 -78q-9 -5 -94 -51q-5 -3 -11 -5t-15.5 -4.5t-14.5 1.5t-4 14z" />
<glyph unicode="?" horiz-adv-x="862" d="M76 41q-8 36 14 63q27 31 55 31q34 -1 52 -21t30 -57q9 -32 -12.5 -60.5t-54.5 -31.5q-33 -1 -55.5 21t-28.5 55zM121 1233q6 33 29 72q17 23 71 69q24 22 78 62q41 27 96 34q111 15 197 -26q109 -52 149 -123q57 -99 45 -184q-8 -62 -26 -95q-34 -64 -85.5 -129 t-109.5 -104q-16 -12 -46.5 -35t-47.5 -35q-6 -4 -74 -67q-81 -74 -118 -150q-27 -64 -35 -98q-10 -34 -8 -55q0 -37 -13 -41q-36 -7 -2 137q6 23 10 37q27 90 88 166q18 22 66 75t70 82q9 13 29.5 40t29.5 40q32 44 49 84q54 120 67 168q36 135 -44 213q-35 32 -75 44 t-99 5q-43 -8 -82 -47q-10 -10 -19 -41q-12 -37 -14 -53q-21 -122 -88 -154q-34 -13 -68 25q-27 27 -20 84z" />
<glyph unicode="@" horiz-adv-x="1699" d="M54 639q0 162 65 319q39 96 67 139t107 130q170 176 426 237q167 40 307 31q100 -7 192 -41t156 -81t107 -92.5t63 -84.5q116 -227 23 -530q-71 -232 -248 -365q-34 -32 -80.5 -47t-86.5 -14.5t-75 10.5q-25 7 -73 45q-26 26 -52 84q-4 6 -5 13t-1.5 16.5t-1.5 13.5 q-3 27 -24 14q-6 -3 -14.5 -12t-12.5 -12q-4 -8 -17.5 -20.5t-17.5 -18.5q-14 -6 -39 -27q-25 -14 -43 -22q-71 -34 -88 -39q-39 -15 -90.5 -11t-83.5 31q-6 6 -25.5 21.5t-27.5 27.5q-26 42 -39 95q-16 58 -14 104q5 48 22 111q28 116 78 190q47 71 113 131q124 98 177 130 q133 82 249 75q83 -5 106 -10q33 -9 76 -43q29 -23 47.5 -73t-2.5 -103q-2 -5 -12 -34.5t-17 -45.5q-26 -63 -31 -88q-2 -14 -13.5 -41t-14.5 -37l-14.5 -43.5t-14.5 -42.5q-32 -73 -55 -168q-27 -88 33 -121q34 -24 93 -15.5t109 52.5q114 100 176 311q15 52 19.5 137.5 t-9 184.5t-46.5 161q-52 99 -180.5 178t-297.5 83q-253 6 -468.5 -144t-294.5 -395q-30 -93 -43.5 -167.5t-11 -166.5t42.5 -186t118 -187q62 -74 182.5 -133.5t216.5 -60.5q144 -2 194 2.5t132 28.5q43 12 85.5 35.5t61.5 37.5t52 41q19 15 37 35.5t26.5 26t18.5 0.5 q8 -4 -3.5 -24t-34.5 -46.5t-48 -48.5q-79 -68 -153.5 -92.5t-203.5 -38.5q-115 -10 -213 -1.5t-168 29.5q-272 74 -405 361q-65 139 -65 301zM547 416q11 -49 49.5 -75t87.5 -9q98 31 176 100q57 44 68 70q2 6 9 17t9 16q13 30 21 53q37 125 104 309q5 14 14.5 41.5 t14.5 42.5q2 8 8 24.5t9.5 29.5t4.5 26q3 32 -12 62t-45 40q-90 8 -195 -59q-41 -23 -73 -60q-26 -24 -51 -57.5t-39.5 -58t-38.5 -68.5t-35 -63q-7 -15 -20.5 -43.5t-20.5 -42.5q-8 -18 -17 -54.5t-14 -50.5q-32 -109 -14 -190z" />
<glyph unicode="A" horiz-adv-x="1236" d="M-626 -350q-1 9 -1 16q0 35 11 62q0 10 8 10l4 4q0 4 2 6q5 9 23.5 19t35.5 10q7 -1 14 -4.5t14.5 -9.5t12.5 -9q17 -20 41 -28q12 -3 45 -17t51 -16q43 6 70 22q51 17 86.5 50t79.5 99t61 87q171 275 193 299q101 175 268 432l43 64.5t53 82.5q21 31 38.5 57t34.5 53 t28.5 44.5t28.5 45t24.5 39.5t26.5 44t25 42t29.5 50t31.5 53q62 100 111 170t55 80q3 3 9 3h8q13 -2 13 -7q-11 -139 -16.5 -457.5t-9.5 -414.5q-2 -96 -2 -172q0 -107 4 -176q2 -13 2 -50t7 -71.5t28 -67.5q18 -26 83.5 -44.5t114.5 -22.5q1 -1 2 -3t3 -8q1 -3 1 -6 q1 -5 -7 -8q-6 -2 -10 -2h-5l-27 -2q-28 -2 -58 -4q-15 -1 -32.5 -0.5t-36.5 0.5q-39 2 -65 8q-75 19 -125 54t-76 98q-6 -29 -15 -53t-22 -40.5t-23.5 -28.5t-29.5 -19.5t-29 -12t-34 -6.5t-31.5 -2.5t-34 0t-31.5 0.5q-1 1 -3 2t-5 4.5t-2 7.5q1 5 8.5 11t9.5 6 q4 0 23 0.5t25.5 0.5t24.5 2t26.5 5.5t24.5 9.5t25 14.5t21 21.5t20 29.5t15 39t12 49.5q1 58 5 387h-117q-55 4 -102 4q-57 0 -101 -6q-8 -2 -44 -58.5t-77 -123t-53 -81.5q-66 -99 -141.5 -222.5t-120.5 -196.5t-100 -149.5t-110.5 -125t-121.5 -78.5q-36 -17 -92 -17 q-2 0 -4 -1q-53 0 -74 14q-36 6 -49 31q-23 32 -26 78zM428 649q15 -10 246 -10q20 0 28 4q10 8 14 34q3 18 4 34q0 7 -1 14q-2 20 -2 63q1 27 1 111v150.5t1 64.5q-15 -21 -23 -40.5t-30 -47.5q-204 -327 -238 -377z" />
<glyph unicode="B" d="M-100 28q8 5 10 5q5 0 27.5 -0.5t33.5 0.5t34 2.5t36.5 6t33.5 13.5t33 22t26 33t22 46q25 75 70.5 218.5t76.5 239.5q41 125 79.5 244t178.5 547q-130 2 -196 2q-6 0 -9.5 6.5t-1.5 11.5q3 5 9 9l6 3q1 0 2 -1l108 -2h90h43h57.5h58.5h46q23 1 56 1t73 -0.5t55 -0.5 q22 0 44 -3t49.5 -7.5t44.5 -6.5q10 -2 32 -10t31 -14q66 -42 101 -99.5t53 -144.5q3 -15 2 -29q0 -35 -15 -67q-3 -8 -8.5 -23.5t-7.5 -21.5q0 -1 -20 -47q-37 -86 -154 -148q-15 -7 -41.5 -18.5t-42.5 -18.5q-8 -4 -36 -11t-34 -9q-3 -1 -17.5 -3.5t-25.5 -6t-12 -7.5 q-1 -10 14.5 -18t35.5 -14t24 -9q6 -5 18.5 -15t18.5 -15q6 -3 12 -9t10 -10.5t10 -12.5t9 -11q64 -73 84 -176q2 -17 3 -35q0 -76 -46 -160q-66 -117 -206.5 -185.5t-299.5 -76.5q-48 -1 -98 -3h-20q-41 1 -82 7q-51 8 -92 24t-71 51t-39 85q-5 -28 -14.5 -51t-24.5 -38.5 t-29 -27.5t-36 -19t-37 -11t-40 -5.5t-37 -2t-37 0t-31 0.5l-3 3q-3 2 -5 6q-2 3 -1 5q0 6 9 12zM360 156q4 -27 11.5 -41t25.5 -29q34 -34 80 -37q9 -1 33 -5q23 -2 40 -4q10 -1 20 -1h14q80 0 194 74q37 25 53 45q15 18 27 39q4 5 12.5 18t12.5 18q37 46 61 154q3 13 3 32 q0 25 -5 60q-2 16 -2 51q-2 6 -5 25t-3 20q-15 61 -66.5 100t-117.5 42q-26 2 -73 3t-77 3q-34 2 -49 -4q1 0 -4.5 -12t-12.5 -28t-10 -24q-89 -229 -162 -499zM559 780q5 -6 17 -8.5t22 -2.5t25.5 0.5t17.5 0.5q16 -1 34 -1t40.5 0.5t34.5 0.5q67 0 102 10q41 12 104 45 q48 29 66 49q19 19 27 31q84 121 84 243v11q-6 178 -158 217q-45 8 -87 8q-32 0 -64 -4q-72 -12 -79 -34q-24 -63 -43 -121t-43.5 -139t-44.5 -144q-15 -46 -26 -72q-15 -34 -29 -90z" />
<glyph unicode="C" horiz-adv-x="1288" d="M45 616q8 87 43 187q38 115 117.5 229t184 206t237 149t264.5 57q126 0 230.5 -39.5t154.5 -118.5q18 -27 22 -41q1 -5 5 -14t6 -17t2 -14q0 -37 -4 -53q-14 -42 -21 -53q-21 -44 -74 -50q-13 -1 -25.5 7t-17.5 14.5t-16 21.5q-23 33 -23 74q1 19 4.5 53.5t4.5 53.5 q3 22 0 41q-12 54 -99 84q-43 18 -94 18q-22 0 -61 -10t-51 -12q-24 -6 -43 -17q-8 -4 -25 -10t-25 -10q-53 -26 -88 -58q-50 -40 -71 -61q-15 -14 -41 -41.5t-35 -36.5q-23 -23 -31 -39q-2 -3 -6 -10t-6 -10q-10 -13 -17 -25q-36 -47 -67.5 -118t-47 -119.5t-40.5 -137.5 q-31 -110 -34 -216v-24q0 -94 21 -178q24 -94 86.5 -165t157.5 -101q33 -11 65 -11q16 0 31 3q102 19 197 88q111 84 189 221q2 0 7 6.5t9 6.5q13 2 17 -1.5t3 -7.5l-2 -4q1 0 -17.5 -30.5t-42 -66.5t-32.5 -46q-178 -197 -381 -205q-16 -2 -32 -2q-50 0 -105 19 q-34 8 -86.5 32.5t-75.5 44.5q-4 4 -34.5 30.5t-39 35t-29 30.5t-33.5 40.5t-24 40.5q-36 74 -53 182q-11 70 -11 133q0 33 3 65z" />
<glyph unicode="D" horiz-adv-x="1536" d="M-100 30q4 4 7 6l3 1q8 0 31.5 -1t38.5 -1t38.5 2.5t41 10.5t36.5 21t34 36.5t26 54.5q1 3 63 198q47 134 70 209q12 32 23 68t23.5 79.5t20.5 69.5q31 112 80.5 250.5t61.5 175.5q6 18 12 41.5t12 40.5q1 3 11 34.5t18 57t6 25.5h-201q-1 1 -2.5 3.5t-4 6.5t-1.5 6 q1 5 5.5 9t8.5 6q3 1 4 0h1q212 -2 362 -2q14 0 39 0.5t45 0.5t37 -1q125 -10 213 -23q48 -6 94 -22q104 -42 162 -86q83 -67 129 -193q44 -122 44 -251v-9q-2 -134 -44 -236q-67 -163 -199.5 -303.5t-305.5 -230.5t-347 -104q-39 -4 -81 -4q-76 0 -161 12q-62 10 -110 37 q-26 19 -37 36q-21 29 -21 99q-11 -38 -29 -66.5t-35 -45.5t-42.5 -27.5t-42 -15t-45 -4.5t-39 1t-35.5 4q-9 2 -16 7q-6 4 -6 9q-1 3 4 8zM381 246q-11 -50 -11 -91q0 -56 21 -96q17 -33 84 -45q14 -2 32 -3q33 0 81 9q16 2 49 7.5t49 7.5q34 4 107 33q99 38 182.5 103.5 t134.5 150.5q18 32 46.5 93t41.5 87q38 68 74 205q37 134 61 268q8 45 8 87q0 86 -32 161q-9 22 -52 65t-79 58q-15 7 -32.5 12t-29.5 8.5t-34.5 7t-31 4.5t-35.5 4t-32 4q-20 3 -56 6.5t-46 4.5q-8 0 -26 1t-26 1q-5 1 -10 1q-21 0 -39 -11q-12 -5 -19 -16.5t-14 -35 t-8 -26.5q-38 -78 -47 -101q-29 -71 -63 -190q-9 -36 -21 -57q-5 -12 -39 -119t-37 -123q-3 -14 -15 -46.5t-15 -51.5q-8 -35 -31.5 -100.5t-30.5 -90.5q-3 -14 -34 -84q-5 -7 -7.5 -24t-3.5 -19q-2 -10 -7 -29.5t-7 -29.5z" />
<glyph unicode="E" horiz-adv-x="1159" d="M41 268q-1 11 -1 21q0 94 48 182q41 87 111 139q2 1 32.5 24t47.5 34q6 4 25.5 19t27.5 18q11 4 10.5 18t-12.5 29q-4 4 -14.5 11t-14.5 11q-2 2 -10.5 16t-11.5 15q-35 56 -43 92q-6 35 -6 78q0 19 2 39q4 66 18 102q66 148 169 228.5t243 121.5q81 19 156 18 q58 0 112 -10q125 -26 190 -94q91 -103 91 -195q0 -10 -1 -20q-4 -33 -32 -62q-28 -28 -56 -28h-2q-50 0 -68 36q-14 28 -13 80q0 15 1 32q1 9 1 17q0 62 -32 107q-37 51 -91 69q-38 13 -78 13q-17 0 -35 -2q-72 -12 -130 -44t-98.5 -80.5t-64 -89t-47.5 -93.5 q-18 -46 -25 -99q-4 -27 -4 -55q0 -25 4 -50q6 -52 36 -92.5t81 -55.5q13 -6 36.5 -7.5t27.5 -2.5q9 -1 32.5 2t43.5 2.5t28 -10.5q0 -15 -16 -25q-12 -17 -33 -12q-24 -4 -71 -18t-73 -17q-21 -5 -53 -23q-45 -19 -86 -57q-45 -40 -59 -70q-6 -15 -25 -47.5t-26 -50.5 q-18 -71 -19 -133q0 -44 10 -84q11 -53 47 -104.5t80 -69.5q32 -18 88 -25q5 0 13 -1t15.5 -1t14.5 2q48 0 152 29q13 5 26 11.5t33 19t27 16.5q35 27 52.5 81t30 116.5t34.5 95.5q22 32 65 32t58 -36q11 -26 11 -51q0 -14 -3 -27q-3 -57 -60.5 -126.5t-126.5 -118 t-120 -66.5q-117 -37 -187 -43q-26 -2 -55 -2q-47 0 -98 6q-113 8 -199.5 61t-112.5 150q-5 12 -8 26.5t-4.5 24t-3 27.5t-2.5 26z" />
<glyph unicode="F" horiz-adv-x="1433" d="M-18 12q1 5 7.5 11t8.5 6q5 0 27.5 -0.5t33.5 0.5t34 2.5t36.5 6t33.5 13.5t33 22t26 33t22 46q6 19 26.5 82t26.5 83q11 37 36 112t34 103q14 38 34.5 107t28.5 94q4 15 12.5 43.5t12.5 42.5q5 18 17 54t17 55q14 58 68 194q3 7 18 47q14 31 22 58t20.5 74t29.5 100h-1 h-1h-1h-1h-1h-1h-1h-1h-1h-1h-1h-1h-1h-1h-1h-1h-1h-1h-1h-1h-1h-1h-1h-1h-1h-1h-1h-1h-1h-1h-1h-1h-1h-1h-1h-1h-1h-1h-1h-1h-1h-1h-2h-1h-1h-1h-1h-1h-2h-1h-1h-1h-1h-2h-1h-1h-2h-1h-1h-1h-2h-1h-1h-2h-1h-1h-2h-1h-2h-1h-1h-2h-1h-2h-1h-2h-1h-1h-2h-1h-2h-1h-2h-1h-2 h-1h-2h-1h-2h-2h-1h-2h-1h-2h-2h-1h-2h-1h-2h-2h-1h-2h-2h-1h-2h-2h-1h-2h-2h-1h-2h-2h-2h-1h-2h-2h-2h-1h-2h-2h-2h-2h-1h-2h-2h-2h-2h-2h-1h-2h-2h-2h-2h-2h-2h-2h-2h-2h-9q-1 0 -2.5 0.5t-4.5 4t1 11.5q1 5 7 10t8 5h1h1h1h1h1h1h1h1h1h1h1h1h1h1h1h1h1h1h1h1h1h1h1h1h1 h1h1h1h1h1h1h1h1h1h1h1h1h1h1h1h1h1h1h1h1h1h1h1h1h1h1h1h1h1h1h1h1h1h1h1h1h1h1h1h1h1h1h1h1h1h1h1h1h1h1h1h1h1h1h1h1h1h1h1h1h1h1h1h1h1h1h1h1h1h1h1h1h1h1h1h1h1h1h1h1h1h1h1h1h1h1h1h1h1h1h1h1h1h1h1h1h1h1h1h1h1h1h1h1h1h1h1h1h1h1h1h1h1h1h1h1h1h1h1h1h1h1h1h1h1h1h1 h1h1h1h1h1h1h1h1h1h1h1h1h1h1h1h1h1h1h1h1h1h1h1h1h1h1h1h1h1h1h1h1h1h1h1h1h1h1h1h1h1h9q54 0 117.5 4.5t108 10t119.5 15t114 13.5q116 17 183 17q26 0 44 -3q97 -12 146 -45q35 -23 61 -70q14 -25 14 -46q0 -18 -10 -34q-19 -27 -59 -34q-19 -3 -51 3.5t-49 18.5 q-33 22 -67 48.5t-48.5 35.5t-48 18.5t-90.5 16.5q-32 0 -98.5 1t-104.5 1q-70 0 -86 -2q-12 -14 -55 -152q-8 -24 -29.5 -74.5t-30.5 -78.5q-47 -144 -53 -168q-3 -10 -9 -35t-9.5 -38t-6.5 -33.5t-4 -39.5q8 -8 39 -8q9 -1 29.5 -2t28.5 -2q74 -4 116 -4q51 -3 79 -3 q17 0 26 1q16 0 32 1.5t35 0.5q1 -3 7 -4.5t10 -7t0 -19.5q-1 -4 -5 -8.5t-8 -6.5l-4 -3q-3 -3 -23.5 -4.5t-56 -2t-45.5 -1.5q-13 -1 -31 -1q-35 0 -87 3q-58 2 -97 2.5t-59 -2.5q-8 -1 -14 -5.5t-8 -9.5t-5.5 -14.5t-5.5 -13.5q-3 -10 -17.5 -43.5t-17.5 -51.5 q-3 -17 -8 -33.5t-13.5 -38.5t-12.5 -32q-6 -16 -62 -213q-14 -42 -14 -87v-6q1 -48 29 -91q4 -10 50.5 -23.5t61.5 -11.5h49q1 -3 -0.5 -6.5t-5.5 -6t-6.5 -4t-7.5 -4t-6 -2.5q-97 -30 -172 -30h-9q-95 0 -135 61q-11 16 -18.5 33t-11 29.5t-5 22.5t-2.5 16v6 q-8 -26 -19 -47t-21.5 -36.5t-26 -27.5t-26.5 -20t-30 -13t-29.5 -7.5t-31.5 -3.5t-30 -1t-31.5 1t-28.5 1q-12 0 -16 4q-3 3 -3 6q0 2 1 4z" />
<glyph unicode="G" horiz-adv-x="1349" d="M41 608q2 86 49 213q37 101 98 193q76 115 129 168q162 155 340 241q48 23 139 39q68 13 115 13q17 0 31 -2q97 -10 180 -52q20 -10 36 -21.5t23 -17.5t21 -21t19 -20q15 -15 43 -51q7 -7 12 -15.5t10 -21t8 -18.5q14 -27 21 -74q5 -29 5 -50q0 -15 -3 -26 q-3 -13 -9.5 -26.5t-23.5 -27t-39 -13.5q-24 0 -41 26t-23.5 57t-4.5 56v13q0 32 -7 92q-7 65 -32 92q-55 55 -174 71h-17l-89 -13q-53 -16 -79 -31.5t-83 -54.5q-5 -3 -8 -5t-7 -5t-8 -5q-28 -24 -43 -39q-46 -53 -72 -76q-50 -50 -70 -94q-4 -7 -14 -25t-18 -31t-17 -24 q-6 -7 -13 -22t-9 -19q-14 -30 -42.5 -89t-41.5 -89q-24 -55 -39 -98q-8 -36 -14 -52q-4 -9 -9.5 -26.5t-9.5 -26.5q-34 -145 -41 -209q-3 -27 -3 -54t3 -54q4 -16 10 -39.5t8.5 -31.5t7 -22.5t9 -22.5t12 -20t17.5 -26q18 -26 90 -80q34 -26 83 -39q44 -12 85 -12h12 q22 0 94 16q17 1 34.5 8.5t28 14.5t33.5 24.5t33 24.5q18 12 40.5 46.5t27.5 39.5q64 145 86 211q5 12 8 20t4.5 10.5t3 6t3 8t5 14.5t9.5 27q-23 6 -119 6q-9 2 -28.5 2t-27.5 2q-11 2 -23 0.5t-22.5 3.5t-11.5 19q2 6 10.5 10t21 5t23.5 1t23.5 -1t15.5 -1q55 -2 110 -2 t109 2q31 -3 66 -3q22 0 45 1h18h49q23 1 39 1q21 0 29 -1q19 -4 27 -19q-2 -14 -23 -18q-1 0 -47 -6q-8 -1 -43.5 2t-44.5 2q-12 -2 -19 -7t-9.5 -10t-6 -16t-6.5 -18q-42 -96 -57 -148q-10 -31 -16.5 -61t-8.5 -69v-11q0 -31 8 -55q8 -29 33.5 -48.5t67.5 -19.5q7 0 20 5 q13 4 13 -1v-12q-8 -16 -56 -32q-35 -12 -77 -12q-16 0 -33 2q-61 6 -94 50q-19 25 -27.5 49.5t-18.5 85.5q-13 -27 -27 -48.5t-24.5 -32.5t-19.5 -19t-12.5 -10t-2.5 -2q-23 -14 -43 -24t-34.5 -16t-16.5 -7q-59 -26 -114 -31q-17 -2 -36 -2q-31 0 -67 6q-75 12 -109.5 23 t-84.5 38q-28 12 -76 60q-46 44 -81 104t-52 113q-33 104 -33 242q0 36 2 75z" />
<glyph unicode="H" horiz-adv-x="1660" d="M-147 12q3 5 10.5 10t9.5 5q160 0 242 120q20 45 80 242q7 26 43.5 129t66.5 213q69 191 97 295.5t65 200.5q11 36 15 58.5t0.5 44.5t-19.5 34q-46 35 -116 35q-12 0 -25 -1l-5 -1q-2 0 -5.5 5.5t-2.5 10.5q1 3 5 6t8 5l4 1q0 1 33.5 5.5t85.5 7.5q26 2 49 1.5t43 -1.5 q22 -2 44 -7t48.5 -15t41 -29t9.5 -44q-1 -5 10.5 5t41.5 31.5t63 33.5q37 13 79 13q14 0 29 -1q32 -2 34 -7q1 -3 -1 -9q-7 -18 -43 -18q-55 0 -102.5 -29t-110.5 -109q-12 -37 -44 -140t-54 -163q-13 -33 -39 -116q-2 -8 -9.5 -31.5t-8.5 -28t1 -12.5h207q16 1 40 1 q31 1 73 -1q35 -1 61 -2q32 0 51 2q14 1 59.5 -1.5t59.5 1.5q54 7 62 16q4 4 5 5.5t2.5 4t2.5 7t2.5 10t4.5 18.5t7 27q11 38 24 77t27.5 82t22.5 66q8 25 18 50t16 44.5t13 51.5q4 13 11.5 35t11.5 34.5t6.5 28t-1 26.5t-12.5 19q-9 6 -22 10t-20 5t-26.5 2t-21.5 1 q-3 1 -14 -0.5t-20 -1t-11 5.5q-1 3 0.5 6t4.5 5.5t5.5 3.5t7 3t5.5 3q4 1 17.5 6t17.5 6t16.5 5t19 5.5t18.5 4t21.5 3t22 1.5t26 1t27.5 -1q23 -2 43.5 -6.5t43 -14t33 -28t5.5 -43.5q-1 -6 15 4t51 30.5t67 32.5q65 24 101 24q6 0 12 -1q9 -2 16 -10q5 -5 5 -9 q0 -2 -1 -4q-1 -3 -5 -6.5t-8 -5.5l-3 -2q-7 0 -18 -0.5t-43.5 -8t-62 -21t-65.5 -44t-61 -72.5q-100 -294 -135 -409q-30 -98 -68 -205q-9 -32 -14 -45q-6 -21 -22.5 -72t-24.5 -80q-11 -36 -24 -79t-24 -78.5t-26 -81.5q-5 -19 -8.5 -45.5t0 -58.5t18.5 -44 q29 -21 134 -28q-1 -1 1 -1.5t4.5 -1.5t5 -2.5t3.5 -3.5t0 -4q-1 -3 -7.5 -8t-13.5 -8l-6 -4q-12 -2 -31 -4q-19 0 -74 -4q-26 -2 -47 -2q-24 0 -42 2q-29 2 -49 6t-28 7.5t-20 10.5t-18 10q-8 5 -28 33t-19 35q1 4 -3 -3q-36 -57 -93 -79q-38 -14 -80 -14q-14 0 -29 2 q-23 2 -35.5 9t-9.5 17q2 4 7.5 7t13 4t14 0t13 -1.5t7.5 -1.5q58 0 102 24t93 95q27 74 64 193.5t61 189.5q10 24 28.5 87.5t22.5 74.5q5 14 1.5 17t-21.5 2q-15 -1 -38 -1q-34 0 -85 2q-85 3 -105 3h-112q-74 -4 -99 -4q-27 1 -54 1l-54 -1q-6 -1 -21 1.5t-20 -1.5 q-19 -24 -60 -162q-17 -61 -28 -90q-39 -121 -74 -252v-2q-5 -19 -8.5 -45.5t0 -58.5t18.5 -44q9 -6 22 -10t20 -5t26.5 -2t21.5 -1q3 -1 14 0.5t20 1t11 -5.5q1 -3 -0.5 -6.5t-4.5 -5.5t-5 -3t-6.5 -3.5t-5.5 -2.5q-33 -11 -53.5 -16.5t-55.5 -9.5q-19 -2 -40 -1 q-18 0 -37 1q-29 2 -49 6.5t-28 8t-20 10.5t-18 10q-8 5 -28 32.5t-19 34.5q1 4 -5.5 -4.5t-30.5 -30.5t-56 -37q-34 -17 -82 -23q-22 -3 -41 -3q-22 0 -41 4q-3 0 -7 6q-2 3 -2 6q0 2 1 4z" />
<glyph unicode="I" horiz-adv-x="913" d="M-102 10q0 3 1 6q1 5 3 9q1 3 3.5 5.5t4.5 3.5l2 1q6 0 35.5 -1t43 -0.5t40.5 6t44.5 17t39 34.5t37.5 56q85 252 205 627t149 463q11 36 15 58.5t0.5 44.5t-19.5 34q-46 35 -116 35q-12 0 -25 -1l-5 -1q-2 0 -3.5 6t-0.5 10q1 3 4 6t6 5l3 2q0 1 35 4q36 2 82 3 q16 0 31 1q31 0 62 -2q29 -3 62 -13t59.5 -35t16.5 -57q-2 -8 0 -6q3 1 16 14q60 60 105 78q40 14 81 14q13 0 27 -1q13 -1 18.5 -1.5t11.5 -2.5q5 -2 4 -4v-1q-1 -3 -1 -8q-7 -18 -43 -18q-39 0 -79 -14.5t-84.5 -59.5t-70.5 -115q-60 -163 -103 -294.5t-99.5 -324.5 t-83.5 -280q-10 -33 -18 -79q-6 -34 -7 -74q0 -14 1 -28q3 -54 26 -73q9 -6 18.5 -9.5t16 -3.5h19t19.5 -1q3 -1 14 0.5t20 1t11 -5.5q1 -3 -0.5 -6t-4.5 -5.5t-5 -3.5t-6.5 -3.5t-5.5 -2.5q-7 -2 -29.5 -10.5t-28.5 -9.5t-30 -7q-18 -5 -29 -5q-5 0 -7 1q-12 2 -46 1 q-29 2 -49 6.5t-28 8t-20 10.5t-18 10q-9 5 -33.5 35.5t-23.5 37.5q0 3 -2 -2q-23 -49 -80 -76q-33 -16 -93 -20q-20 -1 -37 -1q-34 0 -56 5q-2 0 -2 6z" />
<glyph unicode="J" horiz-adv-x="946" d="M-197 131q-3 18 -3 35q0 32 10 63q10 37 45 62q19 15 43 15q19 0 41 -9q42 -17 57 -55q6 -13 6 -33q0 -26 -10 -64q-4 -13 -22 -30t-23 -25q-10 -17 -13 -35q0 -17 27 -26q21 -7 44 -7q25 0 51 8q51 16 65 54q26 66 43.5 112t24.5 67t26 77.5t33 95.5q25 72 69 215.5 t68 212.5q23 67 60 184.5t57 178.5q15 49 15 82q0 42 -23 59q-16 13 -37 21t-38.5 10t-33.5 3.5t-23.5 0.5t-9.5 0q2 4 -3 6t-3 12q1 3 5.5 6t9 4.5t4.5 2.5t33 2.5t78 1.5q6 1 12 1q39 0 79 -3q20 -2 44.5 -9t50.5 -20.5t40.5 -36.5t8.5 -51q-1 -4 3 0q2 2 7 8q50 51 98 76 q18 10 41.5 16.5t43 9t37 3.5t27.5 2h11q1 1 3 -2q4 -5 4 -10q0 -2 -1 -5q-2 -4 -7 -7.5t-9 -5.5l-4 -1q-39 0 -85 -15t-97 -57t-76 -104q-48 -114 -76 -213q-20 -75 -62.5 -203t-64.5 -203q-7 -25 -20.5 -70.5t-18 -61t-15 -47.5t-17 -48.5t-18 -44t-24 -53t-29.5 -58.5 q-65 -124 -146 -187q-80 -61 -192 -61h-4q-83 1 -144 45t-73 109z" />
<glyph unicode="K" horiz-adv-x="1474" d="M-111 7q-1 3 -1 6q0 5 3 10q2 4 7 4t10 -2l6 -2q160 0 244 120q10 19 29.5 88t25.5 82q20 46 65 198.5t48 160.5q15 40 40.5 116.5t34.5 100.5l74 219q9 26 17 63.5t22 79.5q15 44 15 74t-23 47q-46 35 -116 35q-12 0 -25 -1l-5 -1h-3t-5 4.5t-2 13.5q0 5 10 8l9 3 q0 1 33.5 5t85.5 7q26 2 49 1.5t43 -1.5q49 -4 81.5 -39t45.5 -90q4 3 17 50.5t19 57.5q5 8 13.5 9.5t13.5 -4.5q13 -13 -4 -46q-13 -37 -25 -66.5t-16.5 -41t-12 -36.5t-20.5 -71q-29 -88 -33 -100q-13 -31 -24.5 -89t-24.5 -89q-5 -14 -16 -41.5t-16 -42.5q-1 -1 -3 -7 q-25 -58 -25 -74q0 -7 4 -7h1q12 1 25.5 8.5t30 21.5t20.5 17q51 40 67 51q7 7 22.5 20.5t22.5 20.5q92 92 246 262t230 248q89 89 135 117q55 34 69 37q7 2 23.5 7t26.5 7q9 2 53 2q14 -1 17.5 -1.5t14 -2.5t14 -5.5t8 -10.5t5.5 -17q1 -6 1 -12q0 -38 -34 -64 q-38 -35 -82 -43q-50 -10 -104 -38t-88 -53.5t-91 -72.5t-81 -65q-27 -18 -72 -63q-57 -51 -162.5 -161t-121.5 -126q-9 -6 -15 -15q-2 -7 -2 -8t3.5 -8.5t4.5 -9.5q4 -6 43 -82q38 -65 50 -92q9 -21 36 -94q15 -35 19 -45q45 -107 110 -218q2 -3 15.5 -25t19.5 -36 q40 -46 64 -70q6 -4 18 -13.5t18 -12.5t22 -8t30 0q6 0 26 10q4 2 12.5 6t12.5 6q6 4 13 11t17 18t17 18q18 24 21 29q1 2 4 6.5l5 7.5t6 5t9 1q6 -7 6 -18q0 -18 -16 -45q-15 -30 -33 -53q-6 -8 -21 -24.5t-22 -25.5q-64 -40 -92 -51q-31 -5 -59 -5q-70 0 -129 28 q-6 1 -14.5 7t-10.5 7q-1 1 -10.5 4.5t-14.5 7.5q-18 10 -41 41q-31 31 -116 197q-55 125 -90 211q-6 19 -17 55.5t-16 52.5q-3 7 -9 25.5t-11 30.5t-14 25.5t-19 19.5q-28 -3 -62 -43q-13 -14 -19.5 -47t-11.5 -43q-14 -31 -30 -97q-5 -16 -17.5 -53t-17.5 -53 q-3 -9 -12.5 -31.5t-16.5 -48t-10 -57.5q-5 -19 -8.5 -45.5t0 -58.5t18.5 -44q9 -6 22 -10t20 -5t26.5 -2t21.5 -1q3 -1 14 0.5t20 1t11 -5.5q1 -3 -0.5 -6t-4.5 -5.5t-5 -3.5t-6.5 -3.5t-5.5 -2.5q-32 -11 -53.5 -16.5t-56.5 -9.5q-19 -2 -40 -1q-18 0 -37 1q-29 2 -49 6 t-27.5 7.5t-19.5 10.5t-18 10q-8 5 -28 33t-19 35q1 4 -5.5 -4.5t-30.5 -30.5t-56 -37q-34 -17 -82 -23q-22 -3 -41 -3q-22 0 -41 4q-2 0 -6 4t-7 11z" />
<glyph unicode="L" horiz-adv-x="1253" d="M158 128q0 24 6 50q6 28 16.5 62.5t21 64t23 65.5t19.5 60q18 64 44.5 133t30.5 82q28 87 64 211q18 75 74 244q44 128 63 229q0 30 -28 55q-24 22 -63 22q-6 0 -13 -1q-48 -5 -54 18q5 15 42 23q31 6 61 6h12q36 -2 58 -4q49 -7 88 -35q15 -11 31.5 -28.5t25.5 -29.5 l10 -12q10 7 21 29q2 7 6.5 21.5t8.5 25t9 19.5q4 7 13.5 8.5t13.5 -4.5q12 -12 -4 -45q-24 -66 -58.5 -187t-54.5 -178q-31 -89 -47 -145q-6 -18 -17.5 -53.5t-17.5 -53.5q-2 -5 -14.5 -37.5t-18.5 -52.5q-1 -2 -12 -47q-3 -7 -7 -23.5t-7 -23.5q-14 -30 -31 -102 q-12 -56 -27 -111q-4 -11 -15 -44t-17 -52t-13.5 -55t-9.5 -44q-4 -18 -4 -33q0 -24 10 -42q20 -39 72 -56q63 -19 171 -27q35 -2 69 -2q70 0 136 10q98 16 113 56q6 16 10 22t9 25l24 105q12 44 33 65q14 14 37 14q11 0 23 -3q60 -15 60 -81q0 -8 -1 -16 q-11 -65 -78.5 -135t-134.5 -82q-34 -6 -148 -9q-49 -1 -90 -1q-56 0 -102 2q-42 2 -110 2.5t-110.5 1.5t-89.5 7t-77 23t-45 46q-10 18 -10 48z" />
<glyph unicode="M" horiz-adv-x="1921" d="M-388 -381q0 4 -1 7q-1 31 11 64q12 37 40 52q18 9 39 6q1 -1 16.5 -7t26 -12.5t14.5 -13.5q12 -24 15 -51q6 -22 2 -51q0 -6 -3.5 -19.5t-2.5 -21.5q0 -13 51 20q9 6 12 7q8 12 28.5 37.5t30.5 41.5q21 31 64 101q8 14 27 46.5t28 49.5q116 266 166 420q73 224 289 952 q5 20 55 166h-1h-1h-1h-1h-1h-1h-1h-1h-1h-1h-1h-1h-1h-1h-1h-1h-1h-1h-1h-1h-1h-1h-1h-1h-1h-1h-1h-1h-1h-1h-1h-1h-1h-1h-1h-1h-1h-1h-1h-1h-1h-1h-2h-1h-1h-1h-1h-1h-2h-1h-1h-1h-1h-2h-1h-1h-1h-2h-1h-1h-1h-2h-1h-1h-2h-1h-1h-2h-1h-2h-1h-1h-2h-1h-2h-1h-1h-2h-1h-2 h-1h-2h-1h-2h-1h-2h-1h-2h-1h-2h-1h-2h-1h-2h-1h-2h-2h-1h-2h-1h-2h-2h-1h-2h-1h-2h-2h-1h-2h-2h-1h-2h-2h-1h-2h-2h-2h-1h-2h-2h-2h-1h-2h-2h-2h-1h-2h-2h-2h-2h-1h-2h-2h-2h-2h-2h-1h-2h-2h-2h-2h-2h-9q-2 0 -3.5 1t-5 6.5t0.5 17.5q4 9 17 6l346 2q1 0 16 -120t23 -193 q5 -44 22 -124t21 -108q15 -126 44.5 -304t55.5 -286q0 -1 1 -1q8 0 72 108q70 118 154 266.5t99 171.5q43 63 100 160q15 26 44.5 73t41.5 68q23 39 49 79t47 70t39 54.5t28.5 38t10.5 14.5q19 31 51 28q23 -3 23 -21v-5q-3 -82 -12.5 -252.5t-15.5 -323.5t-7 -290 q0 -39 -4 -127.5t-5 -138.5v-11q0 -46 8 -98q8 -60 28 -92q16 -24 76 -40.5t98 -15.5q2 0 5.5 -6.5t2.5 -11.5l-17 -8q-1 0 -14 -2.5t-35 -5t-48.5 -4.5t-62 1t-69.5 11q-105 24 -154 154q-5 -26 -13 -47t-16.5 -36t-20.5 -27t-22 -19.5t-25.5 -12.5t-25.5 -7.5t-27.5 -4 t-27 -1.5t-27.5 0.5t-26 0.5q-8 8 -8 12t1.5 7t3 4.5t3.5 2t3.5 0.5h3.5h1h13h43.5t42.5 8.5t44 24.5t34 49t26 80q4 120 8 203.5t6 171.5q5 93 12 275t15 299q-66 -105 -162 -266.5t-143 -239.5q-57 -94 -111.5 -199.5t-60.5 -116.5q-17 -29 -34 -61.5t-26.5 -53t-28 -63 t-26.5 -59.5q-3 -5 -12 -21t-17.5 -26t-19.5 -15q-18 -9 -33 0.5t-20 30.5q-12 40 -23.5 117.5t-15.5 95.5q-15 61 -17 98q-2 21 -9 63.5t-9 63.5q-2 24 -10.5 66t-10.5 57q-6 41 -17.5 116t-21 138t-16.5 121q-3 30 -22 129q-9 86 -23 119q-8 -13 -15 -34.5t-9 -25.5 q-8 -19 -19 -55t-14 -45q-44 -144 -64 -190q-10 -35 -10 -45q-9 -19 -16 -45q-4 -11 -29 -95q-116 -401 -175 -565q-83 -232 -183 -422q-21 -43 -58 -86q-4 -4 -14 -16.5t-18 -18.5q-18 -15 -35 -32q-4 -4 -15.5 -14.5t-15.5 -13.5t-14 -10t-17.5 -10t-20 -6.5t-26.5 -5.5 q-8 -1 -17 -1q-31 0 -62 14q-40 18 -50 53q-7 23 -9 57z" />
<glyph unicode="N" horiz-adv-x="1521" d="M-250 -455q-2 6 -2 13q0 31 35 65q3 3 13 15t15.5 17.5t14.5 13.5t18 14q21 15 80 69q63 51 104 119.5t87 177.5q49 112 94 235.5t70 203t70 230.5t67 220q5 19 16 49q2 4 7 25t10 30q3 4 14 43q2 10 18 52q6 19 18.5 58t18.5 58l43 152h-201q-2 0 -6.5 7t-3.5 11t19 13 q17 1 45 1t61 -0.5t45 -0.5h107q43 0 90 -21q7 -10 13.5 -21.5t11 -21t10 -24t8.5 -22t7.5 -25t6 -22.5t6.5 -25t6 -23q11 -36 33 -103.5t27 -83.5q4 -12 16 -45t17 -53q7 -27 34 -115q3 -12 13.5 -43.5t13.5 -48.5q2 -8 8 -23.5t8 -23.5q1 -3 2.5 -12t2.5 -14 q2 -4 6.5 -12.5t5.5 -12.5q4 -20 16.5 -55.5t16.5 -48.5q2 -5 7 -22.5t9 -25.5q2 -6 6 -23t8 -26q1 -1 10 -27t19 -32q9 2 14 22q3 9 9.5 28t9.5 28q14 40 35 114t30 103q4 15 9.5 32.5t12 38t9.5 31.5q29 88 61 211q21 92 70 205q49 103 82 147q33 42 53 76q3 6 13.5 17 t13.5 14q15 21 33 39q2 1 9.5 8.5l9.5 9.5t9 7.5t10.5 7.5l10.5 6t12 5.5t11.5 3t13.5 1.5q16 0 33 -13.5t16 -29.5q-2 -14 -7.5 -24t-18.5 -23t-17 -19q-24 -28 -33 -34q-29 -21 -39 -29t-72 -70q-49 -62 -53 -69q-6 -10 -25.5 -39t-29.5 -47q-27 -50 -43 -90 q-4 -12 -28 -79t-34 -102q-17 -75 -65 -229q-11 -36 -38.5 -134t-39.5 -134q-46 -155 -49 -170q-12 -56 -33 -117q-3 -9 -11 -35t-16 -45.5t-18 -30.5l8 -6q-10 2 -24 29q-12 24 -17 29q-11 14 -16.5 50.5t-9.5 47.5q-13 34 -33.5 106t-34.5 107q-16 39 -34 114t-23 91 q-9 34 -29 101t-29 101q-7 27 -23.5 99.5t-27.5 111.5q-10 34 -27.5 102.5t-27.5 102.5q-4 17 -14.5 48.5t-14.5 45.5q-8 27 -18 35q-12 -4 -17 -31q-3 -14 -8 -28.5t-12 -32.5t-10 -27q-3 -5 -19 -49q-60 -152 -151 -447t-123 -388q-17 -46 -48.5 -131.5t-51 -136.5 t-50.5 -124.5t-63 -138.5q-40 -73 -49 -84q-50 -75 -54 -80q-12 -26 -55 -79q-13 -19 -39 -25q-10 -3 -20 -2q-14 0 -27 6q-33 14 -43 55z" />
<glyph unicode="O" horiz-adv-x="1433" d="M16 471q-2 19 -2 41q0 31 4 70q2 37 17 102q23 83 35.5 123t32.5 90t42 86q68 121 113 170q10 11 31 37.5t35 40.5q134 134 258 192q13 5 52.5 21.5t63.5 25t63 19.5t80 15q28 3 58 4q13 0 27 -1q104 -4 186.5 -43t134.5 -96q13 -15 25 -31.5t26.5 -38t22.5 -32.5 q15 -18 36.5 -66.5t24.5 -69.5q21 -75 27 -149q1 -15 3 -50q2 -29 2 -50v-8q0 -23 -5 -46q-2 -23 -6 -45t-6.5 -36t-11 -40.5t-11.5 -36t-16 -45t-17 -46.5q-14 -39 -27 -70t-21 -49.5t-22 -42.5t-19 -32t-23.5 -35t-24.5 -36q-48 -68 -159.5 -151.5t-188.5 -116.5 q-19 -5 -41 -18q-34 -17 -102 -33q-111 -31 -222 -31q-29 0 -57 2q-99 9 -193 72.5t-141 142.5q-52 77 -71 178q-2 15 -13 113zM238 193q39 -100 114 -142q34 -20 88 -29q40 -7 76 -7q12 0 23 1q106 10 180 43q17 7 31.5 14t24.5 12t22.5 13.5t18 12t19 15.5t17 15t20 19 t21.5 20q16 16 51 58q12 17 51 65.5t54 77.5q3 6 15 30.5t16.5 33.5t14 30t14.5 34t11 31.5t10 34.5q39 152 52 256q7 50 7 146v45q-2 130 -18 186q-27 110 -92 170q-65 62 -170 72q-10 1 -20 1q-15 0 -29 -2q-24 -3 -46.5 -10.5t-37 -14t-32.5 -16.5t-21 -11 q-32 -16 -39 -19q-7 -4 -20 -16t-15 -14q-101 -88 -135 -150q-3 -5 -13 -16t-14 -19q-12 -21 -28 -37q-27 -27 -45 -63q-7 -14 -21.5 -42.5t-21.5 -43.5q-5 -15 -19.5 -43.5t-19.5 -44.5q-2 -6 -17 -41q-3 -8 -7 -24.5t-7 -24.5q-27 -66 -55 -195q-32 -147 -32 -255 q0 -93 24 -156z" />
<glyph unicode="P" horiz-adv-x="1218" d="M-117 25q35 0 59.5 2t62.5 11t69.5 31.5t54.5 57.5q4 11 16 56t19 61q16 36 41 127q3 11 32.5 102t34.5 111q17 66 36 125.5t26 85.5q23 83 67 215q3 9 28 86t42 118q1 2 4.5 14.5t7.5 18.5q2 7 7.5 24.5t7.5 24.5q5 24 34 107h-206q-3 0 -6 0.5t-9 4.5t2 13l23 11 q2 2 84 2q27 0 49 1q43 0 61 -1q15 0 52.5 2.5t56.5 1.5h24q33 0 83 2q69 2 96 2q19 0 55 -4q83 -1 156 -29t127 -79q52 -50 76 -129q13 -45 14 -95q0 -38 -8 -80q-93 -426 -670 -426l-117 4q-7 -5 -12 -19.5t-9 -38t-5 -28.5q-12 -34 -37.5 -115t-42.5 -131 q-10 -28 -15 -70q-2 -18 -2 -37q0 -25 4 -51q6 -46 29 -65q9 -6 18.5 -9.5t16.5 -3.5h19.5t19.5 -1q3 -1 14 0.5t20 1t11 -5.5q1 -3 -0.5 -6t-4.5 -5.5t-5.5 -4t-7 -3t-5.5 -2.5q-7 -2 -29.5 -10.5t-28 -9.5t-29.5 -7q-18 -5 -30 -5q-4 0 -6 1q-12 2 -47 1q-29 2 -49 6 t-27.5 7.5t-19.5 10.5t-18 10q-8 5 -28 33t-19 35q1 4 -4 -1q-40 -48 -89 -71q-33 -16 -93 -20q-20 -1 -37 -1q-34 0 -56 5q-1 0 -3 8q-1 5 -1 8q0 15 16 15zM494 670q0 -9 6 -11q3 -1 7 -1q5 0 11 2q12 2 14 2q20 -1 40 -1q75 0 144 15q88 19 165 61.5t131.5 117.5 t74.5 175q15 75 15 127q0 24 -3 43q-10 61 -57 121q-19 24 -71.5 46t-100.5 30q-66 8 -100 8h-16q-18 0 -21.5 -1.5t-6.5 -13.5q-1 -3 -1 -4q-15 -51 -119 -368q-34 -97 -47 -139q-6 -22 -24.5 -69t-24.5 -73q-1 -6 -4 -17.5t-4 -17.5q0 -2 -4.5 -14t-3.5 -18z" />
<glyph unicode="Q" horiz-adv-x="1548" d="M111 502q0 2 3.5 47t8.5 67q24 179 131 377q51 94 100 150q118 131 193 186q69 50 78 55q150 92 309 107q63 0 93.5 -1t82.5 -12t84 -34q9 -4 47 -14q35 -22 57 -44q75 -75 119 -139q54 -78 80 -188q11 -44 11 -101q0 -51 -9 -114q-2 -20 -7 -48.5t-7 -41.5 q-9 -51 -35.5 -116t-56.5 -112q-128 -198 -158 -239q-93 -112 -88 -127q8 -31 10 -49q52 -107 72 -127q18 -23 37 -27.5t42 11t41.5 34.5t49.5 55q13 15 23 26.5t11.5 12.5t7 8.5t7.5 11t15 24t28 44.5q21 32 31 0q-23 -37 -42 -68t-26 -43t-14.5 -24t-8.5 -13.5t-7 -9 t-11 -12t-20.5 -21.5t-34.5 -40q-25 -31 -78 -53q-41 -16 -88 -16q-13 0 -26 1q-63 6 -99 52q-5 6 -19.5 22.5t-23.5 29t-14 25.5q-2 5 -7.5 16.5t-9.5 20t-4 10.5q-94 -57 -131 -71q-82 -43 -178 -43q-127 0 -240 35q-96 24 -172 81q-57 45 -98 148q-26 61 -46 151 q-15 66 -15 111q0 16 2 29zM315 387q0 -20 5 -58t6 -55q1 -19 12 -53.5t12 -40.5q11 -39 56 -78q5 -4 18.5 -18t24 -22.5t22.5 -12.5q6 -2 14 -7.5t11 -6.5q21 -9 41 -19q31 -10 51 -10h6q5 1 6.5 4.5t0 9t-3.5 11t-5 11.5t-4 9q-6 21 -6 45q0 37 14 84q21 72 60.5 152.5 t82.5 124.5q50 53 125 83q40 16 74 16q32 0 59 -13q47 -22 80 -90q26 -47 39 -105q20 27 34.5 47t27 40.5t19.5 32t16.5 32.5t13.5 30.5t15.5 38t17.5 43.5q6 16 15 69t15 69q3 7 9 75.5t6 77.5q0 70 -7 136.5t-28 142t-55 131t-93 91.5q-55 34 -127 34h-8 q-65 -2 -112.5 -14.5t-98.5 -43.5q-93 -58 -145 -121t-117 -176q-8 -14 -22 -44.5t-21 -43.5q-32 -59 -47 -96q-17 -48 -86 -289q-9 -56 -12 -110q-1 -18 -5.5 -55.5t-5.5 -57.5zM645 117q0 -78 17 -97q6 -7 14 -10q7 -2 12 -2h2q6 1 18.5 4t16.5 4q54 10 90 31 q12 7 35.5 20.5t34.5 20.5q40 21 61 47q-3 32 -7.5 68t-6.5 57q-2 19 -10 72q-8 42 -21 59q-30 36 -41 41q-26 7 -37 7q-4 0 -7 -1q-9 -3 -32 -25q-5 -4 -8 -7q-17 -17 -30 -37t-27.5 -46t-22.5 -38q-51 -100 -51 -168z" />
<glyph unicode="R" horiz-adv-x="1433" d="M-45 20q7 13 12 13q31 -2 63.5 2t69.5 15t66 37t41 63q45 151 63 206q10 35 31 91.5t31 91.5q35 117 63 196q43 102 66 199q17 61 56 178.5t69 205t30 85.5l-200 -2q-12 0 -9 1q1 1 3 1q-7 10 -7 16q1 8 5 11t8 4h4q6 1 28 0.5t58.5 -0.5t52.5 2q26 0 80.5 1t95.5 2h36 q29 -1 65 -1q60 -2 105 -6t99.5 -14.5t93.5 -26t76.5 -41t59.5 -58.5q22 -34 32 -80q6 -27 6 -57q0 -21 -3 -45q-21 -174 -308 -281q-4 -2 -4.5 -4t1.5 -4.5t5 -4.5t7 -5t6 -4q55 -30 73 -53l17 -17q17 -17 22 -28q8 -19 17 -58q4 -13 6 -25.5t2 -27t-0.5 -23.5t-2.5 -27.5 t-3 -25.5q-2 -17 -9 -61.5t-8 -69.5q-1 -12 -7.5 -65t-6.5 -82v-16q0 -64 21 -124q9 -30 49 -48q26 -11 53 -11q15 0 31 4q23 6 48.5 27.5t40 39.5t37.5 51t27 38q7 18 21 15q10 -4 10 -18q0 -10 -4 -24q-37 -108 -168 -184q-22 -14 -83 -14h-6q-56 0 -79 10 q-57 24 -96.5 79.5t-55.5 115.5t-18 126q0 31 7 100t7 111q0 130 -53 174q-13 11 -27 20t-35.5 17t-30 11t-38 11t-31.5 9q-14 4 -35 5t-54.5 0t-35.5 -1q-1 0 -3.5 -9t-8.5 -28t-12 -35l-25 -78q-2 -9 -7.5 -24.5t-6.5 -20.5q-11 -49 -42.5 -138t-41.5 -124 q-10 -37 -18 -81q-6 -34 -6 -73q1 -12 1 -26q2 -55 25 -74q9 -6 18.5 -9.5t16.5 -3.5h19.5t19.5 -1q3 -1 14 0.5t20 1t11 -5.5q1 -3 -0.5 -6t-4.5 -5.5t-5.5 -4t-7 -3t-5.5 -2.5q-7 -2 -29.5 -10.5t-28 -9.5t-30 -7t-36 -4t-46.5 1q-29 2 -49 6.5t-27.5 8t-19.5 10.5t-18 10 q-8 5 -28.5 32.5t-19.5 34.5q1 4 -5.5 -4.5t-30.5 -30.5t-56 -37q-33 -16 -93 -20q-20 -1 -37 -1q-34 0 -56 5q-1 0 -2 3q-1 2 -1 4q0 6 3 11zM637 815q3 -2 12 -2q19 -1 37 -1q144 0 256 63q126 71 176 221q18 60 18 93t-22 87q-19 46 -57 76.5t-86 36.5q-13 3 -51 8 q-8 1 -31 1t-47.5 -1t-24.5 -2q-14 -43 -47 -138.5t-60 -173t-32 -98.5q-6 -24 -35 -113q-10 -31 -10 -45q0 -10 4 -12z" />
<glyph unicode="S" horiz-adv-x="1128" d="M49 154q-17 42 -17 83q0 52 27 103q17 35 72 39h5q41 0 67 -51q8 -20 8 -34.5t-11 -33.5t-22 -32t-25.5 -30t-21.5 -28q-10 -18 -10 -36q0 -22 15 -43q27 -39 71 -62q31 -16 69 -24q35 -8 67 -8q3 1 5 1h72q307 12 373 233q11 60 11 90q0 10 -1 17q-16 85 -68 168 q-9 17 -35 45t-30 33q-13 16 -39.5 39.5t-34.5 31.5q-21 18 -79.5 66.5t-88.5 77.5l-18.5 18.5l-20 20t-18 18.5t-19.5 22t-16 20.5t-16.5 24t-12.5 23.5q-33 70 -33 135q0 25 5 49q11 45 34 93q49 98 140 162t204 83q20 3 45 3q52 -1 123 -15q104 -22 152 -61 q104 -88 115 -187q4 -4 5 -20q1 -13 -3 -34q-6 -47 -17 -60q-15 -19 -46.5 -32t-53.5 -3q-44 20 -55 67q-1 6 -1 15q1 27 11 79q7 33 6 58q0 28 -8 45q-26 67 -106 99q-52 21 -100 20q-27 0 -52 -6q-47 -12 -101 -50.5t-71 -85.5q-28 -69 -27 -134q0 -32 6 -62 q19 -89 101 -158q111 -86 165 -119q80 -50 152 -139q67 -85 102 -190q19 -63 19 -123q0 -39 -8 -78q-11 -44 -34 -84t-51 -69.5t-67.5 -59t-73.5 -49t-79 -43.5q-42 -22 -153 -32q-65 -6 -120 -6q-38 0 -70 3q-71 0 -142.5 27t-121.5 77q-24 24 -49 93z" />
<glyph unicode="T" d="M-2 -8q25 12 48.5 19.5t41 16t43.5 29.5q11 5 18 11t17.5 16t19.5 18q47 43 78 123q97 265 148 410q56 164 65 196q25 85 86.5 269.5t93.5 290.5q-35 2 -134.5 3.5t-160.5 8.5q-15 0 -46 -1q-17 -1 -31 -1q-50 0 -51 9q-1 5 8 13q15 11 61 11q100 -2 252 -4q23 0 47 -1 q134 0 302 7q198 8 253 30q14 4 26.5 8.5t20.5 8t20.5 11l17.5 10.5t20.5 13.5t21.5 14.5q39 10 45 11h7q10 0 32 -1q25 -6 30 -26q1 -6 1 -11q0 -14 -8 -28q-27 -45 -78 -64q-15 -6 -38 -11.5t-28 -6.5q-76 -13 -190 -17h-82.5t-116.5 4q-37 -111 -141.5 -445.5 t-167.5 -514.5q-59 -187 -66 -217v-2q-5 -19 -8.5 -45.5t0.5 -58.5t19 -44q9 -6 22 -10t20 -5t26.5 -2t21.5 -1q3 -1 14 0.5t20 1t11 -5.5q1 -3 -0.5 -6t-4.5 -5.5t-5.5 -4t-7 -3t-5.5 -2.5q-33 -11 -53.5 -16.5t-55.5 -9.5q-19 -2 -40 -1q-18 0 -37 1q-40 3 -61.5 7.5 t-30 9.5t-23.5 17q-18 14 -32 51t-7 44q-13 -7 -23.5 -19.5t-31.5 -27.5q-22 -24 -94 -70q-25 -8 -51 -10q-6 -2 -16 -4t-22 -3h-7q-9 -1 -15 1q-8 2 -8 10z" />
<glyph unicode="U" horiz-adv-x="1435" d="M114 414q2 22 1.5 27.5t3.5 27t5 27t5.5 28t5.5 29.5q5 32 24.5 106t24.5 99q3 10 13.5 41.5t13.5 48.5q5 24 23.5 78.5t21.5 66.5q22 60 51 145.5t62 172.5q5 14 5 26q0 25 -20 43q-31 28 -75 29q-6 0 -21.5 0.5t-21.5 1t-15 2.5t-13 6t-5 11q7 22 99 25q21 1 39 1 q58 0 77 -8q7 -2 21.5 -6t20.5 -6t15 -5.5t15.5 -7.5t13.5 -10q15 -12 30.5 -34.5t23 -38.5t5.5 -15q25 61 103 89q51 18 107 18q31 0 63 -5q1 0 3 -2.5t3.5 -6t-0.5 -7.5q-7 -14 -25 -14q-20 1 -39 1q-76 0 -119 -23q-53 -29 -100 -120q-30 -75 -46.5 -116t-30.5 -85 t-19 -60t-23 -81q-2 -6 -14.5 -53.5t-19.5 -68.5q-5 -14 -15.5 -58.5t-15.5 -58.5q-1 -6 -11 -40.5t-14 -53.5q-23 -96 -39 -211q-4 -19 -4 -52q0 -22 2 -51q5 -145 47 -196q26 -35 80 -50q23 -5 51 -6q63 0 156 27q82 34 88 37q80 39 123.5 98t79.5 152q28 66 61 174 q42 124 131 391l107 321q8 18 21 53.5t26 66.5t29 57q25 44 34 55q15 19 68 57q10 3 31 13t33 12q8 2 16 2q15 0 26 -8q13 -9 13 -27v-8q-1 -10 -3 -18t-6 -16.5t-7 -13.5t-10.5 -15.5t-10.5 -14.5q-5 -5 -19.5 -14t-19.5 -13q-14 -7 -43 -32q-23 -15 -65 -68 q-52 -65 -156 -362t-150 -459q-42 -145 -121.5 -260.5t-193.5 -167.5q-63 -26 -90 -33q-53 -16 -117 -22q-24 -2 -48 -2q-38 0 -73 6q-75 14 -125 45t-102 90q-31 33 -43 114t-12 152q-2 5 -2 15q0 7 1 16z" />
<glyph unicode="V" d="M138 1430q0 3 1 6q3 5 33.5 8.5t50.5 3.5q53 0 125 -6q77 -6 136.5 -47.5t58.5 -94.5q-3 44 71 88q48 28 100 29q27 0 56 -8q1 -1 2.5 -2t4 -4.5t1.5 -7.5q-1 -5 -7.5 -11t-8.5 -6q-20 5 -40 5q-54 -1 -106 -39q-71 -52 -71 -134v-2q0 -63 6 -189q7 -127 9 -201 q1 -20 0 -41q0 -61 -5 -138q2 -40 2 -70.5t-2 -50.5q6 -51 6 -81q0 -17 -2 -27q6 -55 6 -115q0 -5 2 -15t6 -19.5t9 -8.5q6 2 24 15.5t21 19.5q5 10 23.5 41t27.5 49q16 31 52.5 84.5t49.5 77.5q70 121 74 127q18 27 42 72.5t36 66.5q227 392 242 418q43 73 114 157 q28 35 78 64q53 25 78 29q14 2 25 2q45 0 55 -31q6 -14 6 -26v-2q0 -14 -4 -24t-13.5 -19.5t-18.5 -15.5t-24 -12t-25 -9.5t-26 -8.5q-51 -18 -117.5 -68.5t-95.5 -95.5q-5 -7 -16 -21.5t-19 -26t-12 -23.5q-6 -15 -24.5 -41.5t-24.5 -38.5q-49 -88 -112 -186t-95 -158 q-55 -100 -55 -101q-29 -62 -98 -166q-4 -6 -10.5 -18t-10.5 -18t-10 -19.5t-10 -19.5q-1 -2 -10 -14t-11 -19q-19 -38 -24 -45q-4 -7 -12.5 -20.5t-12.5 -20.5q-2 -6 -10.5 -15.5t-10.5 -13.5q-29 -53 -32 -59q-43 -95 -101 -150q-10 -10 -31 -10q-10 1 -22 3q-38 6 -47 22 q-8 13 -11.5 33.5t-4 53.5t-0.5 35q-6 45 -9 97.5t-4.5 115t-3.5 97.5q2 18 2 114q2 73 2 116v20q0 46 -3.5 142.5t-4.5 152.5q-1 101 -1 162t-1 159q-1 36 -26.5 64.5t-60.5 43t-65.5 21.5t-48.5 6q-1 0 -3 3q-4 4 -4 10z" />
<glyph unicode="W" horiz-adv-x="2150" d="M84 1419q2 4 5.5 6.5t6.5 3.5l2 1q13 -1 23.5 -0.5t62.5 1.5t107 1q76 0 135 -37t63 -90q-3 46 68 94q52 35 110 35q21 0 42 -4h1q0 -1 1.5 -3t2 -3.5t1.5 -4t0 -4.5q-1 -5 -7 -10.5t-8 -5.5q-13 2 -26 2q-60 -1 -116 -47q-65 -54 -64 -130v-7q7 -122 30.5 -323.5 t30.5 -289.5q1 -18 2 -51t2.5 -60t7.5 -51q3 -13 8 -51q0 -4 3.5 -22t3.5 -27q-3 -14 6 -56q7 -27 14 -22q6 4 21 35t18 35q8 8 12 20q6 15 24 40t23 40q3 8 13.5 19.5t13.5 15.5t13 24t16 27q12 14 26 44.5t25 45.5q11 13 23 42.5t20 41.5q45 72 55 92q117 202 127 218 q-15 177 -33 272q-3 36 -29.5 64.5t-60.5 41.5t-65.5 18.5t-48.5 2.5l-2 2t-3 5t1 7q2 4 6.5 8t8.5 7l3 2q13 -1 23.5 -0.5t62 1.5t106.5 1q76 0 135.5 -37t63.5 -90q-3 46 67 94q52 35 110 35q21 0 42 -4q1 -1 2.5 -3.5t4 -8t1.5 -9.5q-1 -3 -5 -5.5t-8 -3.5l-3 -1 q-13 2 -26 2q-61 0 -115 -47q-60 -52 -61 -124q0 -8 1 -15q6 -117 20.5 -212.5t22.5 -193.5q1 -7 25 -227q8 -32 4 -49q9 -77 14 -109q0 -17 4 -53q-4 -32 -4 -53q-2 -15 2 -48q4 -3 9.5 1.5t11.5 12.5l6 9q38 59 64 94q25 39 70.5 113.5t51.5 83.5q35 67 56 96 q14 21 106 184q4 6 23 37.5t26 48.5q16 32 56 98t45 76q7 12 18.5 35.5t18.5 34.5q20 30 52.5 101.5t66 125t75.5 76.5q5 3 16 9t17.5 9.5t17 6.5t21.5 4t21 1q50 0 63 -22q11 -17 11 -36q1 -22 -15 -45q-30 -43 -66 -62q-90 -48 -151.5 -99t-108.5 -128q-8 -14 -58 -101 t-93.5 -163t-59.5 -101q-11 -11 -24 -39.5t-21 -38.5q-3 -4 -61 -106q-17 -25 -43 -78.5t-43 -79.5q-30 -37 -78.5 -131.5t-85.5 -155.5q-5 -5 -14.5 -21.5t-14.5 -21.5q-4 -5 -11 -23.5t-11 -23.5q-2 -3 -14 -17t-17 -21.5t-11.5 -19.5t-7.5 -22q-2 -8 -13 -8q-7 0 -17 3 q-26 8 -45 24q-20 14 -25 72q-1 6 -1 28q1 16 1 42q1 36 0 54v17q0 23 -8 39q1 10 -32.5 341.5t-33.5 338.5q-3 -4 -17 -30.5t-22 -33.5q-3 -8 -12 -21.5t-12 -21.5q-4 -8 -12.5 -23.5t-12.5 -23.5q-35 -63 -49 -86q-43 -62 -111.5 -186.5t-99.5 -173.5q-30 -43 -45 -70 q-7 -14 -25 -38.5t-24 -35.5q-6 -10 -18.5 -30.5t-18.5 -30.5q-5 -9 -18.5 -30.5t-24 -40t-14.5 -34.5q-5 -16 -25.5 -28t-34.5 0q-19 21 -29 34t-14.5 28t-5.5 24.5t-1.5 35.5t-2.5 48q-10 44 -12.5 76.5t-3 73t-4.5 79.5q-2 41 -2 123q0 46 -13.5 125t-15.5 102 q-4 73 -19 213q-1 17 -4 78.5t-9 123t-17 120.5q-9 116 -191 121q-8 -1 -12 9q-3 6 -3 11q0 3 1 6z" />
<glyph unicode="X" horiz-adv-x="1452" d="M-587 -366q4 50 34 81q16 16 36 15q24 0 56 -21q30 -30 109 -53q36 -1 60 3t47.5 19t34.5 25t42 43t49 51q6 7 26.5 28t29.5 32q3 3 9 10t9 10q44 61 146 194.5t135 178.5q214 295 321 463q-3 6 -2 10t-6 31q-21 65 -50.5 148.5t-41.5 121.5q-11 34 -36 116t-46 144 q-50 129 -250 129l-2.5 2.5t-4 5.5t0.5 6q5 10 26 17q32 6 85 8h20q46 0 98 -6q64 -6 118.5 -33t72.5 -72q13 63 62 87q32 16 82 16q25 0 54 -4q4 -1 7 -8t-2 -13.5t-19 -5.5t-26 1q-73 0 -99 -40q-17 -27 -17 -68q0 -29 9 -65q18 -76 117 -348q174 247 350 461 q79 93 143 139q52 37 80 47q17 7 37 7q9 1 17 -1q30 -4 44 -26q8 -12 8 -21q0 -7 -4 -16q-5 -12 -7 -16t-13 -23q-10 -17 -39 -35t-49 -23q-15 -5 -53 -7.5t-54 -8.5q-33 -12 -64 -39.5t-77.5 -84t-50.5 -60.5q-11 -14 -30.5 -42t-22.5 -32q-11 -15 -33 -43t-33 -43 q-20 -22 -73 -95t-52 -83q-1 -8 -1 -14q0 -30 11 -50q8 -22 18 -63.5t15 -56.5q12 -28 38 -113t38 -113q6 -19 9 -33t7 -24q2 -21 29.5 -93.5t69.5 -148.5q15 -29 37 -50t39.5 -31t49 -16.5t47 -7.5t50.5 -3q1 -1 2 -3t2 -6.5t0 -7.5t-4 -5t-6 -3h-2l-37 -4q-37 -2 -98 -4 q-8 0 -16 -1q-57 0 -140 9q-49 5 -88 38t-66 116q-12 -83 -52 -119.5t-108 -36.5q-1 1 -2 2.5t-3 5t-1 6.5q1 5 7 11t8 6q54 0 83.5 35.5t51.5 140.5q-7 15 -22.5 70.5t-22.5 70.5q-12 31 -14.5 39t-6 20.5t-14.5 43.5q-25 87 -33 106q-4 8 -8 27.5t-8.5 35.5t-11.5 19 q-17 -24 -23 -29q-11 -11 -121 -165q-35 -49 -110 -156t-115.5 -163t-108.5 -147.5t-117 -148.5t-111 -124.5t-121.5 -117.5t-119.5 -88q-31 -8 -67 -10h-8q-32 0 -68 12q-40 13 -55 43q-21 30 -21 71q0 7 1 14z" />
<glyph unicode="Y" d="M-293 -411q0 38 29 71q16 18 38.5 18t51.5 -18q34 -28 113 -47q96 6 134.5 23.5t104.5 91.5q16 22 30 41t16 22l7 10.5t5 8.5t9 15t19.5 31t35 55.5t56.5 88.5q4 103 4 143v13q-1 38 -1 72q0 57 3 106q5 77 5 104q0 47 -1 182q-1 80 -1 136v63q1 52 5 116q3 56 3 78 q0 3 -1 6q0 20 -3 132q-3 76 -10.5 106t-39.5 80q-16 24 -77 41t-99 17l-3 3t-5 6t-2 7q2 4 7.5 7.5t10.5 5.5l5 1l23 4q23 4 71.5 4t105.5 -10q80 -14 117 -49.5t66 -107.5q6 35 17.5 62.5t24 45t32 29.5t33.5 18t38.5 9t37.5 3.5t38 0.5h8q1 -1 2 -3t3 -7t1 -9t-5 -7 t-7 -4l-4 -1h-31.5t-32 -3t-34.5 -9t-31 -18.5t-30 -30.5t-21.5 -46.5t-16.5 -64.5q0 -92 -2 -278t-2 -285q0 -18 -2 -118t-2 -140v-7v-17t1.5 -11t5 -7.5t9.5 -0.5q181 321 262 475q26 45 98.5 174t106.5 182q11 17 27.5 44t30 49t32 50t34.5 50.5t36.5 46.5t39 41.5 t40.5 32t43 20.5q19 7 42 7q1 0 3 -1q24 0 47 -10q21 -8 29 -32q3 -10 3 -20q0 -15 -7 -30q-8 -22 -36.5 -28.5t-61.5 -4.5h-8q-30 0 -68 -13q-42 -16 -72 -54q-46 -61 -147.5 -230.5t-185 -316.5t-190.5 -338t-110 -197q-394 -698 -561 -753q-43 -14 -87 -21q-26 -4 -53 -4 q-20 0 -40 2q-49 5 -80 27q-29 35 -29 74z" />
<glyph unicode="Z" horiz-adv-x="1404" d="M1 29q0 2 1 4q49 76 78 110q27 32 141.5 160t175.5 211q8 7 74 84q52 70 61 80q10 11 36.5 43t49 58.5t25.5 29.5q6 6 17.5 18.5t17.5 18.5q7 8 30 35.5t37 40.5q3 2 10 11t9 11q13 13 29 33q39 49 67 82q19 21 55 65.5t54 65.5q6 6 16 19.5t16 19.5q25 25 35 39 q10 12 29 34t29 33q4 3 14 18.5t14 18.5q-180 8 -297 8q-249 0 -295 -26q-12 -6 -47 -21q-7 -6 -18.5 -18t-36 -55t-37.5 -93q-14 -65 -43 -80q-29 -18 -54 -18q-17 0 -34 8q-40 21 -45 64v8q0 42 39 99q43 63 86 91q59 40 119 47q5 2 108 23q8 1 20 1t17 0.5t6 2.5 q23 4 116 7q56 2 102 2q31 0 57 -1q17 0 75 -3q50 -3 70 -3q2 1 6 1q18 0 78 3q30 0 114.5 -3t125.5 -3q-8 -17 -29.5 -43t-26.5 -35q-60 -90 -139 -178q-115 -128 -299 -350q-21 -27 -67 -76.5t-68 -75.5q-25 -33 -126 -147t-116 -133q-52 -59 -65 -82q-3 -6 -31 -39 q-25 -35 -31 -41q-10 -10 -10 -14q0 -5 -22 -27q-11 -11 -13 -14q-5 -7 -16 -20.5t-16 -20.5q-24 -30 -64 -70q18 1 88 1.5t98 2.5q35 0 150 1t154 1q12 0 47.5 -0.5t47 0t39.5 2.5t42.5 7.5t37 14.5t41.5 23.5t39 34.5q13 22 23 50t20 64.5t17 55.5q7 10 18.5 22.5 t14.5 18.5q25 12 42.5 5t41.5 -32q29 -39 29 -81q0 -87 -126 -183q-32 -24 -84.5 -33t-120 -9.5t-83.5 -2.5q-18 -1 -51.5 0t-49.5 0h-364q-7 0 -53 -1q-51 -1 -92 -1q-180 0 -180 21z" />
<glyph unicode="[" horiz-adv-x="856" d="M74 -242q-2 9 2 21q0 25 2 37q3 43 16 98q4 18 15.5 53t15.5 53q9 37 40 137.5t42 155.5q50 224 108 455q6 24 24 89t31.5 118.5t18.5 89.5l7.5 22.5t6.5 24.5q11 57 27 119q47 207 49 213q30 93 37 151q1 10 5 29t5 27t1 19.5t1 15.5t6.5 10t16.5 10q46 15 98 18 q34 5 76 5q55 -5 68 -17q10 -9 5 -18t-18 -11q-10 -2 -57 3q-7 -1 -46.5 -4t-60.5 -7q-1 0 -5 -0.5t-5.5 -0.5t-5 -1t-5 -1.5t-4 -1.5t-4 -2.5l-3 -3t-2.5 -4t-2 -5.5q-195 -782 -238 -965q-68 -295 -125 -506q-9 -31 -21.5 -73t-23.5 -77t-22.5 -73t-19 -68t-12 -55.5 t-3 -41t9.5 -19.5q10 -6 25 -7.5t37 0t26 1.5q9 1 35 3t35.5 2t35.5 -1q26 -3 17 -18q-8 -13 -27 -15q-53 -6 -102 -6q-19 0 -54.5 2t-52.5 2q-26 0 -26 18z" />
<glyph unicode="\" horiz-adv-x="1060" d="M142.5 1685.5q0.5 10.5 9.5 18.5q3 4 9 3.5t14 -6.5t13 -15q10 -10 7 -19q3 -5 9.5 -18.5t12.5 -20.5q26 -60 37 -98q10 -21 28 -80t19 -61q32 -84 68 -207q5 -13 16.5 -45.5t17.5 -46.5q6 -18 22 -55t21 -54q9 -34 39 -105.5t39 -105.5q20 -56 23 -96q1 -8 20 -51 q1 -6 6 -25t5 -29q10 -49 24 -92q2 -9 11.5 -41t9.5 -49q15 -36 18 -45q10 -41 12 -45q5 -14 20.5 -56t24.5 -63q8 -24 35 -98.5t37 -114.5q4 -13 40 -101.5t38 -105.5l-37 2q-16 1 -38.5 54t-44 121.5t-26.5 78.5q-10 22 -32 99q-11 30 -35 108q-6 20 -20.5 55.5 t-18.5 45.5q-2 6 -14 47q-2 10 -11.5 33t-11.5 30q-24 80 -31 105q-17 43 -26 94q-6 12 -15 41.5t-16 44.5q-1 2 -18 92q-1 4 -3 13.5t-4 17.5t-6 14q-3 8 -10 25.5t-10 25.5q-8 18 -12 51q-14 22 -29 58q-6 20 -21 57t-20 51q-19 58 -31 101q-58 132 -88 254 q-12 42 -27.5 81t-25.5 59.5t-17 39t-6.5 29z" />
<glyph unicode="]" horiz-adv-x="831" d="M52 -234q5 9 18 11q13 3 57 -2q11 1 48.5 4t57.5 6q28 3 33 12q3 3 4 8q195 782 238 965q68 295 125 506q9 31 21.5 73t23.5 77t22.5 73t19 68t12 55.5t3 41t-9.5 19.5q-10 6 -24.5 8t-37.5 0.5t-26 -1.5q-9 -1 -35.5 -3t-36 -2t-35.5 1q-20 2 -18 13q1 12 22 18l7 1 q53 6 102 6q19 0 54.5 -2t52.5 -2q26 0 26 -18q2 -9 -2 -21q0 -24 -2 -36q-3 -44 -16 -99q-4 -19 -15.5 -53.5t-15.5 -52.5q-9 -37 -40 -137.5t-42 -155.5q-50 -224 -108 -455q-6 -24 -24 -89t-31.5 -118.5t-18.5 -89.5q-2 -7 -8 -23t-7 -24q-14 -74 -26 -119 q-47 -208 -49 -213q-30 -93 -37 -151q-1 -10 -5 -28.5t-5 -26.5t-1 -19.5t-1 -16t-6.5 -10.5t-16.5 -10q-46 -15 -98 -18q-27 -4 -76 -4q-3 0 -13 1t-15.5 1.5t-14 2t-14.5 4.5t-11 7q-10 9 -5 18z" />
<glyph unicode="^" horiz-adv-x="968" d="M111 641q-20 19 12 72q4 8 18 36.5t23 41.5q20 43 53 112t47 98t35 75t37.5 83.5t34.5 81.5q13 36 47 111q6 13 16.5 33t16.5 36q2 2 6 5.5t6 5t5.5 4t5.5 3t5 1t4.5 -1t4 -3.5t4.5 -6t4 -10q54 -134 73 -170q7 -15 19.5 -44t19.5 -44q9 -17 23.5 -50.5t21.5 -47.5 q6 -12 17 -35t20 -41.5t17 -34.5q10 -20 28.5 -59.5t28.5 -58.5q9 -18 29 -50q12 -20 18 -26q0 -1 6 -7t6 -10q1 -6 11.5 -20t11.5 -16q19 -24 22 -33q0 -6 -1.5 -10.5t-3.5 -5.5t-4 -1.5t-5.5 1.5t-5.5 3t-6 4.5t-6 4.5q-29 19 -66 80q-104 171 -143 253q-27 56 -35 78 q-9 21 -28 62t-32.5 72t-25.5 63l-13 36q-13 36 -20 42q-15 -30 -36.5 -76t-39.5 -80q-23 -46 -35 -82.5t-24 -58.5q-16 -31 -40.5 -85t-37.5 -81q-28 -57 -55 -125q-11 -36 -47 -94q-24 -35 -35 -36q-7 -1 -12 5z" />
<glyph unicode="_" horiz-adv-x="1157" d="M21 -203q-6 15 18 19q21 4 60 3.5t61 0.5q12 0 58.5 1t75.5 0t62 -5q28 2 79.5 6t89.5 6t81 2h137q29 2 79 -1t65 -3q19 1 50.5 3t56.5 3t48 0q11 -1 33 -2t31 -2q30 -2 35 -18q3 -13 -16 -18q-3 -1 -7 -1q-36 -5 -90.5 -2.5t-71.5 0.5q-5 0 -22 -3t-29 -1 q-14 -5 -71 -0.5t-80 4.5q-52 3 -275 -2q-47 0 -100 -6q-10 -6 -58.5 -4t-56.5 2q-7 -4 -28.5 -2.5t-26.5 0.5q-24 -3 -55 0q-44 -5 -105 2q-22 3 -28 18z" />
<glyph unicode="`" horiz-adv-x="626" d="M162 1520q15 29 51.5 28t62.5 -30q19 -21 32.5 -36t27.5 -28t20.5 -20t21 -17.5t19.5 -14.5t25 -17.5t29 -20.5q18 -12 30.5 -26t3.5 -21q-21 -2 -47 6q-12 4 -74.5 22t-104.5 36.5t-73 45.5q-47 41 -24 93z" />
<glyph unicode="a" horiz-adv-x="1052" d="M63 266q5 54 25 131q29 97 68.5 165t115.5 147q46 40 70 57q83 72 162 102q20 9 102 39q50 13 99 13h16q15 0 29 -1q22 -2 33 -4.5t30 -7.5t25 -6q13 -4 24.5 -10t28.5 -18t22 -15q31 -22 39 -70q4 -25 5 -49q0 -23 -4 -46q-8 -47 -23 -85q-2 -5 -14.5 -36.5t-16.5 -49.5 q-2 -15 -14.5 -43t-14.5 -33q-4 -12 -28 -86q-20 -44 -60 -182q-4 -15 -4 -29q0 -47 39 -92q19 -19 40 -20t51 29.5t69 95.5q1 1 4 7q24 46 33 28q-6 -18 -22 -46.5t-21 -39.5q-27 -55 -75.5 -94.5t-111.5 -39.5q-20 0 -38 6t-27.5 12.5t-23 17.5t-17.5 14l-7.5 7.5 t-6.5 7.5t-5 6.5t-5 7l-4 6t-4 7.5t-4 7.5t-4.5 9t-4.5 10.5q-6 14 -6 43q-3 26 -25 15q-151 -116 -260 -150q-29 -11 -66 -11q-12 -1 -24 1q-52 4 -82 31q-5 5 -17.5 14.5t-21 17.5t-14.5 17q-25 40 -41 90q-13 49 -13 88v14zM228 288q-6 -40 -6 -76q0 -41 7 -79 q11 -47 50 -73q25 -16 53 -17q17 0 35 6q99 36 176 101q57 45 67 67q2 5 9 16.5t10 16.5q4 8 20 72q36 110 107 303q14 38 26 84q2 4 10 21.5t11 29t4 24.5q1 5 1 11q0 27 -13 53q-15 32 -45 41q-10 1 -20 1q-81 0 -175 -56q-18 -11 -43 -31q-76 -63 -129.5 -144.5 t-106.5 -203.5q-36 -83 -48 -167z" />
<glyph unicode="b" horiz-adv-x="950" d="M70 260q6 107 6 109q2 16 10.5 50.5t9.5 51.5q9 36 17 65.5t13.5 47.5t14 41.5t11.5 32.5t14.5 37.5t15.5 39.5q9 26 27 73.5t24 65.5q18 45 52 148q8 24 26.5 71t26.5 70q15 43 22 70q9 36 15 76q10 39 10 59v6q5 56 4 66q-13 45 -24 57q-2 2 -6 7t-7.5 8.5t-7.5 5.5 q-18 5 -20 14q24 4 53 4q19 0 39 -2q53 -4 78 -33q15 -15 41 -65q1 -4 2.5 -8.5t4 -10t5.5 -8.5t6 -2q10 5 20 35q6 15 14.5 44.5t14.5 43.5q4 6 12 22q4 7 10 7q2 -1 4 -1q8 -4 5 -14q-2 -18 -13.5 -50.5t-13.5 -39.5q-23 -71 -37 -108q-16 -38 -91.5 -252.5t-80.5 -233.5 q0 -1 -4.5 -21t-3.5 -28q2 -12 11.5 -8t17.5 12q11 3 41 27q43 28 162 71q45 15 98 15q27 0 57 -4q44 -7 60 -23q69 -67 73 -194q3 -35 3 -51q0 -10 -1 -12q-3 -7 -6 -69q-3 -27 -10.5 -51t-23 -58.5t-19.5 -45.5q-9 -18 -29 -49t-28 -45q-66 -106 -131 -168 q-5 -6 -17.5 -18.5t-17.5 -18.5q-8 -10 -45 -33q-4 -2 -34 -19t-46 -28q-59 -39 -144 -57q-43 -9 -81 -8q-37 0 -70 8q-51 13 -84 59t-45 104q-11 48 -11 93q0 10 1 20zM152 170q-3 -15 -4 -29q0 -31 15 -65q21 -48 68 -56q20 -4 41 -3q46 -1 90 17q66 26 116 75t97 116.5 t78 129t54 122.5q2 5 13 41t14 48q2 11 10 43q7 28 7 46q0 8 -3 48q-2 26 -11.5 48t-25.5 42q-25 16 -53 19q-12 1 -22 1q-14 0 -24 -2q-18 -4 -53 -14q-32 -8 -78 -45q-9 -8 -34.5 -25.5t-36.5 -28.5q-10 -10 -29.5 -31.5t-34.5 -35.5q-5 -5 -16 -23t-17 -24 q-15 -18 -30 -39q-20 -34 -41 -88q-7 -18 -15 -29.5t-14 -30.5q-32 -91 -61 -227z" />
<glyph unicode="c" horiz-adv-x="849" d="M61 272v88q0 100 49 198t132 206q5 7 12 14t15.5 14.5t13.5 12.5q67 52 121.5 80t130.5 39q55 10 86 10q139 0 204 -123q12 -28 13 -55q0 -14 -4 -29q-10 -56 -50 -78q-31 -16 -54 -16q-14 0 -25 6q-41 23 -43 61q0 8 4.5 17t9 14t12.5 13.5t10 11.5q25 36 25 63 q0 10 -4 19q-12 25 -43 34.5t-61.5 7t-55.5 -11.5q-91 -36 -141 -100q-80 -101 -115 -186q-52 -132 -61 -211q-5 -38 -5 -79q0 -55 9 -112q7 -42 32.5 -83.5t61.5 -57.5q31 -17 74 -19q7 0 15 1q37 0 79 9q50 12 106.5 49t104.5 95q1 1 9.5 11t16 17.5t16.5 13.5t15 3 q3 -10 -12 -31q-5 -6 -13.5 -19t-13.5 -19q-23 -20 -63 -70q-2 -1 -14 -11.5t-19 -15.5q-10 -3 -16 -12q-2 -1 -11 -4t-12 -6q-20 -23 -134 -37q-45 -5 -83 -5q-59 0 -102 13q-98 35 -150 96q-66 79 -72 174z" />
<glyph unicode="d" horiz-adv-x="1054" d="M63 199q-2 13 -2 27q0 32 10 74q14 58 28 93.5t42 98.5q10 17 32 47t30 43q35 55 69 86q3 4 29.5 30.5t38.5 42.5q14 10 64.5 52t80.5 61q84 56 187 76q36 6 62.5 6.5t43.5 -6.5q57 -26 86 -45q7 -4 12 -3t10 10t7.5 16.5t5.5 17t4 12.5q18 56 39 111q62 179 78 227 q35 105 35 149v7t-1 6t-1.5 5.5t-3 5.5t-3.5 4.5t-4.5 5.5t-4.5 5l-6 6l-7 7q-5 5 -51 14q-4 2 -16.5 3.5t-18.5 4.5q-16 15 11 23t46 8q60 7 90 7q10 0 17 -1q26 -4 67 -29q7 -4 27 -24q2 -2 4.5 -6t4 -7t5 -6t7.5 -4q5 0 10.5 7t11 19t6.5 13q8 11 20.5 16t20.5 -8 q0 -7 -16 -39q-22 -33 -39 -77q-4 -9 -10.5 -27.5t-10.5 -26.5q-13 -30 -16 -41q-3 -8 -7 -23.5t-7 -23.5q-6 -18 -17 -53t-16 -51q-43 -107 -66 -172q-9 -24 -34.5 -94.5t-40.5 -108.5q-29 -59 -37 -94q-5 -16 -17 -45q-17 -51 -18 -53q-13 -28 -33 -95q-6 -18 -19.5 -54 t-19.5 -54q-5 -26 -30.5 -99t-26.5 -114q0 -69 16 -92q13 -16 42.5 -22t51.5 13q14 16 24 27t20 25.5t13.5 19.5t16 26.5t17.5 28.5q4 1 9 12t9 13q9 4 15 -3t3 -15q-48 -118 -122 -172q-40 -29 -85 -29q-38 0 -79 20q-14 7 -23 15.5t-12 13.5t-14 25q-31 52 -31 94 q0 9 1 26.5t1 26.5q0 1 0.5 7.5t0 10.5t-1.5 9t-3.5 6.5t-7.5 -0.5q-4 -2 -10.5 -11t-10.5 -12q-3 -8 -15.5 -17.5t-15.5 -14.5q-3 -7 -8 -14t-12.5 -14.5l-12 -12t-14.5 -13t-12 -10.5q-23 -23 -70 -53q-6 -5 -20.5 -14.5t-20.5 -14.5q-24 -8 -34 -14q-13 -7 -31.5 -15.5 t-36.5 -17.5q-6 -1 -24.5 -4t-24.5 -4h-6q-16 0 -47 8q-64 16 -101 47q-70 58 -76 152zM237 138q0 -22 4.5 -34t15 -26t26.5 -21q22 -10 46 -10q59 0 130 62q117 95 164 141q38 34 55 55q18 18 20 37q2 8 6.5 23.5t6.5 23.5q21 82 49 168q21 66 55 150q4 11 13.5 32.5 t13.5 32.5q6 18 6 51q-20 45 -69 63q-25 9 -48 10q-23 0 -45 -9q-81 -34 -157 -103t-134 -157q-41 -61 -94 -189q-5 -13 -14 -47q-2 -5 -9 -22t-10 -27q-2 -8 -4 -24.5t-4 -24.5q-1 -9 -6 -27t-6 -28q-1 -5 -5 -31t-5 -36.5t-1 -32.5z" />
<glyph unicode="e" horiz-adv-x="817" d="M66 266q-1 6 -1 20q0 29 5 91q3 42 18 102q17 79 78 158q39 62 51 72q31 31 37 36q30 30 41 37q154 120 280 140q9 1 25.5 4t22 3.5t17.5 1.5t18 1t16.5 -1t20.5 -3.5t24 -5.5q59 -15 88 -86q16 -38 15 -75q0 -31 -11 -61q-17 -42 -47 -69q-123 -123 -272 -146 q-12 -4 -27 -5t-40.5 0t-29.5 1q-26 0 -49 6q-11 1 -28 4.5t-24 4t-15 -4.5t-13 -18q-28 -80 -35 -207q-1 -8 -1 -17q0 -24 8 -52q16 -59 55 -86q41 -27 86 -39q27 -7 61 -6q21 0 45 2q39 7 86 47q14 10 41 31.5t41 31.5q3 2 19.5 14t30 19.5t18.5 3.5q8 -4 10 -8.5t1 -7.5 t-6 -9t-7 -8q-12 -18 -41 -43q-7 -5 -37 -30q-21 -21 -51 -46q-8 -7 -62 -40q-39 -22 -120 -32q-28 -3 -53 -3q-48 0 -87 12q-80 30 -139 98q-9 9 -16 19t-13 24t-9.5 21.5t-8 27t-6 23.5t-6 27.5t-4.5 25.5zM303 538q2 -6 9 -8.5t12.5 -3.5t16 -1.5t13.5 -0.5q12 0 47 -2 t48 -2q31 0 71 12q36 7 55 19l21 10.5t23.5 12t22 12.5t23 15t19 16.5t17.5 19.5t11.5 21.5t6.5 25.5q5 30 5 56q0 69 -38 106q-18 18 -46 18q-9 0 -19 -2q-22 -4 -29 -8q-64 -37 -127 -88q-33 -21 -64 -64q-1 -1 -57 -79q-37 -52 -41 -72q-1 -4 -1 -7t1 -6z" />
<glyph unicode="f" horiz-adv-x="544" d="M-70 4q0 10 12 16t13 7q21 9 36.5 23t31.5 46q30 63 69 195q6 23 16 51t15 47q26 89 39.5 131.5t31.5 89.5t33 92q15 50 15 62q-5 6 -35 6q-11 3 -41 4.5t-41 3.5q-32 4 -35 15q0 5 2 8.5t6.5 4.5t7.5 1.5t9.5 0t7.5 -0.5q14 2 43 2q9 0 29 -1.5t33 -1t22 4.5q8 3 12 25 q1 4 31 73q3 8 9 24.5t9 24.5q37 75 51 111q2 5 15.5 31.5t23 45t22.5 41t21 32.5q8 12 60 77q17 24 47 54q42 39 90 65q37 18 62 25.5t73 13.5h51q21 -3 78 -20q26 -12 52 -30.5t36 -33.5q10 -14 15 -37q2 -15 2 -28q0 -30 -9 -56q-5 -20 -28 -39q-8 -8 -25.5 -17t-27.5 -9 q-22 0 -27 2q-7 2 -12 5.5t-11 11t-8 9.5q-11 11 -16 21q-6 12 -6 61q1 9 3.5 25.5t3 26.5t0.5 23t-4 21.5t-12 14.5q-19 19 -45 19q-7 0 -14 -1q-62 -7 -147 -92q-18 -18 -31 -39q-8 -15 -25 -46.5t-26 -49.5q-18 -40 -76 -213q-2 -7 -12 -35t-13 -45q-19 -63 -20 -82 q4 -4 10.5 -5t11 -0.5t14 2t11.5 1.5q6 1 22 4t25 4q17 1 52.5 0t54.5 0q1 0 4.5 -0.5t5 -1t4 -1.5t3.5 -2t2 -3t1 -4q-1 -4 0.5 -6.5t-1.5 -5t-4 -4t-5.5 -3.5t-6 -3t-7.5 -2.5t-7.5 -1.5t-7 -1.5t-6.5 -1.5q-46 -4 -76 -4q-42 -6 -55 -6q-6 -1 -17.5 -0.5t-21.5 -0.5 t-18 -5q-6 -5 -17 -37q0 -6 -4 -22q-3 -11 -8.5 -33.5t-7.5 -30.5l-6 -18q-6 -28 -13.5 -52.5t-23.5 -71t-25 -75.5q-14 -41 -32 -97t-23 -71q-5 -13 -10 -27t-6.5 -18t-3 -11t-2 -12.5t-1.5 -17.5q-5 -27 -5 -53q0 -11 1 -21q0 -37 13 -63q6 -6 22 -14q2 -2 11 -7t10 -10 q0 -4 -1.5 -7.5t-3.5 -5.5t-4 -3.5t-6.5 -2.5t-7 -2t-8 -1h-8.5h-9.5h-9.5q-7 -2 -16 -2q-21 0 -51 8q-7 4 -20 8t-19 8q-13 9 -13 17l-16 16q-2 1 -8.5 7.5t-11.5 8.5q-13 -1 -29 -15.5t-25 -18.5q-43 -24 -66 -24q-4 0 -7 1q-5 0 -9 4z" />
<glyph unicode="g" horiz-adv-x="954" d="M-27 -377q-4 15 -4 31q0 28 12 58q19 48 70 52q24 2 48 -8t32 -35q7 -20 7 -40q0 -23 -9 -46q-1 -14 -18 -36t-19 -35q1 -13 30 -25t48 -14q7 -1 15 -1q35 0 76 23q50 28 83 66q34 32 84 104q19 27 32.5 53t29.5 63.5t30 64.5q7 15 11 23t9 17.5t8.5 18t6.5 15.5t8 19.5 t8 21t10.5 28t12.5 33t16 44t19 52.5q2 5 -2 4q-13 -4 -30 -23q-2 -2 -3 -4q-5 -6 -19.5 -16.5t-19.5 -15.5q-38 -33 -94 -68q-84 -52 -170 -55q-7 1 -28 2.5t-34.5 4.5t-25.5 9q-48 23 -70 43q-72 56 -72 161v9q0 27 11.5 97.5t25.5 105.5q38 92 90 174q7 13 16.5 25.5 t24 29t19.5 23.5q63 70 194 155q123 80 200 80h9q9 0 24.5 5t22.5 6q14 0 41 -9q15 -6 82 -41q78 -52 94 -127q6 -24 6 -49t-2.5 -40t-10.5 -53.5t-11 -55.5q-1 -5 -5.5 -35.5t-10.5 -46.5q-9 -25 -47.5 -123t-57.5 -156q-17 -54 -86 -196q-12 -24 -42.5 -82t-35.5 -68 q-54 -96 -109.5 -158.5t-146.5 -138.5q-38 -25 -64.5 -38.5t-61.5 -24.5q-28 -9 -57 -9q-6 0 -13 1q-36 2 -78 16q-36 15 -60 40t-32.5 45t-16.5 50zM219 152q0 -58 33 -91q15 -15 56 -17h15q30 0 44 5q38 10 79 39q15 10 39 32.5t33 29.5q19 16 40 38.5t31.5 35t36.5 45 t31 38.5q9 12 38 85.5t34 94.5q4 16 13.5 46.5t13.5 46.5q14 63 16 108v10q0 43 -14 97q-3 15 -5 22.5t-7 19.5t-12.5 19.5t-18.5 11.5q-13 4 -27 4q-28 0 -62 -15q-52 -23 -99.5 -64.5t-86 -86.5t-57.5 -79q-3 -5 -9 -15.5t-9 -15.5q-2 -4 -7.5 -12.5t-7.5 -12.5 q-3 -6 -10.5 -18t-15 -24.5t-13.5 -26.5q-14 -22 -35 -70q-11 -25 -24.5 -72t-15.5 -53q-17 -64 -17 -155z" />
<glyph unicode="h" horiz-adv-x="1044" d="M27 80q-5 8 -5 24q0 34 25 103q92 255 178 457q27 68 61.5 165t57.5 167t63.5 195.5t55.5 170.5q14 36 14 65q-1 12 -3 24q-8 38 -56 56q-14 5 -18 16t14 15q19 4 41 4q27 0 57 -6q67 -9 90 -29q22 -19 29 -34q0 -1 1.5 -4l2.5 -5t3 -5.5t3.5 -5l4 -4t4.5 -2t5 0.5 q5 2 10.5 9.5t6.5 8.5q18 14 28 27q10 17 27 23q11 3 12 -5t-6 -14q-41 -45 -74 -108q-7 -13 -18.5 -39.5t-17.5 -38.5q-3 -5 -7.5 -16.5t-7.5 -16.5q-3 -7 -10 -21.5t-10 -21.5q-24 -50 -56.5 -143t-46.5 -150q-9 -27 -18 -51q-4 -14 2 4q2 5 6 17l5 16q0 -1 -1 -4 q-6 -18 -20.5 -51t-16.5 -37q-2 -6 -16 -40t-16 -53q9 1 18 9t20.5 23.5t12.5 17.5q36 38 86 69q3 1 31.5 18.5t44.5 24.5q56 23 99 23h7q33 0 102 -21q30 -9 43 -16q15 -8 44 -41q39 -41 39 -103q0 -36 -13 -79q-30 -98 -147 -406q-3 -6 -14.5 -33.5t-15.5 -39t-9 -33.5 t-1.5 -39.5t13.5 -34.5q11 -21 34 -32t44 -1q52 25 84 60q9 10 19 23t16 22.5t15.5 25.5t14.5 23q2 3 12.5 20.5t21 29.5t18.5 11q3 -9 -13 -41q-1 -3 -6 -9.5t-8.5 -13t-3.5 -10.5t-3 -8.5t-8 -10t-6 -7.5q-4 -6 -11.5 -16t-13 -18.5t-9.5 -16.5q-10 -9 -31.5 -30.5 t-34.5 -33.5t-34.5 -25.5t-43.5 -19.5q-21 -5 -42 -5q-25 -1 -53 7q-50 14 -73 53q-25 41 -27 95q0 6 -1 12q0 48 12 88q12 52 53 160q12 34 45 143t45 143q1 1 12.5 30.5t14 40t6 33.5t-2.5 38.5t-21 27.5q-19 15 -48 15q-25 3 -51 0q-42 -7 -94 -43q-39 -23 -76 -60 q-30 -25 -35 -34q-9 -16 -32 -39q-7 -7 -16.5 -20t-12.5 -17q-21 -25 -66.5 -119t-56.5 -131q-9 -30 -37 -90.5t-37 -89.5q-6 -17 -8.5 -27t-3.5 -18.5t-4.5 -35.5t-9.5 -61q-2 -15 6.5 -29.5t23.5 -31.5q19 -17 17 -27t-39 -10q-28 0 -68 7t-61 18q-39 21 -55 53z" />
<glyph unicode="i" horiz-adv-x="522" d="M75 58q-8 26 -8 56q0 41 15 89q9 37 31.5 103t29.5 91q0 8 6.5 22.5t8.5 20.5q2 10 7.5 29.5t6.5 24.5q6 22 27 80t26 73q26 82 29 96q3 17 3 32q0 32 -15 54q-3 6 -8.5 10t-9.5 6.5t-12.5 3.5t-12 1h-14.5h-13q-24 -4 -29 12q-5 7 4 14t17 7q5 5 46 5t48 -1q6 1 13 1 q35 0 81 -22q20 -14 29 -28q15 -23 29 -4q11 11 33.5 23.5t29.5 -1.5q-1 -20 -30.5 -90t-34.5 -84q-14 -50 -84 -239t-88 -285q-8 -39 -8 -63q0 -28 10 -38q22 -20 54 -13.5t59.5 23t41.5 33.5q27 27 60 86q10 19 18 21q9 0 9.5 -16.5t-3.5 -22.5q-13 -39 -34.5 -67 t-67.5 -70q-16 -15 -91 -35q-58 -16 -84 -15q-8 0 -12 1q-46 12 -77 34q-28 23 -31 33zM371 1288v7q0 31 17 59q19 30 56 37q11 2 22 2q30 1 58 -15q38 -22 43 -69q0 -30 -18 -72q-36 -36 -74 -39q-35 3 -74 19q-15 11 -24 31q-7 15 -7 30q0 5 1 10z" />
<glyph unicode="j" horiz-adv-x="438" d="M-484 -382q11 39 42 56q17 9 33 9q19 0 38 -12q35 -23 35 -64q-1 -9 -6 -31t-5 -31t9 -28q12 -16 32 -16q22 0 54 20q50 26 72 61q22 32 53 92q13 29 37 64q10 16 33 74q17 37 88 239q8 22 15.5 47.5t15 56.5t12.5 48q16 56 70 195.5t69 219.5q1 7 6.5 30.5t7 35t4 31 t1 35t-6.5 30.5q-10 32 -45 47q-45 17 -47 35q4 19 62 19q36 5 43 4q34 -8 53 -17q13 -5 25 -17t16.5 -19.5t15.5 -26.5q8 -14 25 8t20 29q4 11 40.5 22t43.5 -8q1 -8 0.5 -10.5t-5 -8.5t-5.5 -8t-7 -20.5t-11 -28.5q-8 -23 -35 -84q-20 -54 -27 -94q-7 -26 -18 -49 q-10 -21 -11 -21q-4 -3 -6.5 -10.5t-4.5 -17t-3 -12.5q-3 -9 -9 -28t-9 -28q-10 -26 -20.5 -48t-24.5 -50t-23 -47q-6 -16 -17.5 -47.5t-17.5 -48.5q-3 -9 -15 -47t-20 -58q-67 -157 -75 -180q-5 -18 -21.5 -45t-21.5 -41q-14 -38 -17 -49q-15 -22 -22 -39 q-4 -7 -10.5 -21.5t-10.5 -21.5q-18 -29 -26 -53q-13 -15 -33.5 -39t-27.5 -31t-22.5 -21t-30.5 -22t-39 -19t-60 -26q-18 -8 -54.5 -10.5t-44.5 -3.5q-18 -4 -31 -4q-8 0 -14 1q-7 3 -21.5 9.5t-21.5 9.5q-47 23 -65 63q-8 18 -8 39q0 16 5 32zM360 1305q-1 7 -1 15 q0 14 3 28q5 24 19 34q32 23 68 23q11 0 22 -2q49 -7 64 -19q6 -5 10 -12q15 -21 15 -48q0 -15 -5 -32q-32 -82 -90 -82h-5q-34 0 -66 28q-34 31 -34 67z" />
<glyph unicode="k" horiz-adv-x="1017" d="M69 120q1 10 5 32q4 25 9.5 44t17.5 64t22 86q4 14 13.5 45t13.5 49q6 23 20 65t16 50q5 17 16.5 48.5t16.5 47.5q27 78 29 88l12 51t12 50q3 11 10.5 34.5t12 42t6.5 35.5q2 13 6 28t10 33.5t9 28.5q20 66 26 99q8 32 27.5 87t26.5 91q9 50 9 82q0 12 -1 22 q-3 24 -18.5 44.5t-37.5 21.5q-3 1 -10.5 1.5t-13.5 1.5t-10 5q-7 5 -4.5 12t10.5 9t25.5 4t19.5 2q10 2 30.5 6t30.5 6q7 1 17 1q30 0 88 -7q18 -12 32 -33q1 -2 6 -11.5t10 -14.5t9 -3q5 3 9.5 7t8.5 9.5t7 8.5q12 20 30 27q6 10 19 12q7 1 6 -6v-2q-1 -6 -9.5 -15 t-9.5 -12q-42 -73 -75 -176q-14 -46 -51 -179.5t-62 -215.5q0 -2 -12 -43q-2 -6 -4 -19t-4 -20q-3 -15 -35 -107q-2 -7 -9 -24.5t-11 -31.5t-5 -26q0 -15 26.5 -15t35.5 5q6 3 11.5 7t11.5 10t9 8q9 10 41 32q38 33 82 80q70 70 135 111q70 44 117 44q36 0 60 -26 q15 -16 16 -40t-4 -46q0 -11 -14 -34q-11 -20 -33 -29q-18 -9 -38 -4.5t-32 18.5q-7 7 -11.5 15.5t-6 14.5t-3.5 18l-3 18q-4 16 -16.5 16t-35.5 -16q-12 -10 -36 -24.5t-35 -24.5q-10 -10 -21 -22t-24 -26.5t-21 -23.5q-15 -15 -78 -57q-20 -13 -20 -25q1 -5 4 -6.5 t10 -2.5t8 -1q33 -9 88 -41q64 -36 105 -191q5 -19 11.5 -66t8.5 -57q3 -21 13.5 -57.5t13.5 -48.5q8 -42 37 -82q23 -31 51 -31q8 0 16 2q51 15 78 56q36 57 58 96q3 6 19 35.5t24 46.5l14 35q6 11 16 18q7 4 8 -4q0 -12 -3.5 -25t-7 -22t-10 -24t-9.5 -21q-8 -15 -43 -92 q-37 -90 -135 -150q-69 -27 -120 -27q-36 0 -63 13q-39 19 -71 53.5t-47 73.5q-10 28 -19 67t-18 91.5t-13 70.5q-2 13 -7.5 65.5t-15.5 85t-32 56.5q-29 36 -70 39q-8 0 -15.5 -2.5t-11.5 -5.5t-9 -11t-6.5 -11t-6 -14.5t-4.5 -12.5q-40 -97 -63 -193q-4 -16 -10.5 -48.5 t-10.5 -47.5q-12 -40 -12 -81q0 -15 2 -30q1 -22 13.5 -41t31.5 -30q7 -4 21.5 -12.5t21.5 -12.5q2 -1 8 -2.5t9.5 -2.5t8 -4t3.5 -6t-4 -8q-17 -19 -72 -24q-15 0 -51 -4q-22 2 -56 10q-47 10 -71 37q-18 18 -27 29q-10 10 -16 26q-7 16 -7 28z" />
<glyph unicode="l" horiz-adv-x="546" d="M68 121v16q0 55 20 135q24 92 82 250q31 80 74 215q98 297 137 412q10 31 26.5 91.5t20.5 74.5q2 6 9 28t10 32.5t7 31t3 33t-6 27.5t-15 26q-9 10 -33 14t-32 13q5 22 71 22q8 1 24 2q14 2 24 2h10h13q13 0 24 -4q24 -10 41 -16q10 -6 28 -37q12 -24 25 -6q2 6 8.5 15.5 t7.5 12.5q10 26 25 21q8 0 8 -8q0 -9 -10 -29q-42 -85 -70 -184q-16 -60 -37.5 -126.5t-49.5 -148t-42 -125.5q-7 -20 -44 -139t-73.5 -230t-54.5 -153q-10 -29 -27 -108q-1 -6 -8.5 -19t-9.5 -20q-5 -40 -8 -52q-3 -27 -3 -49q0 -34 7 -55q16 -44 60 -49q5 -1 11 -1 q37 0 62 32q9 11 41.5 58t54.5 71q2 2 6.5 7.5t7 8t8 5.5t9.5 -1q6 -14 -12 -37q-6 -7 -14.5 -21.5t-10.5 -17.5q-19 -27 -33 -43q-2 -3 -10 -18t-14 -21q-6 -4 -14.5 -14t-14.5 -14q-3 -2 -17 -12t-20 -17q-2 -2 -7.5 -8.5t-10.5 -10.5t-10 -6q-12 -5 -46 -10 q-15 -3 -30 -3q-30 0 -62 10q-48 16 -78 49q-34 38 -38 98z" />
<glyph unicode="m" horiz-adv-x="1456" d="M39 135q29 140 37 170q3 9 6 26t6 25q11 32 12 41q5 31 38 117q32 86 54 162q14 48 14 79q0 18 -5 31q-6 15 -17 24.5t-22 12t-22.5 3t-19.5 0.5t-12 2t-0.5 9t15.5 21q26 30 77 30q11 0 23 -1q48 -5 66 -13.5t51 -44.5q13 -13 17.5 -39.5t4.5 -45.5t3 -19q7 0 20 20 q15 22 74 72q63 51 127 84q48 19 75 19h5q42 0 96 -35q37 -27 54 -75q15 -43 15 -88v-11q0 -32 11 -31q2 0 6 2q6 3 12 13t8 12q12 11 31.5 35t30.5 36q72 72 160 127q62 39 121 39q27 0 53 -8q79 -36 88 -166q0 -79 -6 -104q-20 -73 -25 -84q-7 -34 -42.5 -142t-59.5 -161 q-4 -12 -14.5 -36t-14.5 -36q-22 -63 -25 -88q-3 -22 4 -49q11 -19 35 -25q25 -5 56.5 18.5t54.5 55.5q34 48 49 78q14 23 20 28q3 6 19 9q8 0 8 -5q-2 -12 -7.5 -24t-15 -27.5t-12.5 -21.5q-9 -17 -30.5 -46t-28.5 -40q-3 -4 -14.5 -18.5t-21.5 -25t-19 -16.5 q-44 -24 -86 -24h-9q-41 3 -80.5 31t-56.5 65q-13 28 -13 62q1 1 1 3q0 36 4 53t16 62q6 30 40 172.5t42 163.5q13 32 35 117q3 14 14.5 46t14.5 50q9 23 5.5 51t-32.5 23q-33 -4 -84 -41q-7 -5 -20 -17.5t-17 -15.5q-29 -24 -41 -39q-10 -13 -30.5 -36.5t-30.5 -35.5 q-4 -7 -15.5 -18t-15.5 -16q-6 -5 -13 -16.5t-9 -14.5q-29 -33 -54 -68q-16 -25 -22.5 -46t-17 -65t-29.5 -98q-15 -34 -31 -77q-30 -85 -29 -159v-22q2 -22 18 -22q20 0 63 33q45 35 48 36q31 8 -2 -33q-3 -4 -9 -10q-4 -5 -5 -6q-34 -53 -70 -73q-9 -5 -18.5 -8 t-22.5 -4.5t-19.5 -2t-23 -1.5t-20.5 -1h-4q-42 0 -86 37q-23 21 -23 62v10q3 46 19 96q13 38 75 223q5 17 15.5 65.5t15.5 65.5q12 33 17 54q6 27 14 51q7 23 25 102q0 1 2 8.5t2 9t1.5 9t2 10.5t1 9.5t0 10t-1 9.5t-2 9.5t-3.5 8t-5 8.5q-13 14 -35 14q-45 0 -128 -59 q-63 -47 -80 -65q-11 -12 -22.5 -26.5t-24.5 -32t-21 -27.5q-40 -50 -100 -201q-1 -4 -4 -19t-6 -22q-3 -6 -14 -45.5t-27.5 -96.5t-26.5 -91q-17 -43 -17 -79v-2q0 -38 31 -55q9 -9 29 -12q2 -1 14 -1t23 -0.5t12 -2.5q2 -3 -3 -7t-12 -8l-7 -5q-13 -15 -26 -21t-36.5 -9.5 t-36.5 -6.5q-44 0 -67 4q-40 5 -61 32q-21 26 -21 56q0 27 4 57z" />
<glyph unicode="n" horiz-adv-x="1015" d="M44 110q-2 9 -2 20q0 16 4 38q6 34 22 82q4 13 17 46.5t17 51.5q33 142 80 256q31 81 35 96q8 25 4 41q-1 3 -4.5 20t-7.5 25q-3 4 -12.5 16t-12.5 19q-2 3 -6.5 7t-7 8t-2.5 8q-1 8 8 12.5t22.5 5.5t25 1t18.5 -1q6 0 20 -1t21 -1q5 -1 11 -4t13.5 -7.5t11.5 -6.5 q52 -27 66 -60q4 -3 7.5 -13t8.5 -13q4 1 8 4t6 5.5l6 7.5t5 7q46 50 70 74q23 21 88 45q71 23 105 24q3 0 5 -1q43 -3 82.5 -23.5t65.5 -54.5q32 -46 41 -76q7 -20 7 -47q0 -23 -5 -51q-4 -21 -27 -88q-55 -193 -82 -250q-28 -73 -41 -92q-13 -52 -30 -97q-6 -16 -8 -24.5 t-1 -16.5t0 -26v-7q0 -49 41 -65q10 -3 20 -2q23 0 45 12q32 18 58.5 54t44 67t33.5 66q18 37 23 49q4 22 10 31q6 7 14.5 9t11.5 -9q0 -6 0.5 -11.5t-0.5 -11.5q-1 -11 -4 -23.5t-5 -21t-8 -22t-9 -20t-11 -21t-11 -19.5t-13 -21t-12 -20q-30 -52 -60 -78q-46 -39 -106 -45 q-11 -1 -22 -1h-11q-17 1 -30 2.5t-27.5 5.5t-24.5 7.5t-20 8t-16 7.5t-11 6l-6 3q-43 54 -43 92q0 16 1.5 34t3.5 30.5t7.5 33.5t8 29.5t10.5 33.5t10 30q10 30 37 116.5t37 116.5q6 18 20.5 49t19.5 45q7 18 23 55t23 56q9 22 13 44.5t1.5 45t-18.5 38t-44 17.5 q-8 1 -15 1q-33 0 -71 -11q-14 -4 -27 -12t-28 -19t-24 -16q-23 -17 -25 -24q-3 -6 -12 -15t-11 -14q-7 -16 -25.5 -42t-25.5 -40q-25 -51 -39 -72q-33 -47 -45 -69q-32 -63 -53 -148q-6 -19 -20 -53.5t-19 -48.5q-45 -114 -47 -193q0 -56 23 -63q2 -2 6.5 -4.5t6.5 -6 t1 -8.5q-13 -18 -45 -22q-15 -3 -29 -3q-33 0 -61 15q-25 12 -33 25q-2 3 -15 20t-16 27t-7 34z" />
<glyph unicode="o" horiz-adv-x="950" d="M66 307q-2 36 -2 63.5t2 45.5q9 57 30 108q46 109 66 138q31 53 84 106q19 19 58 49.5t56 46.5q12 10 33 19.5t37 15t42.5 13t35.5 10.5q42 12 87 12q35 0 73 -8q86 -18 145 -62q57 -45 80 -110q4 -13 11.5 -37.5t10.5 -34.5q13 -56 13 -113q0 -24 -2 -49 q-3 -12 -7 -51.5t-12 -62.5q-36 -96 -82 -173q-32 -52 -127 -143q-11 -10 -23 -19t-18 -12.5t-21 -11.5t-18 -10q-35 -21 -90 -35q-62 -17 -118 -17q-52 0 -99 15q-71 23 -102 47q-41 25 -72 76q-3 5 -16.5 25t-20.5 33t-12 28q-14 31 -22 98zM225 207q11 -66 27 -103 q13 -30 59 -56q41 -23 73 -23h7q39 3 90 20q19 7 76 43q9 6 18 16t13.5 15.5t15 20.5t12.5 18q28 38 46 84q29 74 57 178q2 10 7 27.5t7 23.5q1 8 7 22t8 19q4 16 6 35t3.5 42.5t2.5 35.5q2 18 2 36q0 29 -5 61q-8 52 -30 89q-17 28 -28.5 43t-33.5 29t-51 16q-12 2 -25 2 q-65 0 -134 -57q-64 -60 -95 -101q-6 -8 -13.5 -25t-10.5 -22q-4 -8 -70 -172q-34 -82 -41 -213q-2 -26 -2 -52t2 -52z" />
<glyph unicode="p" horiz-adv-x="995" d="M-218 -512q1 6 4 11t5 7q5 9 23 31q2 2 26 51q79 152 158 404q38 119 76.5 234t56.5 171q17 54 42 128.5t34 103.5t16.5 73.5t7.5 92.5q0 23 -7.5 37.5t-26.5 33.5q-3 3 -15 7.5t-19.5 8t-11.5 11t9 18.5q11 11 26 14q10 2 17 2q5 0 9 -1q11 -2 31.5 -8t26.5 -7 q61 -11 90 -34q26 -20 43 -50q2 -3 5 -57q1 -23 5 -23q1 0 3 1q6 6 17.5 18t17.5 18q49 61 71 74q34 25 90 47q31 13 68 13q15 0 32 -2q55 -8 93 -37q4 -3 20 -14.5t25.5 -20.5t15.5 -19q3 -5 13.5 -15.5t17 -20t8.5 -19.5q2 -6 10.5 -16t10.5 -15q1 -4 5 -12.5t6.5 -16 t2.5 -12.5q1 -6 12 -51q1 -9 2 -27.5t2 -27.5q0 -51 -8 -92q-3 -20 -15 -56.5t-15 -52.5q-5 -22 -10.5 -37t-10 -22.5t-14.5 -24t-19 -33.5q-11 -26 -22 -45q-1 -2 -12.5 -15.5t-12.5 -20.5q-1 -3 -10.5 -12t-11.5 -11q-4 -5 -13 -19.5t-16 -21.5q-7 -6 -33 -23 q-5 -3 -26 -24q-28 -25 -66 -45q-34 -21 -81 -31q-32 -6 -60 -6q-15 0 -29 2q-37 4 -48.5 5.5t-44 8t-48.5 14.5t-36.5 24t-33.5 38q-24 27 -24 68q-16 -43 -33 -87l-25.5 -66t-11.5 -32q-2 -7 -12.5 -29.5t-12.5 -35.5q-1 -9 -14 -39q-11 -37 -14 -45q-16 -31 -30.5 -97 t-16.5 -73q-7 -25 -10.5 -51t4 -56t30.5 -36q5 -2 26.5 3t36 8t17.5 -3q0 -14 -23 -23q-22 -22 -49 -22q-32 0 -98 12q-24 5 -49.5 23t-32.5 40q-1 2 -4 7.5t-5 7.5t-6.5 4.5t-8.5 -2.5q-6 -2 -12 -11t-7 -10q-4 -4 -19.5 -27t-31.5 -30q-2 -1 -14 -9q-11 -7 -17 -7h-2 q-6 1 -9 5q-1 3 -1 6q0 1 1 3zM271 193.5q0 -36.5 18 -73.5t51 -48q39 -17 84 -17q4 0 8 1q50 1 90 22q4 2 13.5 8.5t15.5 7.5q3 1 12 10q3 2 12 6t11 5q22 11 35 24q3 3 9 8.5t9 8.5q2 2 7 9.5t9 10.5q22 13 43 62q59 100 82 188q11 46 15.5 67t11.5 66q6 39 6 67v7 q-1 29 -9 65t-26 64q-1 2 -11 19t-15 26q-4 7 -39 24q-18 10 -43 21q-9 -1 -28.5 -2t-29.5 -2q-8 -1 -16 -3t-17 -6.5t-14 -8t-15.5 -10t-14.5 -9.5q-18 -11 -38 -31.5t-30 -38.5q-6 -12 -24.5 -37.5t-24.5 -39.5q-25 -49 -41 -101q-12 -45 -49.5 -141.5t-55.5 -161.5 q-1 -30 -1 -66.5z" />
<glyph unicode="q" horiz-adv-x="1003" d="M68 143q-3 29 -3 57q0 64 17 122q5 15 16.5 46t16.5 46q5 17 19.5 47t19.5 45q9 23 51 86q29 45 71 90q6 6 20 21t24 27t16 24q14 12 39 37q23 21 45 34q68 49 186 90q21 7 66 14t69 7q46 -3 101 -31q22 -10 41 -22q2 -2 9.5 -6.5t13 -8.5t7.5 -8q0 -1 6.5 -6.5t8.5 -5.5 q7 -1 15.5 -11t12.5 -18q19 -26 26 -65q3 -15 3 -31q0 -28 -8 -61q-7 -25 -25 -84.5t-28 -100.5q-40 -167 -60 -223q-9 -24 -18 -51q0 -1 -3.5 -18t-8.5 -25q-7 -18 -19.5 -55t-19.5 -54q-5 -17 -16.5 -50t-16.5 -50q-6 -12 -21 -47h-2q0 -18 -8 -31q-4 -14 -21 -58.5 t-22 -62.5t-15.5 -54.5t-15.5 -55.5q-1 -5 -5 -17.5t-5.5 -19.5t-3 -17t0.5 -18.5t7 -15.5q9 -15 29 -26t39 -11q31 -2 6 -20l-20 -11q-17 -5 -39 -5q-27 0 -60 7q-27 6 -76 37q-5 3 -9 10.5t-7 14t-6.5 11t-8.5 3.5t-12 -10q-5 -5 -17.5 -27t-25.5 -29q-19 -15 -34 -6 q0 7 3.5 12.5t10 11.5t8.5 9q28 28 33 41q6 8 14.5 24.5t9.5 18.5q8 14 14 30t13 39t10 33q12 36 37.5 111.5t36.5 111.5q14 42 35.5 121t30.5 109q8 16 7 32q-1 7 -7 3q-6 -3 -14.5 -15t-10.5 -14q-19 -24 -63 -68q-35 -31 -83.5 -64.5t-84.5 -47.5q-1 0 -17 -6.5t-26 -6.5 q-46 -5 -76 -5q-14 0 -25 1q-22 3 -47 11q-24 9 -45 18q-36 15 -76 59q-4 5 -7.5 12t-7 17t-5.5 14q-6 15 -10 39zM220 178q4 -47 34 -90q23 -33 61 -51q22 -8 51 -8q2 0 4 1q32 0 56 7q26 6 55.5 25t46.5 35.5t45 45.5q42 46 62 70.5t41 62.5q50 86 94 179q12 26 21.5 56 t20 72.5t15.5 59.5q1 5 9 37.5t10 50.5q2 15 1.5 42t0.5 42q0 29 -45 49q-47 22 -83 22q-7 0 -13 -1q-109 -15 -177 -94q-9 -10 -33 -36.5t-33.5 -37.5t-26 -32t-31.5 -42q-14 -19 -28 -42.5t-23 -40t-24 -46.5t-22 -43q-2 -4 -21 -38t-24 -52q-4 -11 -12.5 -34.5t-14 -41.5 t-8.5 -35q-9 -35 -9 -71v-21z" />
<glyph unicode="r" horiz-adv-x="774" d="M76 287q3 12 10 33t10 32q5 16 31.5 96t38.5 125q3 13 27 88.5t30 116.5q1 7 1 14q0 37 -29 60q-5 4 -22 6.5t-29 7.5t-11 17q0 6 2 11t6 7.5t7.5 4.5t9.5 2.5t9 0.5h10h9q13 4 29 4q33 0 78 -16q32 -11 76 -55q13 -11 26 -37q1 -3 4 -6.5t4 -5.5q6 0 21 10 q76 89 133 108q2 1 18 6.5t25 6.5q25 7 46 7q0 -1 2 -1q22 0 48 -15q19 -11 33 -16q31 -11 68 -59q4 -7 13 -20.5t13 -20.5q13 -26 13 -60q-3 -49 -21 -96q-3 -8 -8 -15t-9.5 -11.5t-12.5 -10.5t-12.5 -8.5t-15 -8t-14.5 -7.5q-22 -12 -41.5 -12t-35.5 12q-19 13 -24 36 t3 44q9 28 45 57q43 26 43 67v5q-8 77 -57 100q-10 4 -29 4.5t-45 -4.5q-10 -2 -35 -10q-4 -1 -9.5 -7.5t-8.5 -7.5q-12 -2 -33 -20.5t-24 -20.5q-26 -18 -56 -61q-14 -17 -25.5 -40.5t-17.5 -41.5t-14.5 -48.5t-13.5 -45.5q-7 -20 -29.5 -79t-32.5 -91q-6 -20 -27.5 -80 t-29.5 -94q-3 -11 -19 -88q-4 -19 -5 -33q0 -25 14 -37q17 -15 59 -23q4 -1 20.5 -2t27.5 -4t11 -12q0 -4 -2 -6.5t-4.5 -3.5t-6 -2t-5.5 -2q-17 0 -43 -13q-39 -20 -88 -24q-10 -1 -19 0q-39 0 -75 14q-58 29 -58 128q0 62 23 151z" />
<glyph unicode="s" horiz-adv-x="759" d="M33 240q19 15 44.5 18.5t47.5 -8.5q38 -23 41 -70q1 -20 -8.5 -52.5t-10.5 -37.5q-3 -27 4 -39t31 -18q9 -2 21 -2q28 0 76 10q47 10 94 57q20 17 30 37q17 34 19 41q6 26 6 50q0 28 -8 53q-14 33 -14 43q-2 4 -25 38q-8 14 -24.5 39t-24.5 39q-8 12 -33 45.5t-37 52 t-24 49t-13 58.5q0 28 6 55q6 31 30 69t52 60q51 45 105 74q31 15 45 19q57 10 74 10q32 0 49 -1t43 -10t45 -26q2 -2 19.5 -17t21.5 -20.5t12 -21t12 -35.5q2 -14 2 -28q-1 -27 -9 -51q-14 -37 -56 -40h-6q-36 0 -58 37q-16 20 -17.5 43t5.5 47q4 15 4 27q0 30 -24 47 q-15 12 -40 12q-21 0 -48 -8q-28 -8 -68 -58q-27 -37 -27 -106q3 -49 24 -89.5t60 -90.5q63 -80 86 -152q9 -28 17 -98q1 -9 1 -18.5t-0.5 -16t-3.5 -18.5l-4 -16t-6 -18.5t-6 -17.5q0 -1 -6 -17t-12.5 -28.5t-14.5 -23.5q-5 -7 -10.5 -13t-11.5 -11.5t-10 -9.5t-11 -9 t-10 -7t-11.5 -6.5t-10.5 -5.5l-12 -6t-11 -6q-67 -33 -92 -37q-71 -13 -112 -13q-12 0 -21 1q-98 12 -166 80q-2 3 -9.5 13t-12 16.5t-10 16.5t-7.5 19q-2 6 -2 12q0 62 31 89z" />
<glyph unicode="t" horiz-adv-x="565" d="M53 795q5 18 41 18q14 4 47 4h125q5 0 13 0.5t10.5 0.5t6.5 2t6 6t5 12q4 10 25.5 69.5t25.5 69.5q12 40 12 58q0 6 -1 9q-1 6 -11 16.5t-10 16.5q-1 7 3 11t12 4t13.5 -0.5t15.5 -2.5l9 -2q65 -10 91 -59q2 -2 5.5 -7.5t5.5 -8.5t6 -2.5t9 6.5q2 3 7.5 13t11 17t12.5 9 h3q8 0 7 -12q0 -24 -29 -95q-1 -3 -9.5 -29t-17 -49.5t-11.5 -27.5q-9 -12 -9 -17q0 -6 70 -6h61q7 3 31 1t27 -11l-4 -14q-9 -12 -24 -16.5t-34 -4.5h-20q-7 0 -21.5 -2t-21.5 -2q-87 0 -94 -10q-40 -70 -107 -246q-3 -8 -9 -24.5t-9 -24.5q-2 -4 -7 -22.5t-10 -26.5 q-12 -20 -37 -101q-4 -12 -14 -37t-15 -38t-11.5 -33.5t-10.5 -39t-6 -38.5q-1 -6 -1 -12q0 -37 26 -66q19 -21 40 -21q12 0 25 7t26.5 17t22 16.5t23 21.5t18 18.5t21 23t18.5 20.5t11 17.5t19.5 26t16.5 5.5q5 -15 -14 -41q-5 -6 -13.5 -19.5t-13.5 -19.5q-23 -20 -63 -70 q-25 -20 -33 -24q-11 -7 -16 -15q-4 -2 -11.5 -7t-11.5 -7q-6 -3 -21 -11.5t-26 -12.5t-24 -5h-10q-41 0 -83 21q-75 41 -75 151q0 81 41 199q20 59 73 199q13 34 29 62.5t29 64.5q28 69 28 85q0 18 -55 22q-27 2 -45 2q-23 0 -33 -3q-13 -1 -24 -1q-50 0 -58 22z" />
<glyph unicode="u" horiz-adv-x="1032" d="M68 188q12 107 55 211q1 4 16 45t21 62q6 16 14.5 32.5t15.5 36.5q50 127 64 191q8 21 8 37q0 23 -16 35q-17 17 -37 14q-2 -1 -10.5 -3.5t-12.5 -3.5t-10 0t-10 5q2 11 10 17.5t14 8.5t19 5q12 2 39 9t39 9q10 1 19 1q38 0 59 -21q16 -11 26 -27q21 -28 31 -16 q4 6 10 25t14 26q6 4 10 4q8 0 8 -14q0 -15 -9 -46q-34 -83 -76 -194q-20 -61 -66 -172t-67 -182q-1 -3 -6.5 -26.5t-7.5 -32t-5.5 -29t-3.5 -32.5t1.5 -27.5t6.5 -26.5q3 -6 6.5 -10t9 -6.5t9.5 -4t11.5 -2t11 -0.5h12.5h12q8 0 45 16q47 19 119.5 79t114.5 104 q15 17 28 41q11 19 19 51q5 10 13 30.5t13 30.5q26 56 62 170q6 17 18.5 52t18.5 53q1 4 7 23t7 28q8 16 -4 39q-12 35 -45 37q-24 6 -27 10q0 6 -1 8.5t5.5 6.5t9 5.5t9.5 4t8 2.5q43 12 88 12q59 0 86 -41q20 -28 39 16q11 22 12 23q12 8 18 4t3 -17q-1 -6 -8.5 -17.5 t-8.5 -18.5q-2 -8 -8 -26t-8 -26q-7 -20 -21.5 -58.5t-21.5 -57.5q-12 -36 -39.5 -110t-44.5 -126t-33 -110q-6 -20 -15.5 -51t-13.5 -46t-8 -36t-3.5 -39.5t5.5 -38.5q5 -31 33 -49q22 -15 48 -14q7 0 15 1q36 5 60 37q19 27 34 57.5t21.5 46t8.5 15.5l8 4t11 0q3 -1 2 -5 q0 -6 -5 -18q-1 -3 -6.5 -17t-7 -18.5t-7 -17t-9 -19t-10.5 -18t-13.5 -20t-16 -19.5t-20.5 -22q-47 -42 -105 -42h-6q-62 2 -115.5 30.5t-70.5 64.5q-11 22 -17 49q-3 26 -3.5 31.5t3.5 27t5 29.5q-174 -144 -277 -196q-56 -27 -88 -27h-4q-42 0 -82 29q-30 23 -46 67 q-13 37 -13 74v14z" />
<glyph unicode="v" horiz-adv-x="958" d="M61 868q0 16 19 25q29 13 79 13q13 0 27 -1q72 -3 113 -37q9 -2 37 -30q4 -3 8 6t17.5 26.5t35.5 28.5q6 1 13 4.5t10 5.5t6.5 1t5.5 -7q2 -5 0 -8.5t-10 -10.5l-8 -7q-10 -13 -28 -60.5t-21 -66.5q-5 -31 -5 -56q0 -14 -1 -28t-3.5 -30.5t-4.5 -27.5t-6.5 -30.5 t-6.5 -27t-8.5 -30t-7.5 -28.5q-5 -11 -7.5 -31t-3.5 -23q-6 -25 -20 -68t-22.5 -77.5t-8.5 -65.5q0 -6 -1.5 -28t-2 -32t0.5 -25.5t5 -26.5q10 -29 36.5 -60t41.5 -14q50 53 66 76q12 12 25 22.5t33.5 25t27.5 19.5q16 15 63.5 54t75.5 69q24 20 37 33q4 4 12 13.5t12 13.5 q43 36 99 141q22 61 22 102q1 29 -7 63t-16 54.5t-26 60.5t-23 52q-5 17 -5 32q0 33 26 54q38 41 72 41q8 0 16 -2q42 -14 70 -60.5t36 -99.5q-3 -2 -0.5 -20.5t2.5 -20.5q-4 -28 -10 -51q-6 -31 -28 -99q-9 -21 -23.5 -45.5t-25.5 -40.5t-31.5 -44.5t-28.5 -39.5 q-20 -31 -72.5 -83t-68.5 -70q-31 -31 -106 -86t-115 -101q-6 -7 -25.5 -26t-24.5 -25q-13 -13 -22.5 -33.5t-20.5 -31.5q-6 -6 -18 -6t-29 6q-15 10 -37 32q-27 15 -45 33q-63 49 -92 144q-17 57 -21 111q-2 18 -2 37q0 38 6 81q9 64 17.5 103t28.5 116q1 4 7 22t9 30l8 32 t5 34.5t-2 29.5t-10.5 24.5t-22.5 13.5q-12 3 -40 -3t-38 3q-19 18 -19 37z" />
<glyph unicode="w" horiz-adv-x="1259" d="M72 890q-2 4 -2 8q0 10 14 17q5 2 12.5 2t16 -1t12.5 -1q32 0 59 -8q46 -11 92 -35q5 -3 18 -19.5t25.5 -27t20.5 -4.5q5 3 10.5 14t7.5 13q3 4 25 26q23 14 33 9q5 -7 -2.5 -17t-7.5 -12q-19 -15 -41 -74q-17 -40 -31 -98q-5 -18 -9 -52t-8 -48q-6 -21 -8 -51.5 t-4 -43.5q-1 -12 -2.5 -34t-3.5 -40t-6 -34q-1 -5 -6.5 -29.5t-5.5 -34.5q-2 -19 -13 -55q-6 -18 -9 -51t-5 -43q-12 -54 -12 -84q0 -11 2 -19q8 -30 35 10q9 11 10 13q22 33 65 76q19 18 42.5 37.5t54.5 44.5t45 37q5 4 18.5 12t20.5 14q8 10 18 53q3 17 10 55.5t10 55.5 q7 36 18.5 98.5t18.5 98.5q0 2 4.5 23t5.5 28.5t3.5 26.5t2 29.5t-1.5 25.5t-6 27t-12 22q-6 10 -26 22q-1 0 -10 4.5t-11 8.5q-5 8 4 12t17 4q4 -3 11 -5t12.5 -2t14 0.5t11.5 0.5q39 0 84 -25q16 -8 32 -24q7 -6 16 -21t11 -18q4 -4 9 -17t10 -18q4 -2 6.5 -3t5.5 6t4 10 t2 8q0 2 1 9t1.5 12.5t2 14t3 15t4 12.5t6 9.5t7.5 4.5q4 0 7.5 1t5.5 -2.5t3 -5.5t1.5 -7t0.5 -8t-0.5 -8.5t-1 -8t-1.5 -7t-1 -5.5q-22 -110 -23 -112q-11 -47 -30 -95q-2 -6 -6 -14.5t-6.5 -16t-4.5 -14.5q-2 -19 -10 -35q-3 -8 -6 -25t-4 -22q-2 -8 -6.5 -25.5 t-6.5 -25.5q-3 -19 -11 -66t-11 -67q-2 -14 -8 -44t-10 -51t-7.5 -48t-2.5 -51t5 -44q2 -8 4 -12t5 -5t5.5 0t6 4.5t6 6.5t6.5 8t6 7q31 36 109.5 109.5t114.5 119.5q50 69 55 78q16 32 22 41q7 9 16.5 26.5t12.5 22.5q52 96 52 158q0 20 -5 37q-4 16 -17.5 44.5t-17.5 43.5 q-8 26 -8 53q0 23 6 45q13 51 41 68q16 9 37 9q24 0 53 -12q50 -22 64 -91q8 -38 7 -77q-1 -31 -5 -61q-12 -69 -35 -115q-15 -34 -22 -43q-5 -7 -14.5 -21.5t-14.5 -21.5q-4 -9 -11 -19.5t-11.5 -17t-14 -18t-12.5 -14.5q-6 -6 -16.5 -22t-16.5 -21q-7 -7 -32 -34t-42 -42 q-179 -144 -252 -231q-9 -10 -26.5 -36t-26.5 -36q-5 -7 -11 -10q-4 -2 -8 -2t-8 2q-10 2 -14.5 3.5t-16 8t-12.5 6.5q-6 2 -12 5.5t-11.5 9t-10 9t-10.5 11t-9 11t-9.5 12t-8.5 10.5q-19 21 -43 92q-8 32 -8 47q0 35 -7 43q-52 -11 -217 -199q-7 -7 -22.5 -31.5 t-28.5 -33.5q-6 -6 -14 -6h-2q-7 0 -15 4q-9 4 -14 7t-15 10.5t-12 8.5q-40 28 -63 82q-20 52 -23 99q-1 17 -1 34q0 44 6 82q3 22 11.5 62t10.5 51q3 17 7 36.5t9.5 43t8.5 35.5q3 18 12 59t13 69.5t3 59.5q0 52 -22 92q-8 18 -27 37q-5 4 -11.5 6.5t-16 4.5t-13.5 3 q-16 6 -22 22z" />
<glyph unicode="x" horiz-adv-x="1187" d="M18 154q1 4 4 19t5 22t7 17.5t11 16.5q27 27 68 27h8q36 -5 63 -61q6 -14 6 -34.5t-6 -47.5q-1 -9 -12 -35q-3 -7 -13 -21.5t-12 -23.5q3 -7 10 -11.5t18 -7t17 -3.5t20 -2l13 -1q17 -2 34 2.5t26 10t30 18.5q44 41 65.5 75t37.5 83q29 66 65 217q20 83 23 100 q3 18 12 51t12 51q9 52 21 105q7 38 7 64.5t-7 41.5q-19 41 -71 57q-23 7 -44 8q-24 0 -43 -11q-35 -17 -57 -40t-49 -65q-2 -3 -13.5 -26t-17.5 -31q-22 -41 -35 -53q-7 -7 -16.5 -7.5t-14.5 7.5q-7 15 13 45l18 36t29 50q36 46 76 80q41 38 92 38q19 1 36 1q43 0 76 -7 q46 -9 88 -37q52 -32 70 -67q16 -32 17 -39q0 -1 1 -3.5t1.5 -4.5t1.5 -4.5t2.5 -4.5t3 -3t4 -0.5t4.5 2.5q14 9 32.5 36.5t28.5 36.5q7 7 24 28t28 30q4 3 14.5 13t17.5 15q13 9 47 19q57 14 84 14h9q48 -6 94 -31q40 -24 59 -73q10 -24 10 -49q-1 -20 -7 -41 q-14 -46 -52 -78q-17 -13 -45 -15t-47 9q-43 19 -43 53q0 19 15 57q13 34 16 49q1 5 1 10q0 37 -32 60q-10 7 -21.5 8t-26 -4.5t-21.5 -9.5t-23 -13q-37 -23 -66 -61q-4 -5 -15 -18.5t-17 -20.5t-13.5 -19t-11.5 -22q-7 -14 -19.5 -45t-19.5 -45q-16 -37 -35 -113t-22 -86 q-12 -39 -23 -108q-20 -105 -20 -178q0 -24 2 -45q10 -83 70 -83q31 0 74 22q86 43 174 137q5 5 9 10q7 11 26 38.5t28 43.5q9 18 18 18q10 0 13.5 -7.5t0.5 -15.5q-18 -69 -104 -159q-56 -64 -142 -112q-61 -34 -112 -34q-21 0 -41 6q-45 11 -98 64q-15 15 -41 67 q-2 5 -4 23.5t-5.5 34t-9.5 18.5q1 17 -9 -1q-3 -6 -10 -21t-9 -17q-3 -6 -9.5 -18.5t-9.5 -18.5q-34 -65 -80 -92q-70 -40 -145 -40q-13 0 -25 1q-15 1 -28.5 4.5t-32.5 10.5t-27 10q-4 4 -24 19.5t-31.5 27t-17.5 23.5q-11 21 -11 46q0 18 6 38z" />
<glyph unicode="y" d="M-242 -399q-5 20 -5 36q0 30 18 46q14 14 22 19.5t23 9.5t30 -5q34 -13 50 -59q6 -36 6 -41v-21q0 -20 6 -28q16 -4 31 -4q27 0 51 12q37 18 76 55q32 29 62.5 79.5t45.5 98.5q9 22 17 51t12 48.5t12 56.5t10 49q11 58 15 217q10 181 10 216v5q-4 143 -10 215 q-2 50 -9 84.5t-28 67.5q-27 39 -66 39q-8 0 -25.5 -2t-25.5 -2q-20 13 -20 33q1 5 4.5 9t6.5 6.5t8.5 4t9 2.5t11 1.5t9.5 0.5h9.5h8.5q13 1 26 1q46 0 85 -9q50 -11 84 -35l6.5 -6.5t10 -9.5t13.5 -10.5t12.5 -7t11.5 -2t7 6.5q18 43 41 48q10 2 14 -6t2.5 -20.5t-4 -22.5 t-4.5 -15q-9 -31 -10 -63v-14q0 -28 3 -64q4 -46 5 -64q2 -8 2 -32q0 -20 -2 -51q-2 -69 -2 -83q-1 -14 -2 -41t-2 -41q0 -6 -3.5 -29.5t-2.5 -39.5q6 -1 13 7t11 17t9 21t6 14q5 14 18.5 40.5t18.5 39.5q44 97 75 156q95 190 170 299q17 27 45.5 48t57.5 28q8 3 18 3 q28 0 66 -22q0 -1 2.5 -5.5t5.5 -10t4 -6.5q10 -17 10 -37v-7q0 -29 -15 -50q-17 -25 -48 -31q-28 -9 -53 16q-9 8 -5 35.5t-4 34.5q-15 4 -35 -11t-42.5 -47t-39 -59t-36.5 -64q-3 -5 -20 -37t-25 -49q-41 -92 -88 -182q-17 -33 -46.5 -100.5t-45.5 -100.5q-7 -17 -21 -41 q-46 -90 -65 -145q-2 -5 -39 -82q-42 -91 -127 -239q-16 -27 -52.5 -71.5t-52.5 -58.5q-16 -12 -35 -29.5t-34 -27t-45 -22.5q-40 -21 -79 -21q-46 0 -89 29q-29 16 -35 31q-15 29 -19 47z" />
<glyph unicode="z" horiz-adv-x="905" d="M-2 0q0 8 8 22t16.5 27t20.5 28.5t21.5 27t18.5 21.5t11 13q22 27 66 76.5t67 75.5q51 58 101 102q47 44 100.5 111t93.5 110q18 23 68 80q17 20 28 37q9 5 14 16q4 8 -6 8q-5 0 -14 -3q-16 -2 -47 -2q-16 0 -33 1t-38 2.5t-33 2.5q-11 1 -39.5 4t-42.5 4t-37.5 1.5 t-43.5 -2t-40 -7.5q-48 -13 -63 -35q-4 -4 -8.5 -15.5t-8.5 -15.5q-12 -9 -15 1t-1 22q6 29 31 80q17 35 40 55q1 1 5 4.5t6 6t5 5.5t4 5.5t1 5t-3 4t-9 2.5q-5 1 -15.5 1t-15.5 1q-8 2 -11 8.5t5 11.5q6 3 13.5 3.5t17.5 -0.5t14 0h55h121q41 0 117 -5t106 -6q6 0 26 -1.5 t30.5 -2t26.5 0t28 3.5q3 1 43 18q14 6 24.5 6t8.5 -16q-2 -4 -5.5 -8.5t-7 -7.5t-8 -7t-6.5 -6q-15 -18 -33 -36q-54 -50 -80 -76q-3 -4 -30 -31t-39 -43q-12 -13 -36.5 -45t-35.5 -45q-132 -155 -291 -317q-10 -10 -29.5 -39.5t-33.5 -40.5q-25 -20 -9 -19h3q18 3 43 15 q20 5 46 5q20 0 44 -3q60 -6 102 -27q18 -9 80 -44.5t100 -51.5q3 -1 34 -14t48 -17q15 -1 32.5 -1t32 9.5t15.5 26.5q0 19 -9.5 41.5t-23.5 36.5q-26 26 -30 32q-7 7 -15 19q-2 4 -4 12t-4 12q-5 10 -5 21q1 18 17 40q26 34 54.5 34t59.5 -25.5t44 -62.5q14 -38 13.5 -69.5 t-13.5 -57.5q-14 -28 -36 -47.5t-58 -42.5q-5 -3 -16 -10t-19.5 -11t-17.5 -6q-22 -4 -64 -8h-7q-45 0 -124 23q-85 25 -113 30q-5 1 -64 17t-89 16q-31 0 -68 -13q-12 -4 -37.5 -13t-38.5 -13q-5 -3 -17 -11t-22 -13t-20 -7q-4 -2 -12 -10q-9 -7 -15 -10q-3 -2 -6.5 -2 t-7.5 2q-6 7 -6 16z" />
<glyph unicode="{" horiz-adv-x="1021" d="M127.5 759q9.5 7 28.5 9q33 7 100 33q18 9 46.5 28l37.5 25l35 25q13 15 24.5 35t19.5 35.5t18.5 44t15.5 42t16.5 49.5t15.5 48q16 32 37.5 98t34.5 96q50 144 80 191q29 62 73 110t99 60q51 17 104 26q16 8 59 6t48 -24q1 -5 -4.5 -8t-15 -4.5t-18.5 -1.5t-19 -0.5 t-13 -0.5q-19 -4 -55.5 -8t-50.5 -6q-39 -14 -68.5 -33.5t-52 -49.5t-36 -53t-35 -66.5t-36.5 -69.5q-15 -37 -28 -86q-9 -38 -35 -109t-35 -98q-11 -33 -37 -101q-22 -64 -41 -86q-27 -55 -49 -71q-7 -4 -33.5 -25t-42.5 -24q-14 -2 -42.5 -21.5t-20.5 -32.5q3 -5 7 -9.5 t11.5 -9t8.5 -5.5q4 -5 10 -14.5t10 -14.5q20 -25 37 -92q1 -13 1 -26.5t-0.5 -23.5t-4.5 -26t-5 -22.5t-7.5 -25t-8 -22.5t-9.5 -25.5t-9 -23.5q-4 -11 -17.5 -45.5t-19.5 -52.5q-6 -23 -16 -47q-14 -32 -17 -61q-4 -19 -15 -66t-16.5 -81.5t-5.5 -67.5q8 -66 31 -89 q24 -30 72 -59q8 -5 24 -12t28 -14t21 -15q20 -20 11 -35q-13 0 -41 19q-13 8 -43.5 26t-46.5 29q-56 45 -72 76q-20 26 -22.5 75.5t2.5 81.5q3 41 18 78q3 10 9.5 42t12.5 50q7 24 20.5 66t23.5 77t16 66q1 4 6 19.5t6 20t5 18.5t5.5 20t4 18.5t3 20t1 19t0 20t-2 19 t-4.5 20.5q-2 6 -5 16t-4.5 14t-4.5 10.5t-8 12t-12 12.5q-14 8 -30 14t-38.5 13t-32.5 10q-21 13 -11.5 20z" />
<glyph unicode="|" horiz-adv-x="206" d="M80 848v209q0 25 3.5 199.5t2.5 220.5q0 19 -1 64t-0.5 78t3.5 64q5 33 8 37q6 8 13.5 0.5t7.5 -14.5q5 -81 4 -96q-1 -21 1.5 -131t2.5 -117q0 -358 -2 -395q-2 -45 0.5 -102t1.5 -107q-2 -82 2 -244q2 -64 2 -227v-142q0 -33 2.5 -87t-0.5 -64q-2 -45 -2 -135 q0 -46 -2 -66q0 -48 -10 -63q-27 0 -27 73v125q1 18 0 54t0 53q4 77 2 115q-4 152 -4 229q0 39 -3 116.5t-3 116.5q0 26 -1.5 108.5t-0.5 127.5z" />
<glyph unicode="}" horiz-adv-x="993" d="M4 -223q-11 7 6 16q10 4 35 4q8 1 29 0.5t28 1.5q77 3 158 76q38 35 59 82q7 13 32.5 46t31.5 54q4 16 10.5 32.5t16.5 38t14 30.5q25 69 29 104q0 5 0.5 19t1.5 21.5t2.5 18.5t5 20.5t8.5 18.5q3 9 8.5 30t10.5 34.5t12 21.5q29 69 37 93q11 30 26 45q26 35 35 49 q10 12 39 29t43 30q46 42 78 51q8 4 9 9.5t-4.5 11.5t-12 11.5t-14 11t-9.5 8.5q-33 26 -49 59q-19 45 -10 94q0 8 -1.5 33.5t0 42t7.5 33.5q6 53 20 102q3 17 8.5 35t14 40t12.5 32q13 32 21 104q13 46 20 103q19 112 -49 196q-6 7 -17.5 13.5t-18 9.5t-24 9t-20.5 7 q-1 0 -14.5 3t-18.5 9q-7 8 1 15.5t20 11.5q9 3 22.5 -0.5t23 -8t23 -12.5t17.5 -10q39 -19 80 -74q46 -72 26 -206q-1 -19 -10.5 -54t-11.5 -51q-2 -21 -10.5 -59.5t-10.5 -52.5q-4 -17 -19 -46t-20 -45q-7 -60 -20 -102q-2 -26 -2.5 -32t2 -30.5t2.5 -31.5q-6 -19 -3 -45 t13 -43q25 -35 60 -56q6 -2 25 -4.5t33.5 -8t18.5 -17.5q-1 -10 -8 -14.5t-19 -6.5t-16 -4q-11 -6 -39.5 -17t-42.5 -20q-33 -13 -77 -57q-7 -6 -19 -19.5t-16 -17.5q-3 -4 -9.5 -14.5t-12 -17.5t-11.5 -11q-16 -25 -37 -98q-22 -45 -33 -113q-8 -20 -18 -55.5t-12 -40.5 q-11 -24 -29 -98q-4 -38 -20 -54q-17 -41 -19 -47q-9 -26 -53 -102q-2 -5 -9.5 -20.5t-11.5 -22.5t-13 -17t-19 -16q-11 -9 -35 -36t-41 -38q-11 -4 -41 -17t-49 -20q-26 -4 -36 -4t-33.5 3t-33.5 4q-36 0 -53 10z" />
<glyph unicode="~" horiz-adv-x="1181" d="M49 610q-17 6 0 58q2 8 23 45q26 37 59 65q28 28 82 51q24 10 38.5 11.5t51.5 1.5q29 -2 115 -35q25 -10 74 -25.5t86 -29.5q34 -12 120 -39q150 -43 203 -33q62 11 98 47q24 24 38.5 39.5t21 23t19.5 23.5t24 29q9 25 31 26q3 -1 4 -2q5 -9 1.5 -21t-6.5 -16l-12 -16 q-40 -55 -94 -115q-59 -67 -121 -82q-70 -17 -186 7q-55 11 -82 18t-57 17.5t-52 17.5q-83 25 -145 51q-15 5 -48 21t-44 20q-3 1 -11.5 4.5t-12 4.5t-11.5 3.5t-13 3t-12 1t-13.5 -1t-12.5 -3.5q-30 -12 -72 -49q-36 -36 -45 -65q-2 -6 -4.5 -14t-4 -13t-4.5 -11.5t-5 -9 t-5.5 -6.5t-7 -3t-8.5 1z" />
<glyph unicode="&#xa1;" horiz-adv-x="643" d="M96 -444q-31 65 19 188q5 15 16 45t16 45q7 19 20.5 52.5t18.5 47.5q10 27 37.5 92.5t40.5 102.5q6 18 16 51t19.5 60t19.5 51q16 45 41 134t39 132q4 18 15 35.5t26 17.5q15 -7 -6 -80q-3 -20 -10 -57t-10 -57q-10 -55 -37 -219q-3 -15 -5.5 -52.5t-6.5 -56.5 q-13 -47 -27 -113q-39 -164 -45 -223q-1 -5 -1.5 -22t-2.5 -25q-8 -37 -10 -53q-13 -77 -39 -105l-8 -8l-8.5 -8.5t-7.5 -7t-8.5 -6.5t-8.5 -4.5t-10 -4.5t-10.5 -1.5t-12.5 -0.5q-51 7 -70 50zM418 918q-4 32 15.5 55t51.5 31q36 9 70 -15q18 -14 23 -20q4 -28 4 -41 q6 -46 -19 -56q-7 -2 -15.5 -11t-12.5 -11q-7 -7 -31 -12q-39 -9 -60 22q-26 35 -26 58z" />
<glyph unicode="&#xa2;" horiz-adv-x="788" d="M12 262v88q0 100 49 198t132 206q3 4 40 41q66 52 121 79.5t131 38.5q15 3 25.5 5t14 3l7 2t6.5 1h11l12 34q20 57 35 91q7 33 27 24q11 -5 8 -10q1 -7 -3.5 -25.5t-4.5 -25.5q-3 -17 -13.5 -41.5t-17.5 -48.5q71 0 111.5 -30.5t72.5 -90.5q18 -42 8 -84q-10 -57 -49 -78 q-51 -26 -80 -10q-41 23 -43 61q0 10 5.5 19.5t18 22l13.5 13.5q34 50 21 82q-4 9 -8.5 15.5t-10 11t-9 8t-11 5t-10 2.5t-11 0.5t-10 -0.5t-10.5 -1l-10 -2q-51 -136 -103 -295q-42 -132 -51 -145q-2 -16 -12 -45q-4 -18 -17 -43q-4 -22 -46 -162t-46 -160 q30 -16 71.5 -16.5t89.5 14t102 53.5t102 97q1 1 9.5 11t16 17.5t16.5 13.5t15 3q3 -10 -12 -31q-5 -6 -13.5 -19.5t-13.5 -19.5q-69 -72 -135 -119q-32 -22 -119.5 -42t-146.5 2q-32 -105 -56 -173q-6 -18 -14.5 -22t-14.5 1l-5 5q-20 6 43 199q-104 37 -156 98 q-66 79 -72 174zM193 360q-11 -91 4 -190q15 -94 57 -133q25 98 78 262q10 27 21.5 73.5t35.5 110.5q7 18 30.5 89t39.5 106q3 15 36 93.5t37 94.5q-99 -26 -163 -108q-79 -100 -115 -187q-52 -132 -61 -211z" />
<glyph unicode="&#xa3;" horiz-adv-x="1253" d="M72.5 111.5q-0.5 26.5 5 54t16.5 62.5t21.5 64.5t23 65.5t19.5 60q5 15 45 121q8 20 20 65t21 68q17 46 18 49q10 15 9 30.5t-19 14.5q-16 -2 -107 -2q-13 0 -41 4q-25 4 -17 23q6 16 28 18q14 1 44 1t65.5 -0.5t43.5 -0.5q21 0 31 20q11 29 16 52q43 121 91 198 q88 143 104 166q75 111 217 209q81 60 162 74q130 24 219 -21q23 -9 49 -26q24 -30 25 -31q22 -33 22 -55q14 -44 -2 -97q-6 -25 -13.5 -35t-29.5 -24q-16 -13 -25.5 -16t-29.5 -2q-39 6 -60 41q-11 23 -10 34t10 35q1 6 15.5 26t15.5 27q3 24 -3.5 38.5t-27.5 31.5 q-10 10 -49 16q-42 6 -63 3q-21 -2 -58 -21q-29 -13 -81 -61q-17 -15 -33.5 -34.5t-27.5 -33.5t-30 -40.5t-28 -39.5q-27 -47 -68 -152t-55 -135q-31 -64 -37 -98q-15 -34 -16 -45q4 -4 7.5 -4.5t9 1t9.5 1.5q17 0 62.5 1t64.5 1q4 0 16.5 1t18.5 0t14.5 -3t12 -9t4.5 -18 q0 -9 -16.5 -11t-40 0t-27.5 1q-114 -4 -129 -4q-11 0 -27 -16q-2 -2 -14 -33q-13 -37 -62 -207q-12 -52 -21 -82.5t-24 -73t-28 -84.5q-6 -19 -13.5 -55t-9.5 -43q-10 -47 6 -76q20 -38 72 -55q63 -19 170.5 -26.5t205.5 8t113 55.5q6 16 10 22t9 25q1 4 24 104 q12 44 33 65t60 11q67 -17 59 -96q-11 -65 -78.5 -135t-134.5 -82q-34 -6 -147.5 -9t-192.5 1q-42 2 -110 2.5t-110.5 1.5t-89.5 7t-77 23t-45 46q-9 17 -9.5 43.5z" />
<glyph unicode="&#xa5;" horiz-adv-x="1341" d="M-288.5 -423q-0.5 39 28.5 73q32 36 90 0q34 -28 113 -47q97 6 135 23t104 91q53 74 65 93q29 49 113 180q6 137 5 155q-5 73 -1.5 171t3.5 114q0 18 1 57t1 58h-107q-11 1 -44.5 1.5t-51.5 2.5q-11 1 -19 9t-6.5 16.5t15.5 11.5q26 6 110 6q9 0 30 -1.5t38.5 -1.5 t30.5 3q-1 43 0 87.5t3 97t3 79.5q-6 0 -21.5 1.5t-23.5 0.5q-16 -2 -52 -2q-65 0 -96 4q-18 0 -24.5 15.5t14.5 21.5q15 4 33.5 4.5t43 -1t34.5 -1.5q5 0 21.5 1.5t25.5 0.5q4 0 13.5 0.5t17.5 0.5t16 -1q1 55 4 94q1 27 -3 128q-1 12 -1 18q-3 77 -10 107t-39 79 q-15 24 -76.5 40.5t-100.5 16.5l-3 3t-5 6.5t-2 7.5q2 4 7.5 7.5t10.5 5.5l5 1l23 4q23 4 71.5 4t105.5 -10q79 -14 116.5 -49.5t66.5 -108.5q6 35 17.5 62.5t24 45t32 29.5t33.5 18t38.5 9t37.5 3.5t38 0.5h8q1 -1 2 -3t3 -6.5t1 -8.5t-5 -7t-7 -4l-4 -1h-31.5t-32 -3 t-34.5 -9t-31 -18.5t-30 -30.5t-21.5 -46.5t-16.5 -64.5q0 -92 -2 -278.5t-2 -285.5q0 -18 -2 -118t-2 -140v-7v-17t1.5 -11t5 -7.5t9.5 -0.5q23 41 59.5 105.5t49.5 87.5q120 215 162 295q32 54 97.5 173.5t98.5 170.5q11 17 27.5 44t30 49t32 50t34.5 50.5t36.5 46.5 t39 41.5t40.5 32t43 21t45 6t47 -10.5q21 -8 28.5 -32t-3.5 -50q-8 -22 -36.5 -28.5t-61.5 -5t-75.5 -14t-72.5 -53.5q-71 -94 -270 -440q18 0 74.5 2.5t82.5 1.5q9 -1 47 -2t46 -2q13 -2 28 -9t15 -16q0 -18 -72 -18q-16 0 -35.5 -1t-38.5 -1q-8 0 -29 -1t-36 -1h-109 q-17 -29 -68.5 -118.5t-83.5 -145.5q86 4 132 2q195 0 219 -2q9 -1 29 -1t28 -1q12 -2 27.5 -11t15.5 -18q-1 -5 -7 -8t-16.5 -4t-19 -1t-18.5 0.5t-11 0.5q-16 2 -102 2h-178q-91 0 -125 -8q-60 -104 -158 -281q-74 -131 -135 -232t-143 -224.5t-155.5 -201.5t-127.5 -96 q-43 -14 -87 -21t-93 -2t-80 27q-28 34 -28.5 73z" />
<glyph unicode="&#xa7;" horiz-adv-x="1468" d="M51 -328q-39 96 10 187q17 35 72 39q44 3 72 -52q8 -20 8 -34.5t-11 -33.5t-22.5 -31.5t-25.5 -29.5t-21 -28q-22 -40 5 -79.5t71 -62.5q31 -16 68.5 -23.5t71.5 -7t73 0.5q307 12 373 233q15 80 10 107q-16 85 -68 168q-9 17 -35 44t-30 33q-13 16 -40 41t-34 31 q-21 19 -79.5 67t-88.5 76q-16 15 -33.5 33.5t-33 35.5t-30 38t-24.5 41q-46 98 -28 184q11 43 34 92q49 98 137 161.5t201 82.5q-21 45 -34 106t-5 101q9 39 35 92q49 98 140 162.5t204 83.5q64 10 168 -12t152 -62q103 -87 114 -186q8 -7 2 -54.5t-16 -60.5 q-15 -19 -46.5 -32t-53.5 -3q-45 20 -56 68q-5 24 10 93t-1 103q-25 66 -105.5 98.5t-152.5 14.5q-47 -13 -101 -51t-71 -84q-41 -103 -21 -197q19 -89 100 -157q107 -83 166 -119q80 -50 152 -139q66 -84 102 -191q31 -103 11 -201q-28 -113 -118 -197t-231 -130 q35 -116 15 -215q-11 -44 -34 -84t-51 -69.5t-67.5 -59t-73.5 -49t-79 -43.5q-42 -22 -152.5 -32t-189.5 -3q-71 0 -143 27.5t-122 76.5q-24 24 -49 92zM481 623q19 -89 101 -158q107 -83 166 -119q78 -49 151 -139q39 -53 64 -101q121 46 165 187q1 5 5 25.5t5 26.5t3 27 t-2 27q-16 85 -68 168q-9 17 -35 45t-30 33q-13 16 -40.5 40.5t-33.5 31.5q-13 12 -65 49.5t-101 83.5t-92 104q-47 -13 -101 -51t-71 -84q-41 -103 -21 -196z" />
<glyph unicode="&#xa8;" horiz-adv-x="675" d="M119 1673q-5 47 18 56q5 2 27 24q4 2 33 12q37 5 59 -22q25 -38 27 -60q4 -31 -16.5 -54.5t-53.5 -31.5q-34 -9 -68 15q-16 12 -22 20q-4 28 -4 41zM424 1673q-5 47 18 56q5 2 27 24q4 2 33 12q37 5 59 -22q25 -38 27 -60q4 -31 -16.5 -54.5t-53.5 -31.5q-33 -9 -67 15 q-18 14 -23 20q-4 28 -4 41z" />
<glyph unicode="&#xa9;" horiz-adv-x="1705" d="M395 1056.5q5 86.5 54 211.5q55 121 182 200q73 39 129.5 55.5t150.5 16.5q124 0 233 -59t175 -162q65 -101 65 -266q-4 -133 -79 -244t-193 -172.5t-250 -61.5q-66 0 -125 19q-255 103 -313 276q-34 100 -29 186.5zM437.5 1050q-1.5 -83 29.5 -169q21 -70 97.5 -138 t187.5 -110q66 -17 110 -17q122 0 232 55.5t179.5 157.5t69.5 224q0 139 -61 243q-59 103 -160.5 161t-218.5 52q-120 -6 -229 -57q-49 -26 -108 -86t-81 -115q-46 -118 -47.5 -201zM588 1016q10 67 18 82q38 110 142 198t223 88q128 0 174 -69q4 -2 7.5 -10t4.5 -9 q4 -16 4 -20v-25q-4 -12 -10 -24q-9 -20 -29 -20.5t-30 18.5q-13 22 -13 32q9 34 3.5 60t-42.5 39q-13 8 -57 8q-41 0 -72 -16q-22 -12 -38 -22.5t-23 -16.5t-26 -23.5t-31 -28.5q-30 -40 -45 -69q-27 -47 -48 -144q-17 -67 -16.5 -125.5t31 -105t86.5 -65.5q35 -10 39 -3 q42 4 100 37q52 49 84 103q5 10 9.5 14t7 1.5t4.5 -6t3 -7.5l1 -4q-40 -64 -52 -74q-76 -92 -176 -94q-39 0 -59 10q-39 4 -80.5 38t-67.5 75q-37 75 -26 178z" />
<glyph unicode="&#xaa;" horiz-adv-x="1024" d="M164 1032q12 74 14 82q20 58 44 100.5t69 92.5q36 40 86.5 68.5t120.5 56.5q11 2 69 8q17 1 72 -17q11 -4 27.5 -16t19.5 -14q20 -12 25 -42t-1 -58.5t-16 -51.5q-10 -28 -27.5 -82t-23.5 -72q-2 -5 -16 -46.5t-25 -63.5q-5 -20 -1.5 -35t22.5 -31q15 -1 27 -2t30 15 t43 53q0 5 11.5 13.5t15.5 -1.5q-3 -12 -13 -29t-12 -24q-55 -82 -121 -82q-15 0 -27.5 5.5t-18 11t-15.5 16.5q-12 10 -27 41q-1 2 -2.5 7.5t-2.5 10t-4 7t-7 1.5q-105 -74 -156 -90q-24 -10 -59.5 -4t-53.5 27q-26 18 -32 26q-17 17 -29 54q-8 51 -6 65zM266 948 q5 -28 30 -42.5t54 -4.5q56 15 111 60q28 17 37 40q1 2 12.5 24.5t15.5 39.5q9 33 30.5 94t29.5 90q6 10 13 31.5t9 26.5q13 26 13 43q7 44 -35 67q-57 0 -121 -39q-21 -14 -25 -18q-20 -15 -38.5 -35t-29 -33t-29.5 -47t-23.5 -42.5t-28.5 -53.5q-42 -118 -25 -201z" />
<glyph unicode="&#xab;" horiz-adv-x="1189" d="M52.5 464.5q-3.5 7.5 0.5 20.5q2 5 15 11q3 2 13 11.5t17 10.5q66 32 125 76q42 32 122 103t118 100q110 92 149 116q1 0 5.5 3t7.5 4t7.5 2t7 -1t4 -7.5t1.5 -14.5q-3 -15 -33 -35q-49 -38 -102 -82q-18 -17 -51.5 -42.5t-55.5 -47.5q-35 -35 -65 -59q-7 -5 -45 -36.5 t-66 -51.5q-70 -49 -86 -49q-10 -3 -24 -13q-2 -3 -2.5 -5.5t2.5 -5.5t6 -5t6 -4.5t4 -3.5q11 -8 38.5 -27t33.5 -24q19 -16 61 -45.5t60 -43.5q27 -22 73 -47q7 -5 53 -35t68 -49q50 -35 60 -43q27 -19 57 -49q1 -2 5.5 -7t7.5 -9t3 -8q0 -28 -35 -6q-1 2 -2 2 q-34 31 -65 53q-22 17 -70 48t-61 40q-7 6 -66 47q-8 6 -29.5 19.5t-35.5 23.5q-9 7 -56 35q-9 5 -27.5 21t-31.5 24q-20 12 -96 65q-2 2 -12 7.5t-13.5 13zM486.5 475.5q-3.5 7.5 0.5 20.5q2 4 4.5 5.5t6 3t4.5 1.5q3 2 15.5 15t19.5 14q17 11 54.5 34t59.5 39 q43 32 126 101.5t120 97.5q112 94 150 117l5 3q5 3 7.5 4t7 1.5t7 -1.5t4 -7.5t1.5 -14.5q-4 -16 -32 -35q-14 -11 -44 -32.5t-55 -42.5q-63 -46 -96 -76q-71 -71 -139 -121q-3 -2 -21.5 -15.5t-36.5 -25.5q-24 -16 -59 -37q-23 -12 -45 -30q-3 -3 -3 -5.5t2 -3.5t5 -3t4 -3 q41 -35 80 -61q8 -6 20 -15.5t21.5 -16.5t19.5 -11q12 -6 33 -22t31 -21q44 -34 70 -49q5 -3 51.5 -33.5t68.5 -50.5q50 -35 60 -43q3 -2 14.5 -9.5t17 -11.5t13 -12t12.5 -17q16 -11 16 -24q0 -5 -1 -8t-2.5 -4.5t-3.5 -2.5t-5 -0.5t-5 1t-5.5 2.5t-5 3l-4.5 3t-4 2 q-30 27 -66 53q-15 11 -70 45t-75 51q-17 15 -52 39q-8 6 -29.5 19.5t-35.5 23.5q-30 22 -55 35q-7 5 -26.5 20.5t-33.5 24.5q-9 6 -43 32t-53 34q-2 2 -12 7.5t-13.5 13z" />
<glyph unicode="&#xad;" horiz-adv-x="1089" d="M104 744.5q-6 18.5 15 23.5q16 4 33.5 4.5t41.5 -1t35 -1.5q8 0 42 -1.5t48 -0.5q12 2 60 2t61 -2q7 -2 49.5 -0.5t49.5 0.5q127 -9 182 -2q14 0 61.5 1.5t87.5 1.5t62 -3q9 -1 28.5 -1t28.5 -1q2 -1 14 -3.5t19.5 -6.5t7.5 -11q-1 -12 -27.5 -17t-44.5 -5q-16 2 -47 -2 q-10 -2 -61.5 -1.5t-61.5 -0.5q-22 0 -227.5 4t-236.5 -2q-8 -1 -25 1t-25 1q-22 -5 -49 -2q-32 0 -98 4q-17 3 -23 21.5z" />
<glyph unicode="&#xae;" horiz-adv-x="765" d="M66 1225q0 70 34 139q34 75 125 127q15 4 39 14t46.5 15t56.5 6h-2q79 5 152 -38.5t115.5 -119.5t35.5 -160q-7 -77 -35 -129q-44 -68 -115.5 -107.5t-148.5 -39.5q-52 0 -93 16q-111 30 -184 156q-26 66 -26 121zM96 1233q0 -51 29 -125q3 -4 15.5 -21.5t23 -29.5 t28 -28.5t42 -30t53.5 -23.5q38 -14 104 -14q65 0 119.5 37t89.5 98q37 64 37 121q0 110 -81.5 200.5t-182.5 83.5q-77 -3 -144 -40t-96 -105q-37 -91 -37 -123zM184 1081l7 1q7 0 15 1t17.5 8t14.5 19q3 8 9.5 24t10.5 25q1 4 6.5 19t7.5 30q1 2 6 16t9 31l12 48 q3 8 6.5 19t6.5 21.5t6 22t5.5 21t4.5 17t3 11.5l1 4l-41 2q-4 2 -4 4q0 3 1 4.5t2 2.5h1h41q7 0 27.5 0.5t31.5 0.5t31 -1.5t31.5 -4.5t26.5 -9.5t22.5 -15t12 -22.5t3.5 -32q-3 -24 -28 -42t-48 -18q3 0 9 -4t14 -14.5t12 -24.5q11 -40 0 -125q0 -22 12 -28.5t27 -1.5 q7 2 17 14.5t14 15.5q3 8 6 2q1 -3 0 -10q-17 -34 -37 -45q-15 -9 -49 0q-35 18 -35 84q0 5 1 21.5t1 29.5q0 23 -12 53q-20 22 -25 27q-8 6 -57 6q-14 -45 -18 -61q-18 -73 -21 -76q-13 -53 0 -64q3 -5 16 -4.5t15 0.5q0 -1 1 -1.5t2 -2t1 -4.5l-12 -6q-13 -4 -37 -2 q-8 0 -12.5 1.5t-7.5 3.5t-5 3q-3 2 -9 10t-5 9q-1 1 -1.5 0t-7 -6.5t-14.5 -10.5q-8 -6 -30 -6q0 -4 -9 3q-7 5 -2 7zM342 1305q12 0 31.5 1t38.5 2t36 12t23 32q5 15 -4 41q-5 18 -31 22q-2 2 -18 2h-45q-17 -61 -19 -69q-6 -26 -12 -43z" />
<glyph unicode="&#xaf;" horiz-adv-x="684" d="M116 1618.5q-6 18.5 15 23.5q16 4 36 5t47.5 -0.5t37.5 -1.5q14 0 59 1.5t82.5 1.5t59.5 -3q9 -1 28.5 -1.5t28.5 -1.5q2 -1 14 -3t19.5 -6t7.5 -11q-1 -12 -27.5 -17.5t-44.5 -5.5q-15 2 -47 -2q-10 -2 -61.5 -1.5t-61.5 -0.5q-137 0 -170 2q-17 3 -23 21.5z" />
<glyph unicode="&#xb0;" horiz-adv-x="544" d="M23 1303q0 29 18 73q47 96 100 127q54 30 127 33q64 2 138 -37q46 -30 83 -78q16 -23 27.5 -67t5.5 -70q1 -34 -9.5 -72t-23.5 -57q-64 -89 -145 -104q-81 -20 -139 0q-65 24 -111 66.5t-55 84.5q-2 12 -7 34.5t-7 36t-2 30.5zM63 1303q0 -6 17 -93q8 -34 46 -68.5 t91 -54.5q64 -21 131.5 7t108.5 86q28 36 29 107t-29 110q-33 45 -83 73t-106 25q-61 -3 -106 -29q-54 -31 -76 -82q-6 -15 -14.5 -43t-8.5 -38z" />
<glyph unicode="&#xb1;" horiz-adv-x="1275" d="M159 214q1 9 15 13q16 4 34.5 4.5t42.5 -1t34 -1.5q5 0 21.5 1.5t25.5 0.5q1 0 115.5 6t134.5 5q16 -2 52 -0.5t52 -1.5q9 -1 26.5 0t26.5 0q1 2 33 1t33 -1q10 3 64.5 0.5t66.5 -2.5q19 0 67 2.5t74 1.5q9 -1 29.5 -2t28.5 -2q11 -2 27.5 -12t17.5 -19q-2 -17 -72 -17 q-25 0 -83.5 -1t-96.5 -1q-11 0 -55 1t-74 1q-463 -6 -465 -6q-69 -3 -148 6q-11 0 -19.5 7.5t-7.5 16.5zM168 880q-2 11 2 17q14 14 33 18q162 5 209 3q41 -2 117.5 0.5t111.5 1.5q4 16 4 31.5t-2 29.5t-2 20q0 21 -1 61.5t-1 59.5q-3 58 0 113q1 9 -0.5 86t0.5 78 q3 10 18.5 9t20.5 -9q13 -16 14.5 -46.5t-2.5 -49.5q-6 -79 -2 -238q0 -10 0.5 -27t0.5 -31t-1 -26q0 -3 -0.5 -13t-0.5 -16.5t1.5 -15t6 -12.5t12.5 -4q25 -1 157 4q131 0 168 4q11 1 38 -0.5t38 0.5q1 0 6.5 -0.5t7.5 -1t7 -1.5t7.5 -2.5t5.5 -3.5t5 -5t2 -7 q0 -14 -6.5 -18.5t-22.5 -4.5t-20 -1q-79 -9 -113 -9q-38 -1 -105 -2t-106 -2q-81 0 -86 -22q-5 -7 -4.5 -56.5t0.5 -56.5v-98q-1 -33 -0.5 -82.5t-0.5 -82t-5 -64.5q-3 -24 -21 -20.5t-20 24.5q-6 96 -2 221q1 2 0.5 54.5t-0.5 53.5q0 40 2 58q0 35 -2 51q-4 12 -15 16.5 t-23.5 3.5t-25.5 0q-39 0 -47 2q-232 0 -264 -4q-6 0 -25.5 -1.5t-29.5 -0.5h-31q-6 3 -8 14z" />
<glyph unicode="&#xb4;" horiz-adv-x="636" d="M170 1602q-9 7 3.5 21t31.5 26q10 7 29 20.5t24.5 17.5t19.5 14.5t21 17t20.5 19.5t27 28t32.5 36q26 29 63 30t52 -28q22 -51 -25 -92q-31 -27 -73 -45.5t-104.5 -36.5t-74.5 -22q-26 -8 -47 -6z" />
<glyph unicode="&#xb6;" horiz-adv-x="1705" d="M100 166q-9 51 6 98q10 36 46 62q34 27 84 6q41 -16 57 -56q14 -30 -4 -96q-4 -13 -22 -30t-23 -25q-10 -17 -13 -35q0 -18 27 -27q25 -8 49 -8t53 9.5t55.5 40.5t45.5 81q25 66 37.5 100t17 47.5t16.5 50t29 87.5q25 71 46.5 157.5t45.5 157.5q-75 -3 -134.5 6t-96.5 26 t-64.5 40.5t-39 49.5t-20 53t-6.5 51.5t1 44.5q9 117 72 200q14 25 63 62.5t80 50.5q4 2 22 10t31 14t30.5 12t29.5 7q29 4 57.5 9t43 7t47.5 4t87 3q0 1 31 0t78 -3.5t90 -5.5q29 -3 62 -13.5t61 -38t20 -64.5q-1 -4 2 -1l9 9q51 52 98 76q18 10 41 16.5t43 9t37 3.5t28 1 h10q1 1 3.5 -1.5t4 -6.5t-0.5 -8t-7 -7.5t-10 -5.5l-4 -1q-39 0 -85 -15t-97 -57t-76 -104q-48 -114 -76 -213q-19 -73 -40.5 -132.5t-45.5 -140.5q-55 -185 -78 -241q-22 -53 -65 -136q-28 -54 -62.5 -104.5t-90 -108t-116 -96t-142.5 -56.5t-167 -1q-83 18 -141 65 t-70 111zM307 23q237 -48 367 272q11 28 24.5 60.5t18 43.5t10 25t9.5 25.5t8.5 23.5t14.5 41.5t19 56.5q25 73 47.5 144.5t46.5 140.5q23 67 60 184.5t57 178.5q33 110 -8 141q-16 13 -31 20t-23.5 8t-15.5 0.5t-9 -1.5l-3 -1q-80 -261 -188 -579q-49 -142 -107 -336 q-4 -12 -11 -36.5t-9.5 -32t-8 -26t-9.5 -28.5t-10.5 -29t-14.5 -38t-18.5 -45t-24.5 -60q-49 -119 -146 -148q-34 -10 -45 -5z" />
<glyph unicode="&#xb7;" horiz-adv-x="514" d="M217 836q-5 45 19 55q4 2 8.5 5.5t10 10t7.5 8.5q8 5 33 13q36 5 59 -23q25 -38 27 -59q4 -31 -16.5 -54.5t-53.5 -31.5q-34 -9 -67 14q-17 12 -23 21q-4 28 -4 41z" />
<glyph unicode="&#xb8;" horiz-adv-x="925" d="M215 -393q7 8 27 -2q24 -21 61 -17q63 8 96 37q40 29 50 101q7 52 1 81.5t-28 59.5q-12 13 -33 16.5t-54 -6t-73 -33.5q-7 -7 -16 -3q-16 6 8 55l44 87l1 1q3 5 8 14q8 15 17 10q11 -7 1 -22q-1 -2 -3 -4q-3 -4 -33 -56q-15 -28 -21 -51q117 60 215 10q22 -15 49 -61 q22 -47 7 -105q-12 -44 -39 -78.5t-60 -48.5q-64 -28 -139 -28q-25 2 -57 10q-38 21 -29 33z" />
<glyph unicode="&#xba;" horiz-adv-x="901" d="M131 1057v65q1 3 7 27t12 39q28 61 40 82q22 38 52 65q39 39 75 60.5t89 34.5q42 12 94 2t86 -35q28 -22 51 -70q1 -3 3.5 -13.5t3.5 -14t3.5 -13t3.5 -14t2.5 -13.5t2 -14.5t1.5 -14t0.5 -15t-1 -14t-1.5 -15.5q0 -1 -3.5 -28.5t-8.5 -41.5q-26 -68 -49 -104 q-18 -28 -78 -88q-34 -34 -106 -56q-53 -18 -127 2q-4 2 -20 8t-27 11.5t-17 11.5q-23 10 -43 43q-2 3 -14.5 22t-16.5 31q-14 42 -14 60zM231 995q3 -31 15 -61q7 -20 35 -36.5t49 -14.5q60 7 100 41q11 8 37 43q16 19 29 51q18 48 39 119q2 5 20 112q4 67 -20 111 q-14 27 -28.5 40.5t-41.5 16.5q-43 5 -98 -39q-53 -53 -70 -86q-29 -64 -43 -104q-23 -67 -23 -129q-5 -31 0 -64z" />
<glyph unicode="&#xbb;" horiz-adv-x="1189" d="M102 76q0 13 17 24q5 9 12.5 17t13 12t17 11.5t14.5 9.5q10 8 60 43q22 19 67 48t53 35q21 12 70 50q10 5 30.5 21t32.5 22q10 4 20 11t22 17t20 15q39 26 80 61q1 1 4 2.5t5 3t2 3.5t-3 5q-27 21 -45 31q-35 21 -59 37q-18 12 -36.5 25.5t-21.5 15.5q-68 50 -139 121 q-33 30 -96 76q-25 21 -55 42.5t-44 32.5q-28 19 -32 35q0 9 1.5 14.5t4 7.5t7 1.5t7 -1.5t7.5 -4l5 -3q38 -23 150 -117q37 -28 120 -97.5t126 -101.5q22 -17 61 -41t53 -33q7 -1 19.5 -13.5t15.5 -14.5q11 -6 14 -11q4 -13 0.5 -20t-13 -12.5t-11.5 -7.5q-19 -8 -53 -34 t-43 -32q-14 -9 -33 -24.5t-27 -20.5q-25 -13 -55 -35q-14 -10 -35.5 -23.5t-30.5 -19.5q-29 -20 -51 -39q-20 -17 -75 -51t-70 -45q-36 -26 -66 -53q-1 0 -2 -2q-35 -21 -35 6zM537 66q0 4 3 8t7.5 9t5.5 7q30 30 57 49q10 8 60 43q22 19 68 49t53 35q46 25 73 47 q19 14 60.5 43t60.5 45q6 5 33.5 24.5t38.5 27.5q1 1 4 3.5t6 4.5t6 5t2.5 5.5t-2.5 5.5q-12 9 -24 12q-14 0 -86 50q-28 20 -66 51.5t-45 36.5q-35 28 -66 59q-22 22 -55 47.5t-51 42.5q-53 44 -102 82q-30 20 -33 35q0 9 1.5 14.5t4 7.5t7 1t7.5 -2t7.5 -4t5.5 -3 q39 -24 149 -116q38 -29 118 -100t122 -103q59 -44 125 -76q7 -1 17 -11t13 -12q1 0 4.5 -1.5t6 -3t4.5 -5.5q4 -13 0.5 -20.5t-13.5 -13t-12 -7.5q-76 -53 -96 -65q-13 -8 -32 -24t-28 -21q-42 -25 -55 -35q-14 -10 -35.5 -23.5t-29.5 -19.5q-59 -41 -66 -47 q-13 -9 -61 -40t-70 -48q-30 -22 -66 -54q-36 -22 -36 5z" />
<glyph unicode="&#xbf;" horiz-adv-x="862" d="M66 -145q8 61 26 94q34 64 85.5 129t109.5 104q16 11 46.5 34.5t47.5 35.5q6 4 74 67q81 74 118 150q27 64 35 98q10 34 8 56q0 37 13 41q35 7 2 -137q-6 -24 -10 -38q-26 -86 -89 -165q-17 -21 -65 -74.5t-70 -83.5q-9 -13 -29.5 -39.5t-29.5 -40.5q-32 -44 -49 -84 q-54 -120 -67 -168q-36 -135 44 -213q35 -32 75 -44t99 -5q43 8 82 47q10 10 19 41q12 36 14 53q21 122 88 154q34 13 68 -25q27 -27 20 -84q-6 -32 -29 -71q-19 -26 -71 -70q-18 -17 -78 -61q-43 -29 -96 -35q-111 -15 -197 26q-109 52 -149 123q-58 99 -45 185zM625 934 q-9 32 12.5 60.5t54.5 31.5q33 1 55.5 -21t28.5 -55q8 -36 -14 -63q-27 -31 -55 -31q-34 1 -52 21t-30 57z" />
<glyph unicode="&#xc0;" horiz-adv-x="1236" d="M-626 -350.5q-3 45.5 10 78.5q0 10 8 10l4 4q0 4 2 6q5 9 23.5 19t35.5 10q7 -1 14 -4.5t14.5 -9.5t12.5 -9q17 -20 41 -28q12 -3 45 -17t51 -16q43 6 70 22q51 17 86.5 50t79.5 99t61 87q171 275 193 299q101 175 268 432l43 64.5t53 82.5q21 31 38.5 57t34.5 53 t28.5 44.5t28.5 45t24.5 39.5t26.5 44t25 42t29.5 50t31.5 53q62 100 111 170t55 80q4 5 17 2.5t13 -6.5q-11 -139 -16.5 -457.5t-9.5 -414.5q-5 -230 2 -348q2 -13 2 -50t7 -71.5t28 -67.5q18 -26 83.5 -44.5t114.5 -22.5q1 -1 2 -3.5l3 -7.5t1 -8q-2 -4 -7.5 -6t-9.5 -2 h-5l-27 -2q-28 -2 -58 -3.5t-69 0t-65 7.5q-75 19 -125 54t-76 98q-6 -29 -15 -53t-22 -40.5t-23.5 -28.5t-29.5 -19.5t-29 -12t-34 -6.5t-31.5 -2.5t-34 0t-31.5 0.5q-1 1 -3 2t-5 4.5t-2 7.5q1 5 8.5 11t9.5 6q4 0 23 0.5t25.5 0.5t24.5 2t26.5 5.5t24.5 9.5t25 14.5 t21 21.5t20 29.5t15 39t12 49.5q1 58 5 387h-117q-123 9 -203 -2q-8 -2 -44 -58.5t-77 -123t-53 -81.5q-66 -99 -141.5 -222.5t-120.5 -196.5t-100 -149.5t-110.5 -125t-121.5 -78.5q-36 -17 -92 -17.5t-78 13.5q-36 6 -49 31q-23 32 -26 77.5zM428 649q15 -10 246 -10 q20 0 28 4q10 8 14.5 34t2.5 48q-2 20 -2 63q1 27 1 111v150.5t1 64.5q-15 -21 -23 -40.5t-30 -47.5q-204 -327 -238 -377zM670 1801q15 29 51.5 28t62.5 -30q19 -21 32.5 -36t27.5 -28t20.5 -20t21 -17.5t19.5 -14.5t25 -17.5t29 -20.5q18 -12 30.5 -26t3.5 -21 q-21 -2 -47 6q-12 4 -74.5 22t-104.5 36.5t-73 45.5q-47 41 -24 93z" />
<glyph unicode="&#xc1;" horiz-adv-x="1236" d="M-626 -350.5q-3 45.5 10 78.5q0 10 8 10l4 4q0 4 2 6q5 9 23.5 19t35.5 10q7 -1 14 -4.5t14.5 -9.5t12.5 -9q17 -20 41 -28q12 -3 45 -17t51 -16q43 6 70 22q51 17 86.5 50t79.5 99t61 87q171 275 193 299q101 175 268 432l43 64.5t53 82.5q21 31 38.5 57t34.5 53 t28.5 44.5t28.5 45t24.5 39.5t26.5 44t25 42t29.5 50t31.5 53q62 100 111 170t55 80q4 5 17 2.5t13 -6.5q-11 -139 -16.5 -457.5t-9.5 -414.5q-5 -230 2 -348q2 -13 2 -50t7 -71.5t28 -67.5q18 -26 83.5 -44.5t114.5 -22.5q1 -1 2 -3.5l3 -7.5t1 -8q-2 -4 -7.5 -6t-9.5 -2 h-5l-27 -2q-28 -2 -58 -3.5t-69 0t-65 7.5q-75 19 -125 54t-76 98q-6 -29 -15 -53t-22 -40.5t-23.5 -28.5t-29.5 -19.5t-29 -12t-34 -6.5t-31.5 -2.5t-34 0t-31.5 0.5q-1 1 -3 2t-5 4.5t-2 7.5q1 5 8.5 11t9.5 6q4 0 23 0.5t25.5 0.5t24.5 2t26.5 5.5t24.5 9.5t25 14.5 t21 21.5t20 29.5t15 39t12 49.5q1 58 5 387h-117q-123 9 -203 -2q-8 -2 -44 -58.5t-77 -123t-53 -81.5q-66 -99 -141.5 -222.5t-120.5 -196.5t-100 -149.5t-110.5 -125t-121.5 -78.5q-36 -17 -92 -17.5t-78 13.5q-36 6 -49 31q-23 32 -26 77.5zM428 649q15 -10 246 -10 q20 0 28 4q10 8 14.5 34t2.5 48q-2 20 -2 63q1 27 1 111v150.5t1 64.5q-15 -21 -23 -40.5t-30 -47.5q-204 -327 -238 -377zM647 1600q-9 7 3.5 21t31.5 26q10 7 29 20.5t24.5 17.5t19.5 14.5t21 17t20.5 19.5t27 28t32.5 36q26 29 63 30t52 -28q22 -51 -25 -92 q-31 -27 -73 -45.5t-104.5 -36.5t-74.5 -22q-26 -8 -47 -6z" />
<glyph unicode="&#xc2;" horiz-adv-x="1236" d="M-626 -350.5q-3 45.5 10 78.5q0 10 8 10l4 4q0 4 2 6q5 9 23.5 19t35.5 10q7 -1 14 -4.5t14.5 -9.5t12.5 -9q17 -20 41 -28q12 -3 45 -17t51 -16q43 6 70 22q51 17 86.5 50t79.5 99t61 87q171 275 193 299q101 175 268 432l43 64.5t53 82.5q21 31 38.5 57t34.5 53 t28.5 44.5t28.5 45t24.5 39.5t26.5 44t25 42t29.5 50t31.5 53q62 100 111 170t55 80q4 5 17 2.5t13 -6.5q-11 -139 -16.5 -457.5t-9.5 -414.5q-5 -230 2 -348q2 -13 2 -50t7 -71.5t28 -67.5q18 -26 83.5 -44.5t114.5 -22.5q1 -1 2 -3.5l3 -7.5t1 -8q-2 -4 -7.5 -6t-9.5 -2 h-5l-27 -2q-28 -2 -58 -3.5t-69 0t-65 7.5q-75 19 -125 54t-76 98q-6 -29 -15 -53t-22 -40.5t-23.5 -28.5t-29.5 -19.5t-29 -12t-34 -6.5t-31.5 -2.5t-34 0t-31.5 0.5q-1 1 -3 2t-5 4.5t-2 7.5q1 5 8.5 11t9.5 6q4 0 23 0.5t25.5 0.5t24.5 2t26.5 5.5t24.5 9.5t25 14.5 t21 21.5t20 29.5t15 39t12 49.5q1 58 5 387h-117q-123 9 -203 -2q-8 -2 -44 -58.5t-77 -123t-53 -81.5q-66 -99 -141.5 -222.5t-120.5 -196.5t-100 -149.5t-110.5 -125t-121.5 -78.5q-36 -17 -92 -17.5t-78 13.5q-36 6 -49 31q-23 32 -26 77.5zM428 649q15 -10 246 -10 q20 0 28 4q10 8 14.5 34t2.5 48q-2 20 -2 63q1 27 1 111v150.5t1 64.5q-15 -21 -23 -40.5t-30 -47.5q-204 -327 -238 -377zM674 1614q-15 15 55 92q11 13 18 20.5t12 13t13.5 13t13.5 11.5l22.5 18t29.5 24q21 18 30.5 26t25.5 16t36 13q22 -19 40 -39.5t25.5 -31 t25.5 -38.5t23 -36q15 -24 27 -62.5t0 -46.5q-1 -7 -27 13t-51 45q-12 12 -36.5 35t-47.5 47q-92 -61 -131 -86q-29 -19 -66 -36.5t-38 -10.5z" />
<glyph unicode="&#xc3;" horiz-adv-x="1236" d="M-626 -350.5q-3 45.5 10 78.5q0 10 8 10l4 4q0 4 2 6q5 9 23.5 19t35.5 10q7 -1 14 -4.5t14.5 -9.5t12.5 -9q17 -20 41 -28q12 -3 45 -17t51 -16q43 6 70 22q51 17 86.5 50t79.5 99t61 87q171 275 193 299q101 175 268 432l43 64.5t53 82.5q21 31 38.5 57t34.5 53 t28.5 44.5t28.5 45t24.5 39.5t26.5 44t25 42t29.5 50t31.5 53q62 100 111 170t55 80q4 5 17 2.5t13 -6.5q-11 -139 -16.5 -457.5t-9.5 -414.5q-5 -230 2 -348q2 -13 2 -50t7 -71.5t28 -67.5q18 -26 83.5 -44.5t114.5 -22.5q1 -1 2 -3.5l3 -7.5t1 -8q-2 -4 -7.5 -6t-9.5 -2 h-5l-27 -2q-28 -2 -58 -3.5t-69 0t-65 7.5q-75 19 -125 54t-76 98q-6 -29 -15 -53t-22 -40.5t-23.5 -28.5t-29.5 -19.5t-29 -12t-34 -6.5t-31.5 -2.5t-34 0t-31.5 0.5q-1 1 -3 2t-5 4.5t-2 7.5q1 5 8.5 11t9.5 6q4 0 23 0.5t25.5 0.5t24.5 2t26.5 5.5t24.5 9.5t25 14.5 t21 21.5t20 29.5t15 39t12 49.5q1 58 5 387h-117q-123 9 -203 -2q-8 -2 -44 -58.5t-77 -123t-53 -81.5q-66 -99 -141.5 -222.5t-120.5 -196.5t-100 -149.5t-110.5 -125t-121.5 -78.5q-36 -17 -92 -17.5t-78 13.5q-36 6 -49 31q-23 32 -26 77.5zM428 649q15 -10 246 -10 q20 0 28 4q10 8 14.5 34t2.5 48q-2 20 -2 63q1 27 1 111v150.5t1 64.5q-15 -21 -23 -40.5t-30 -47.5q-204 -327 -238 -377zM614 1670q-13 13 0 47q7 19 21 34q37 24 52.5 29.5t51.5 5.5q27 -1 63 -18t50 -29l28.5 -19t44 -26t42.5 -15q47 -12 114 8q27 9 45 27q18 19 21 23 t6 11.5t12 22.5q7 13 21 19h2q10 -26 2 -41q-6 -11 -9 -17.5t-3.5 -8t-2 -4.5t-5.5 -8.5t-13 -18.5q-10 -11 -88 -68q-7 -2 -25 -8.5t-36 -10.5t-37 -2q-71 -10 -156 31q-33 21 -61 43q-14 12 -30.5 23t-23.5 18q-4 1 -12.5 2.5t-23.5 -6t-25 -22.5q-14 -33 -25 -22z" />
<glyph unicode="&#xc4;" horiz-adv-x="1236" d="M-626 -350.5q-3 45.5 10 78.5q0 10 8 10l4 4q0 4 2 6q5 9 23.5 19t35.5 10q7 -1 14 -4.5t14.5 -9.5t12.5 -9q17 -20 41 -28q12 -3 45 -17t51 -16q43 6 70 22q51 17 86.5 50t79.5 99t61 87q171 275 193 299q101 175 268 432l43 64.5t53 82.5q21 31 38.5 57t34.5 53 t28.5 44.5t28.5 45t24.5 39.5t26.5 44t25 42t29.5 50t31.5 53q62 100 111 170t55 80q4 5 17 2.5t13 -6.5q-11 -139 -16.5 -457.5t-9.5 -414.5q-5 -230 2 -348q2 -13 2 -50t7 -71.5t28 -67.5q18 -26 83.5 -44.5t114.5 -22.5q1 -1 2 -3.5l3 -7.5t1 -8q-2 -4 -7.5 -6t-9.5 -2 h-5l-27 -2q-28 -2 -58 -3.5t-69 0t-65 7.5q-75 19 -125 54t-76 98q-6 -29 -15 -53t-22 -40.5t-23.5 -28.5t-29.5 -19.5t-29 -12t-34 -6.5t-31.5 -2.5t-34 0t-31.5 0.5q-1 1 -3 2t-5 4.5t-2 7.5q1 5 8.5 11t9.5 6q4 0 23 0.5t25.5 0.5t24.5 2t26.5 5.5t24.5 9.5t25 14.5 t21 21.5t20 29.5t15 39t12 49.5q1 58 5 387h-117q-123 9 -203 -2q-8 -2 -44 -58.5t-77 -123t-53 -81.5q-66 -99 -141.5 -222.5t-120.5 -196.5t-100 -149.5t-110.5 -125t-121.5 -78.5q-36 -17 -92 -17.5t-78 13.5q-36 6 -49 31q-23 32 -26 77.5zM428 649q15 -10 246 -10 q20 0 28 4q10 8 14.5 34t2.5 48q-2 20 -2 63q1 27 1 111v150.5t1 64.5q-15 -21 -23 -40.5t-30 -47.5q-204 -327 -238 -377zM672 1677q-5 47 18 56q5 2 27 24q4 2 33 12q37 5 59 -22q25 -38 27 -60q4 -31 -16.5 -54.5t-53.5 -31.5q-34 -9 -68 15q-16 12 -22 20q-4 28 -4 41z M977 1677q-5 47 18 56q5 2 27 24q4 2 33 12q37 5 59 -22q25 -38 27 -60q4 -31 -16.5 -54.5t-53.5 -31.5q-33 -9 -67 15q-18 14 -23 20q-4 28 -4 41z" />
<glyph unicode="&#xc5;" horiz-adv-x="1236" d="M-626 -350.5q-3 45.5 10 78.5q0 10 8 10l4 4q0 4 2 6q5 9 23.5 19t35.5 10q7 -1 14 -4.5t14.5 -9.5t12.5 -9q17 -20 41 -28q12 -3 45 -17t51 -16q43 6 70 22q51 17 86.5 50t79.5 99t61 87q171 275 193 299q101 175 268 432l43 64.5t53 82.5q21 31 38.5 57t34.5 53 t28.5 44.5t28.5 45t24.5 39.5t26.5 44t25 42t29.5 50t31.5 53q62 100 111 170t55 80q4 5 17 2.5t13 -6.5q-11 -139 -16.5 -457.5t-9.5 -414.5q-5 -230 2 -348q2 -13 2 -50t7 -71.5t28 -67.5q18 -26 83.5 -44.5t114.5 -22.5q1 -1 2 -3.5l3 -7.5t1 -8q-2 -4 -7.5 -6t-9.5 -2 h-5l-27 -2q-28 -2 -58 -3.5t-69 0t-65 7.5q-75 19 -125 54t-76 98q-6 -29 -15 -53t-22 -40.5t-23.5 -28.5t-29.5 -19.5t-29 -12t-34 -6.5t-31.5 -2.5t-34 0t-31.5 0.5q-1 1 -3 2t-5 4.5t-2 7.5q1 5 8.5 11t9.5 6q4 0 23 0.5t25.5 0.5t24.5 2t26.5 5.5t24.5 9.5t25 14.5 t21 21.5t20 29.5t15 39t12 49.5q1 58 5 387h-117q-123 9 -203 -2q-8 -2 -44 -58.5t-77 -123t-53 -81.5q-66 -99 -141.5 -222.5t-120.5 -196.5t-100 -149.5t-110.5 -125t-121.5 -78.5q-36 -17 -92 -17.5t-78 13.5q-36 6 -49 31q-23 32 -26 77.5zM428 649q15 -10 246 -10 q20 0 28 4q10 8 14.5 34t2.5 48q-2 20 -2 63q1 27 1 111v150.5t1 64.5q-15 -21 -23 -40.5t-30 -47.5q-204 -327 -238 -377zM781 1731q0 17 12 41q4 10 43 45q24 16 57 16q70 3 111 -53q16 -24 16 -66q0 -39 -16 -65q-54 -73 -131 -49q-74 21 -84 69q-8 28 -8 62zM840 1722 q0 -12 4 -32q8 -25 45 -33q19 -7 36.5 0.5t27.5 23.5q8 8 8 33q0 15 -8 31q-29 29 -60 27q-15 0 -29 -11v2q-12 -12 -18 -20q-6 -9 -6 -21z" />
<glyph unicode="&#xc6;" horiz-adv-x="2054" d="M-614 -403.5q2 43.5 22 77.5q6 12 10 13q0 4 2 6q0 1 5 6q6 9 21 19t32 10q8 -1 15 -4.5t15.5 -10t12.5 -8.5q17 -17 39 -24q9 -2 37 -15.5t47 -13.5q40 6 80 22q53 19 93 52.5t95.5 103t73.5 88.5q206 283 227 307q45 64 98 134.5t131 171t105 135.5q10 15 54.5 71 t57.5 80q71 85 120.5 149.5t108.5 146t103 140.5q72 100 130.5 169.5t68.5 84.5q7 9 27 2l4 -4q-10 -41 -15 -73q62 2 130 8.5t164.5 18.5t135.5 16q163 23 228 14q96 -12 141 -45q17 -15 31.5 -39t20 -55.5t-18.5 -55.5q-22 -27 -62 -34q-21 -3 -52 3.5t-46 18.5 q-23 17 -49 39.5t-34.5 29t-30 16.5t-47 14t-72.5 10q-32 0 -103.5 1t-109.5 1q-212 0 -228 -2q-24 -152 -84 -488q-3 -19 -6 -39.5t-6.5 -45l-5.5 -38.5q9 -6 82 -6q9 -1 29 -2t28 -2q70 -4 115 -4q80 -5 104 -2q16 0 32.5 1.5t35.5 0.5q1 -2 7 -4.5t8.5 -6.5t-1.5 -20 l-26 -18q-3 -3 -23.5 -4.5t-57 -2.5t-46.5 -1q-42 -2 -117 2q-116 5 -156 0q-20 -2 -31 -27q-8 -35 -10 -53q-23 -119 -31.5 -189t-15.5 -174q-1 -8 -5 -37t-5.5 -48t2.5 -48t16 -53q17 -38 66 -55q41 -14 131.5 -17t186 4t176 28.5t98.5 51.5q4 9 7 14.5t4 6.5t2 3t3 7 t6 16q19 29 45 105q25 46 47.5 66t61.5 10q71 -19 41 -97q-26 -65 -106 -135t-148 -82l-25 -5q-24 -5 -45 -8.5t-59.5 -10t-76 -10.5t-84 -8t-93 -4.5t-95.5 1.5t-99.5 9t-96.5 18q-46 7 -76 19.5t-48.5 34.5t-28 45t-19.5 61q-15 -40 -34.5 -70.5t-41.5 -48t-44.5 -28.5 t-47.5 -15.5t-46.5 -6t-46.5 -1.5h-20q-1 1 -3 2t-4.5 4.5t-0.5 7.5q1 5 9.5 10.5t11.5 5.5q75 2 104 11q97 32 144 169q22 148 53 385q-13 0 -55.5 -1t-63.5 -1q-132 0 -203 -10q-15 -4 -207 -270q-82 -102 -175 -227t-149 -200.5t-121.5 -153.5t-128.5 -128.5t-134 -83.5 q-35 -17 -90 -19.5t-78 11.5q-31 5 -41 31q-14 30 -12 73.5zM580 633q4 -4 52 -4.5t116.5 1t74.5 1.5q21 0 31 6q20 20 20 84q9 22 13 63q6 28 18 111t21 149.5t10 65.5q-25 -27 -37.5 -47.5t-30.5 -44.5q-38 -46 -140.5 -186.5t-147.5 -198.5z" />
<glyph unicode="&#xc7;" d="M45 616q8 87 43 187q38 115 117.5 229t184 206t237 149t264.5 57q126 0 230.5 -39.5t154.5 -118.5q18 -27 22 -41q1 -5 5 -14t6 -17t2 -14q0 -37 -4 -53q-14 -42 -21 -53q-21 -44 -74 -50q-13 -1 -25.5 7t-17.5 14.5t-16 21.5q-23 33 -23 74q1 19 4.5 53.5t4.5 53.5 q3 22 0 41q-12 54 -99 84q-43 18 -94 18q-22 0 -61 -10t-51 -12q-24 -6 -43 -17q-8 -4 -25 -10t-25 -10q-53 -26 -88 -58q-50 -40 -71 -61q-15 -14 -41 -41.5t-35 -36.5q-23 -23 -31 -39q-2 -3 -6 -10t-6 -10q-10 -13 -17 -25q-36 -47 -67.5 -118t-47 -119.5t-40.5 -137.5 q-31 -110 -34 -216.5t21 -201t86.5 -165.5t157.5 -101q50 -16 96 -8q102 19 197 88q111 84 189 221q2 0 7 6.5t9 6.5q13 2 17 -1.5t3 -7.5l-2 -4q1 0 -17.5 -30.5t-42 -66.5t-32.5 -46q-178 -197 -381 -205q-64 -8 -137 17q-34 8 -86.5 32.5t-75.5 44.5q-4 4 -34.5 30.5 t-39 35t-29 30.5t-33.5 40.5t-24 40.5q-36 74 -53 181.5t-8 198.5zM362 -401q7 8 27 -2q24 -21 62 -17q63 8 96 37q39 28 49 100q7 51 1 81.5t-28 60.5q-42 45 -159 -23q-7 -7 -17 -3q-16 6 8 54q46 88 45 88q2 3 9 15q8 16 17 8q10 -10 -3 -25q-7 -10 -33 -55 q-13 -25 -20 -51q117 60 215 10q22 -15 49 -61q21 -46 6 -105q-12 -44 -39 -78.5t-59 -48.5q-64 -28 -139 -28q-26 2 -58 10q-38 21 -29 33z" />
<glyph unicode="&#xc8;" horiz-adv-x="1226" d="M41 268q-6 105 47 203q41 87 111 139q2 1 32.5 24t47.5 34q6 4 25.5 19t27.5 18q11 4 10.5 18t-12.5 29q-4 4 -14.5 11t-14.5 11q-2 2 -10.5 16t-11.5 15q-35 56 -43 92q-8 51 -4.5 116.5t18.5 102.5q66 148 169 228.5t243 121.5q143 33 268 7.5t190 -93.5 q101 -114 90 -215q-3 -33 -31.5 -62t-58.5 -28q-50 0 -67.5 36t-12.5 112q5 73 -31 124t-90.5 69.5t-113.5 10.5q-72 -12 -130 -44t-98.5 -80.5t-64 -89t-47.5 -93.5q-18 -46 -25 -99t-0.5 -105t36.5 -92.5t81 -55.5q13 -6 36.5 -7.5t27.5 -2.5q9 -1 32.5 2t43.5 2.5 t28 -10.5q0 -15 -16 -25q-12 -17 -33 -12q-24 -4 -71 -18t-73 -17q-21 -5 -53 -23q-45 -19 -86 -57q-45 -40 -59 -70q-6 -15 -25 -47.5t-26 -50.5q-31 -121 -9 -217q11 -53 47 -104.5t80 -69.5q32 -18 88 -25q5 0 13 -1t15.5 -1t14.5 2q48 0 152 29q13 5 26 11.5t33 19 t27 16.5q35 27 52.5 81t30 116.5t34.5 95.5q22 32 65 32t58 -36q17 -39 8 -78q-3 -57 -60.5 -126.5t-126.5 -118t-120 -66.5q-118 -37 -187.5 -43t-152.5 4q-113 8 -199.5 61t-112.5 150q-5 12 -8 26.5t-4.5 24t-3 27.5t-2.5 26zM754 1804q15 29 51.5 28t62.5 -30 q19 -21 32.5 -36t27 -28t20.5 -19.5t21 -17t19.5 -14.5t24.5 -17.5t29 -20.5q19 -12 31.5 -26t3.5 -21q-21 -2 -47 6q-12 4 -74.5 22t-104.5 36.5t-73 45.5q-47 41 -24 92z" />
<glyph unicode="&#xc9;" horiz-adv-x="1226" d="M41 268q-6 105 47 203q41 87 111 139q2 1 32.5 24t47.5 34q6 4 25.5 19t27.5 18q11 4 10.5 18t-12.5 29q-4 4 -14.5 11t-14.5 11q-2 2 -10.5 16t-11.5 15q-35 56 -43 92q-8 51 -4.5 116.5t18.5 102.5q66 148 169 228.5t243 121.5q143 33 268 7.5t190 -93.5 q101 -114 90 -215q-3 -33 -31.5 -62t-58.5 -28q-50 0 -67.5 36t-12.5 112q5 73 -31 124t-90.5 69.5t-113.5 10.5q-72 -12 -130 -44t-98.5 -80.5t-64 -89t-47.5 -93.5q-18 -46 -25 -99t-0.5 -105t36.5 -92.5t81 -55.5q13 -6 36.5 -7.5t27.5 -2.5q9 -1 32.5 2t43.5 2.5 t28 -10.5q0 -15 -16 -25q-12 -17 -33 -12q-24 -4 -71 -18t-73 -17q-21 -5 -53 -23q-45 -19 -86 -57q-45 -40 -59 -70q-6 -15 -25 -47.5t-26 -50.5q-31 -121 -9 -217q11 -53 47 -104.5t80 -69.5q32 -18 88 -25q5 0 13 -1t15.5 -1t14.5 2q48 0 152 29q13 5 26 11.5t33 19 t27 16.5q35 27 52.5 81t30 116.5t34.5 95.5q22 32 65 32t58 -36q17 -39 8 -78q-3 -57 -60.5 -126.5t-126.5 -118t-120 -66.5q-118 -37 -187.5 -43t-152.5 4q-113 8 -199.5 61t-112.5 150q-5 12 -8 26.5t-4.5 24t-3 27.5t-2.5 26zM709 1599q-9 7 3.5 21.5t30.5 26.5 q11 8 29 20.5t24.5 17t20 14.5t21 17t20.5 20t27 28t33 36q26 29 62.5 30t51.5 -28q23 -51 -24 -92q-31 -27 -73 -45.5t-104.5 -36.5t-74.5 -22q-28 -9 -47 -7z" />
<glyph unicode="&#xca;" horiz-adv-x="1226" d="M41 268q-6 105 47 203q41 87 111 139q2 1 32.5 24t47.5 34q6 4 25.5 19t27.5 18q11 4 10.5 18t-12.5 29q-4 4 -14.5 11t-14.5 11q-2 2 -10.5 16t-11.5 15q-35 56 -43 92q-8 51 -4.5 116.5t18.5 102.5q66 148 169 228.5t243 121.5q143 33 268 7.5t190 -93.5 q101 -114 90 -215q-3 -33 -31.5 -62t-58.5 -28q-50 0 -67.5 36t-12.5 112q5 73 -31 124t-90.5 69.5t-113.5 10.5q-72 -12 -130 -44t-98.5 -80.5t-64 -89t-47.5 -93.5q-18 -46 -25 -99t-0.5 -105t36.5 -92.5t81 -55.5q13 -6 36.5 -7.5t27.5 -2.5q9 -1 32.5 2t43.5 2.5 t28 -10.5q0 -15 -16 -25q-12 -17 -33 -12q-24 -4 -71 -18t-73 -17q-21 -5 -53 -23q-45 -19 -86 -57q-45 -40 -59 -70q-6 -15 -25 -47.5t-26 -50.5q-31 -121 -9 -217q11 -53 47 -104.5t80 -69.5q32 -18 88 -25q5 0 13 -1t15.5 -1t14.5 2q48 0 152 29q13 5 26 11.5t33 19 t27 16.5q35 27 52.5 81t30 116.5t34.5 95.5q22 32 65 32t58 -36q17 -39 8 -78q-3 -57 -60.5 -126.5t-126.5 -118t-120 -66.5q-118 -37 -187.5 -43t-152.5 4q-113 8 -199.5 61t-112.5 150q-5 12 -8 26.5t-4.5 24t-3 27.5t-2.5 26zM702 1614q-15 15 56 92q9 11 14 16t10 11 t10 10.5t8 8t11.5 10t13 10t18.5 15.5t23 19q22 19 30.5 26t25.5 16t36 14q22 -19 40.5 -40t25.5 -31t26 -39.5t23 -35.5q15 -24 27 -62t0 -46q-1 -7 -27.5 13t-50.5 44q-12 12 -36.5 35t-47.5 47q-92 -61 -131 -86q-29 -19 -66.5 -36.5t-38.5 -10.5z" />
<glyph unicode="&#xcb;" horiz-adv-x="1226" d="M41 268q-6 105 47 203q41 87 111 139q2 1 32.5 24t47.5 34q6 4 25.5 19t27.5 18q11 4 10.5 18t-12.5 29q-4 4 -14.5 11t-14.5 11q-2 2 -10.5 16t-11.5 15q-35 56 -43 92q-8 51 -4.5 116.5t18.5 102.5q66 148 169 228.5t243 121.5q143 33 268 7.5t190 -93.5 q101 -114 90 -215q-3 -33 -31.5 -62t-58.5 -28q-50 0 -67.5 36t-12.5 112q5 73 -31 124t-90.5 69.5t-113.5 10.5q-72 -12 -130 -44t-98.5 -80.5t-64 -89t-47.5 -93.5q-18 -46 -25 -99t-0.5 -105t36.5 -92.5t81 -55.5q13 -6 36.5 -7.5t27.5 -2.5q9 -1 32.5 2t43.5 2.5 t28 -10.5q0 -15 -16 -25q-12 -17 -33 -12q-24 -4 -71 -18t-73 -17q-21 -5 -53 -23q-45 -19 -86 -57q-45 -40 -59 -70q-6 -15 -25 -47.5t-26 -50.5q-31 -121 -9 -217q11 -53 47 -104.5t80 -69.5q32 -18 88 -25q5 0 13 -1t15.5 -1t14.5 2q48 0 152 29q13 5 26 11.5t33 19 t27 16.5q35 27 52.5 81t30 116.5t34.5 95.5q22 32 65 32t58 -36q17 -39 8 -78q-3 -57 -60.5 -126.5t-126.5 -118t-120 -66.5q-118 -37 -187.5 -43t-152.5 4q-113 8 -199.5 61t-112.5 150q-5 12 -8 26.5t-4.5 24t-3 27.5t-2.5 26zM625 1677q-5 47 18 56q5 2 27 24q5 3 32 12 q38 6 60 -22q24 -36 26 -59q4 -31 -16.5 -54.5t-52.5 -31.5q-35 -9 -68 14q-16 12 -22 20q-4 28 -4 41zM930 1677q-5 47 18 56q5 2 27 24q4 2 33 12q37 5 59 -22q25 -38 27 -59q4 -31 -16.5 -54.5t-53.5 -31.5q-35 -9 -68 14q-16 12 -22 20q-4 28 -4 41z" />
<glyph unicode="&#xcc;" horiz-adv-x="946" d="M-101.5 7.5q-0.5 3.5 0.5 8.5t3 9q1 3 3.5 5.5t4.5 3.5l2 1q6 0 35.5 -1t43 -0.5t40.5 6t44.5 17t39 34.5t37.5 56q85 252 205 627t149 463q11 36 15 58.5t0.5 44.5t-19.5 34q-54 41 -141 34l-5 -1q-2 0 -3.5 6t-0.5 10q1 3 4 6t6 5l3 2q0 1 35 3.5t81.5 4t93.5 -1.5 q29 -3 62 -13t59.5 -35t16.5 -57q-2 -8 0 -6q3 1 16 14q60 60 105 78q52 19 108 13q13 -1 18.5 -1.5t11 -2.5t4.5 -5t-1 -8q-7 -18 -43 -18q-39 0 -79 -14.5t-84.5 -59.5t-70.5 -115q-60 -163 -103 -294.5t-99.5 -324.5t-83.5 -280q-10 -33 -18.5 -79.5t-5.5 -101t26 -73.5 q9 -6 18.5 -9.5t16 -3.5h19t19.5 -1q3 -1 14 0.5t20 1t11 -5.5q1 -3 -0.5 -6t-4.5 -5.5t-5 -3.5t-6.5 -3.5t-5.5 -2.5q-7 -2 -29.5 -10.5t-28 -9.5t-30 -7t-36 -4t-46.5 1q-29 2 -49 6.5t-28 8t-20 10.5t-18 10q-9 5 -33.5 35.5t-23.5 37.5q0 3 -2 -2q-23 -49 -80 -76 q-33 -16 -93 -19.5t-93 3.5q-1 0 -1.5 3.5zM471 1802q15 29 52 28t63 -30q19 -21 32.5 -36t27 -28t20.5 -19.5t21 -17t19.5 -14.5t24.5 -17.5t29 -20.5q18 -12 31 -26.5t4 -21.5q-19 -2 -47 7q-12 4 -74.5 22t-104.5 36.5t-73 45.5q-47 41 -25 92z" />
<glyph unicode="&#xcd;" horiz-adv-x="946" d="M-101.5 7.5q-0.5 3.5 0.5 8.5t3 9q1 3 3.5 5.5t4.5 3.5l2 1q6 0 35.5 -1t43 -0.5t40.5 6t44.5 17t39 34.5t37.5 56q85 252 205 627t149 463q11 36 15 58.5t0.5 44.5t-19.5 34q-54 41 -141 34l-5 -1q-2 0 -3.5 6t-0.5 10q1 3 4 6t6 5l3 2q0 1 35 3.5t81.5 4t93.5 -1.5 q29 -3 62 -13t59.5 -35t16.5 -57q-2 -8 0 -6q3 1 16 14q60 60 105 78q52 19 108 13q13 -1 18.5 -1.5t11 -2.5t4.5 -5t-1 -8q-7 -18 -43 -18q-39 0 -79 -14.5t-84.5 -59.5t-70.5 -115q-60 -163 -103 -294.5t-99.5 -324.5t-83.5 -280q-10 -33 -18.5 -79.5t-5.5 -101t26 -73.5 q9 -6 18.5 -9.5t16 -3.5h19t19.5 -1q3 -1 14 0.5t20 1t11 -5.5q1 -3 -0.5 -6t-4.5 -5.5t-5 -3.5t-6.5 -3.5t-5.5 -2.5q-7 -2 -29.5 -10.5t-28 -9.5t-30 -7t-36 -4t-46.5 1q-29 2 -49 6.5t-28 8t-20 10.5t-18 10q-9 5 -33.5 35.5t-23.5 37.5q0 3 -2 -2q-23 -49 -80 -76 q-33 -16 -93 -19.5t-93 3.5q-1 0 -1.5 3.5zM442 1599q-9 7 4 21.5t31 26.5q10 7 29 20.5t24.5 17.5t19.5 14.5t21 17t20.5 19.5t27 28t32.5 36q26 29 63 30t52 -28q22 -51 -25 -92q-31 -27 -73 -45.5t-104.5 -36.5t-74.5 -22q-28 -9 -47 -7z" />
<glyph unicode="&#xce;" horiz-adv-x="946" d="M-101.5 7.5q-0.5 3.5 0.5 8.5t3 9q1 3 3.5 5.5t4.5 3.5l2 1q6 0 35.5 -1t43 -0.5t40.5 6t44.5 17t39 34.5t37.5 56q85 252 205 627t149 463q11 36 15 58.5t0.5 44.5t-19.5 34q-54 41 -141 34l-5 -1q-2 0 -3.5 6t-0.5 10q1 3 4 6t6 5l3 2q0 1 35 3.5t81.5 4t93.5 -1.5 q29 -3 62 -13t59.5 -35t16.5 -57q-2 -8 0 -6q3 1 16 14q60 60 105 78q52 19 108 13q13 -1 18.5 -1.5t11 -2.5t4.5 -5t-1 -8q-7 -18 -43 -18q-39 0 -79 -14.5t-84.5 -59.5t-70.5 -115q-60 -163 -103 -294.5t-99.5 -324.5t-83.5 -280q-10 -33 -18.5 -79.5t-5.5 -101t26 -73.5 q9 -6 18.5 -9.5t16 -3.5h19t19.5 -1q3 -1 14 0.5t20 1t11 -5.5q1 -3 -0.5 -6t-4.5 -5.5t-5 -3.5t-6.5 -3.5t-5.5 -2.5q-7 -2 -29.5 -10.5t-28 -9.5t-30 -7t-36 -4t-46.5 1q-29 2 -49 6.5t-28 8t-20 10.5t-18 10q-9 5 -33.5 35.5t-23.5 37.5q0 3 -2 -2q-23 -49 -80 -76 q-33 -16 -93 -19.5t-93 3.5q-1 0 -1.5 3.5zM487 1614q-15 15 56 92q9 11 14 16t10 11t10 10.5t8 8t11.5 10t13 10t18.5 15.5t23 19q22 19 30.5 26t25.5 16t36 14q22 -19 40.5 -40t25.5 -31t26 -39.5t23 -35.5q15 -24 27 -62t0 -46q-1 -7 -27.5 13t-50.5 44q-12 12 -36.5 35 t-47.5 47q-92 -61 -131 -86q-29 -19 -66.5 -36.5t-38.5 -10.5z" />
<glyph unicode="&#xcf;" horiz-adv-x="946" d="M-101.5 7.5q-0.5 3.5 0.5 8.5t3 9q1 3 3.5 5.5t4.5 3.5l2 1q6 0 35.5 -1t43 -0.5t40.5 6t44.5 17t39 34.5t37.5 56q85 252 205 627t149 463q11 36 15 58.5t0.5 44.5t-19.5 34q-54 41 -141 34l-5 -1q-2 0 -3.5 6t-0.5 10q1 3 4 6t6 5l3 2q0 1 35 3.5t81.5 4t93.5 -1.5 q29 -3 62 -13t59.5 -35t16.5 -57q-2 -8 0 -6q3 1 16 14q60 60 105 78q52 19 108 13q13 -1 18.5 -1.5t11 -2.5t4.5 -5t-1 -8q-7 -18 -43 -18q-39 0 -79 -14.5t-84.5 -59.5t-70.5 -115q-60 -163 -103 -294.5t-99.5 -324.5t-83.5 -280q-10 -33 -18.5 -79.5t-5.5 -101t26 -73.5 q9 -6 18.5 -9.5t16 -3.5h19t19.5 -1q3 -1 14 0.5t20 1t11 -5.5q1 -3 -0.5 -6t-4.5 -5.5t-5 -3.5t-6.5 -3.5t-5.5 -2.5q-7 -2 -29.5 -10.5t-28 -9.5t-30 -7t-36 -4t-46.5 1q-29 2 -49 6.5t-28 8t-20 10.5t-18 10q-9 5 -33.5 35.5t-23.5 37.5q0 3 -2 -2q-23 -49 -80 -76 q-33 -16 -93 -19.5t-93 3.5q-1 0 -1.5 3.5zM449 1677q-5 47 18 56q5 2 27 24q5 3 32 12q38 6 60 -22q24 -36 26 -59q4 -31 -16.5 -54.5t-52.5 -31.5q-35 -9 -68 14q-16 12 -22 20q-4 28 -4 41zM754 1677q-5 47 18 56q5 2 27 24q5 3 32 12q38 6 60 -22q25 -38 27 -59 q4 -31 -16.5 -54.5t-53.5 -31.5q-35 -9 -68 14q-16 12 -22 20q-4 28 -4 41z" />
<glyph unicode="&#xd0;" horiz-adv-x="1566" d="M-104 23q1 4 4.5 7.5t6.5 5.5l3 1q8 0 31.5 -1t38.5 -1t38.5 2.5t41 10.5t36.5 21t34 36.5t26 54.5q1 3 63 198q47 134 70 209q12 32 23 68t23.5 79.5t20.5 69.5q31 112 80.5 250.5t61.5 175.5q6 18 12 41.5t12 40.5q1 3 11 34.5t18 57t6 25.5h-201q-1 1 -2.5 3.5t-4 6.5 t-1.5 6q1 5 5.5 9t9 5.5t4.5 0.5q212 -2 362 -2q14 0 39 0.5t45 0.5t37 -1q125 -10 213 -23q48 -6 94 -22q104 -42 162 -86q83 -67 128.5 -193t44 -259.5t-43.5 -236.5q-67 -163 -199.5 -303.5t-305.5 -230.5t-347 -104q-109 -10 -242 8q-62 10 -110 37q-26 19 -37 36 q-21 29 -21 99q-11 -38 -29 -66.5t-35 -45.5t-42.5 -27.5t-42 -15t-45 -4.5t-39 1t-35.5 4q-9 2 -16 7t-6 10zM104 744.5q-6 18.5 15 23.5q16 4 33.5 4.5t41.5 -1t35 -1.5q8 0 42 -1.5t48 -0.5q12 2 60 2t61 -2q7 -2 49.5 -0.5t49.5 0.5q127 -9 182 -2q14 0 61.5 1.5 t87.5 1.5t62 -3q9 -1 28.5 -1t28.5 -1q2 -1 14 -3.5t19.5 -6.5t7.5 -11q-1 -12 -27.5 -17t-44.5 -5q-16 2 -47 -2q-10 -2 -61.5 -1.5t-61.5 -0.5q-22 0 -227.5 4t-236.5 -2q-8 -1 -25 1t-25 1q-22 -5 -49 -2q-32 0 -98 4q-17 3 -23 21.5zM381 246q-27 -119 10 -187 q17 -33 84 -45q39 -7 113 6q16 2 49 7.5t49 7.5q34 4 107 33q99 38 182.5 103.5t134.5 150.5q18 32 46.5 93t41.5 87q38 68 74 205q37 134 61 268q23 137 -24 248q-9 22 -52 65t-79 58q-15 7 -32.5 12t-29.5 8.5t-34.5 7t-31 4.5t-35.5 4t-32 4q-20 3 -56 6.5t-46 4.5 q-8 0 -26 1t-26 1q-26 3 -49 -10q-12 -5 -19 -16.5t-14 -35t-8 -26.5q-38 -78 -47 -101q-29 -71 -63 -190q-9 -36 -21 -57q-5 -12 -39 -119t-37 -123q-3 -14 -15 -46.5t-15 -51.5q-8 -35 -31.5 -100.5t-30.5 -90.5q-3 -14 -34 -84q-5 -7 -7.5 -24t-3.5 -19q-2 -10 -7 -29.5 t-7 -29.5z" />
<glyph unicode="&#xd1;" horiz-adv-x="1521" d="M-250 -442q-9 35 33 77q3 3 13 15t15.5 17.5t14.5 13.5t18 14q21 15 80 69q63 51 104 119.5t87 177.5q49 112 94 235.5t70 203t70 230.5t67 220q5 19 16 49q2 5 7 26t10 30q3 4 14 43q2 7 18 51q6 19 18.5 58t18.5 59l43 151h-201q-2 0 -6.5 7.5t-3.5 11.5t4.5 6t9.5 4 l5 2q17 1 45 1t61 -0.5t45 -0.5h107q43 0 90 -21q7 -10 13.5 -21.5t11 -21t10 -24t8.5 -22t7.5 -25t6 -22.5t6.5 -25t6 -23q10 -35 32 -101t28 -85q3 -11 15.5 -45t17.5 -54q5 -21 34 -114q3 -12 13.5 -43.5t13.5 -48.5q2 -8 8 -23.5t8 -23.5q1 -4 2.5 -13.5t2.5 -13.5 q2 -4 6.5 -12.5t5.5 -12.5q4 -20 16.5 -55.5t16.5 -48.5q2 -5 7 -22t9 -25q2 -6 6 -23t8 -26q1 -2 10 -28t19 -32q9 2 14 23q3 9 9.5 27.5t9.5 27.5q14 40 35 114t30 103q3 12 31 103q30 92 61 210q21 92 70 205q50 106 82 148q33 42 53 76q3 6 13.5 16t13.5 14q15 21 33 39 q2 1 9.5 8.5l9.5 9.5t9 7.5t10.5 7.5l10.5 6t12 5.5t11.5 3t13.5 1.5q16 0 33 -13.5t16 -29.5q-2 -14 -8 -24t-18 -22.5t-17 -18.5q-26 -30 -33 -35q-29 -21 -39 -29q-15 -12 -72 -69q-45 -58 -53 -70q-6 -10 -25.5 -39t-29.5 -47q-27 -50 -43 -90q-4 -12 -28 -78.5 t-34 -101.5q-18 -79 -65 -230q-11 -36 -38.5 -134t-39.5 -134q-46 -155 -49 -170q-12 -56 -33 -117q-3 -9 -11 -34.5t-16 -45t-18 -30.5l8 -6q-11 2 -24 28q-12 24 -17 29q-11 14 -16.5 50.5t-9.5 47.5q-13 34 -33.5 106t-34.5 107q-16 39 -34 114t-23 91q-9 34 -29 101.5 t-29 101.5q-7 27 -23.5 99.5t-27.5 111.5q-10 34 -27.5 102t-27.5 102q-4 17 -14.5 49t-14.5 46q-7 25 -18 34q-12 -4 -17 -30q-3 -14 -8 -28.5t-12 -32.5t-10 -27q-3 -5 -19 -49q-60 -152 -151 -447t-123 -389q-17 -45 -48.5 -131t-50.5 -136.5t-50.5 -124t-63.5 -138.5 q-40 -73 -49 -84q-50 -75 -54 -80q-14 -28 -55 -80q-14 -18 -39.5 -24.5t-46.5 3.5q-33 14 -43 56zM786 1670q-13 13 0 47q7 19 21 34q37 24 52.5 29.5t51.5 5.5q27 -1 63 -18t50 -29l28.5 -19t44 -26t42.5 -15q46 -12 114 9q29 10 45 26q14 15 19 21t5.5 7.5t3.5 9t11 20.5 q7 13 21 18h2q10 -26 2 -41q-6 -11 -9 -17.5t-3.5 -8t-2 -4.5t-5.5 -8.5t-13 -18.5q-10 -11 -88 -68q-6 -2 -24.5 -8.5t-36.5 -10t-37 -1.5q-37 -5 -81 5t-75 25q-33 21 -61 43q-14 12 -30.5 23t-23.5 18q-4 1 -12.5 2.5t-23.5 -6t-25 -22.5q-14 -33 -25 -22z" />
<glyph unicode="&#xd2;" horiz-adv-x="1433" d="M16 471q-5 45 2 111q2 37 17 102q23 83 35.5 123t32.5 90t42 86q68 121 113 170q10 11 31 37.5t35 40.5q134 134 258 192q13 5 52.5 21.5t63.5 25t63 19.5t80 15.5t85 2.5q104 -4 186.5 -43t134.5 -96q13 -15 25 -31.5t26.5 -38t22.5 -32.5q15 -18 36.5 -66.5t24.5 -69.5 q21 -75 27 -149q1 -15 3.5 -50t2 -58t-5.5 -46q-2 -23 -6 -45t-6.5 -36t-11 -40.5t-11.5 -36t-16 -45t-17 -46.5q-14 -39 -27 -70t-21 -49.5t-22 -42.5t-19 -32t-23.5 -35t-24.5 -36q-48 -68 -159.5 -151.5t-188.5 -116.5q-19 -5 -41 -18q-34 -17 -102 -33 q-139 -39 -279 -29q-99 9 -193 72.5t-141 142.5q-52 77 -71 178q-2 15 -13 113zM238 193q39 -100 114 -142q34 -20 88 -29t99 -6q106 10 180 43q17 7 31.5 14t24.5 12t22.5 13.5t18 12t19 15.5t17 15t20 19t21.5 20q16 16 51 58q12 17 51 65.5t54 77.5q3 6 15 30.5 t16.5 33.5t14 30t14.5 34t11 31.5t10 34.5q39 152 52 256q9 61 7 190.5t-18 186.5q-27 110 -92 170q-65 62 -170 72q-25 2 -49.5 -1t-46.5 -10.5t-36.5 -14t-32.5 -16.5t-21 -11q-32 -16 -39 -19q-7 -4 -20 -16t-15 -14q-101 -88 -135 -150q-3 -5 -13 -16t-14 -19 q-12 -21 -28 -37q-27 -27 -45 -63q-7 -14 -21.5 -42.5t-21.5 -43.5q-5 -15 -19.5 -43.5t-19.5 -44.5q-2 -6 -17 -41q-3 -8 -7 -24.5t-7 -24.5q-27 -66 -55 -195q-60 -275 -8 -411zM754 1803q15 29 51.5 28t62.5 -30q19 -21 32.5 -36t27.5 -28t20.5 -20t21 -17.5t19.5 -14.5 t25 -17.5t29 -20.5q18 -12 30.5 -26t3.5 -21q-21 -2 -47 6q-12 4 -74.5 22t-104.5 36.5t-73 45.5q-47 41 -24 93z" />
<glyph unicode="&#xd3;" horiz-adv-x="1433" d="M16 471q-5 45 2 111q2 37 17 102q23 83 35.5 123t32.5 90t42 86q68 121 113 170q10 11 31 37.5t35 40.5q134 134 258 192q13 5 52.5 21.5t63.5 25t63 19.5t80 15.5t85 2.5q104 -4 186.5 -43t134.5 -96q13 -15 25 -31.5t26.5 -38t22.5 -32.5q15 -18 36.5 -66.5t24.5 -69.5 q21 -75 27 -149q1 -15 3.5 -50t2 -58t-5.5 -46q-2 -23 -6 -45t-6.5 -36t-11 -40.5t-11.5 -36t-16 -45t-17 -46.5q-14 -39 -27 -70t-21 -49.5t-22 -42.5t-19 -32t-23.5 -35t-24.5 -36q-48 -68 -159.5 -151.5t-188.5 -116.5q-19 -5 -41 -18q-34 -17 -102 -33 q-139 -39 -279 -29q-99 9 -193 72.5t-141 142.5q-52 77 -71 178q-2 15 -13 113zM238 193q39 -100 114 -142q34 -20 88 -29t99 -6q106 10 180 43q17 7 31.5 14t24.5 12t22.5 13.5t18 12t19 15.5t17 15t20 19t21.5 20q16 16 51 58q12 17 51 65.5t54 77.5q3 6 15 30.5 t16.5 33.5t14 30t14.5 34t11 31.5t10 34.5q39 152 52 256q9 61 7 190.5t-18 186.5q-27 110 -92 170q-65 62 -170 72q-25 2 -49.5 -1t-46.5 -10.5t-36.5 -14t-32.5 -16.5t-21 -11q-32 -16 -39 -19q-7 -4 -20 -16t-15 -14q-101 -88 -135 -150q-3 -5 -13 -16t-14 -19 q-12 -21 -28 -37q-27 -27 -45 -63q-7 -14 -21.5 -42.5t-21.5 -43.5q-5 -15 -19.5 -43.5t-19.5 -44.5q-2 -6 -17 -41q-3 -8 -7 -24.5t-7 -24.5q-27 -66 -55 -195q-60 -275 -8 -411zM717 1600q-9 7 3.5 21t31.5 26q10 7 29 20.5t24.5 17.5t19.5 14.5t21 17t20.5 19.5t27 28 t32.5 36q26 29 63 30t52 -28q22 -51 -25 -92q-31 -27 -73 -45.5t-104.5 -36.5t-74.5 -22q-26 -8 -47 -6z" />
<glyph unicode="&#xd4;" horiz-adv-x="1433" d="M16 471q-5 45 2 111q2 37 17 102q23 83 35.5 123t32.5 90t42 86q68 121 113 170q10 11 31 37.5t35 40.5q134 134 258 192q13 5 52.5 21.5t63.5 25t63 19.5t80 15.5t85 2.5q104 -4 186.5 -43t134.5 -96q13 -15 25 -31.5t26.5 -38t22.5 -32.5q15 -18 36.5 -66.5t24.5 -69.5 q21 -75 27 -149q1 -15 3.5 -50t2 -58t-5.5 -46q-2 -23 -6 -45t-6.5 -36t-11 -40.5t-11.5 -36t-16 -45t-17 -46.5q-14 -39 -27 -70t-21 -49.5t-22 -42.5t-19 -32t-23.5 -35t-24.5 -36q-48 -68 -159.5 -151.5t-188.5 -116.5q-19 -5 -41 -18q-34 -17 -102 -33 q-139 -39 -279 -29q-99 9 -193 72.5t-141 142.5q-52 77 -71 178q-2 15 -13 113zM238 193q39 -100 114 -142q34 -20 88 -29t99 -6q106 10 180 43q17 7 31.5 14t24.5 12t22.5 13.5t18 12t19 15.5t17 15t20 19t21.5 20q16 16 51 58q12 17 51 65.5t54 77.5q3 6 15 30.5 t16.5 33.5t14 30t14.5 34t11 31.5t10 34.5q39 152 52 256q9 61 7 190.5t-18 186.5q-27 110 -92 170q-65 62 -170 72q-25 2 -49.5 -1t-46.5 -10.5t-36.5 -14t-32.5 -16.5t-21 -11q-32 -16 -39 -19q-7 -4 -20 -16t-15 -14q-101 -88 -135 -150q-3 -5 -13 -16t-14 -19 q-12 -21 -28 -37q-27 -27 -45 -63q-7 -14 -21.5 -42.5t-21.5 -43.5q-5 -15 -19.5 -43.5t-19.5 -44.5q-2 -6 -17 -41q-3 -8 -7 -24.5t-7 -24.5q-27 -66 -55 -195q-60 -275 -8 -411zM715 1614q-15 15 55 92q11 13 18 20.5t12 13t13.5 13t13.5 11.5l22.5 18t29.5 24 q21 18 30.5 26t25.5 16t36 13q22 -19 40 -39.5t25.5 -31t25.5 -38.5t23 -36q15 -24 27 -62.5t0 -46.5q-1 -7 -27 13t-51 45q-12 12 -36.5 35t-47.5 47q-92 -61 -131 -86q-29 -19 -66 -36.5t-38 -10.5z" />
<glyph unicode="&#xd5;" horiz-adv-x="1433" d="M16 471q-5 45 2 111q2 37 17 102q23 83 35.5 123t32.5 90t42 86q68 121 113 170q10 11 31 37.5t35 40.5q134 134 258 192q13 5 52.5 21.5t63.5 25t63 19.5t80 15.5t85 2.5q104 -4 186.5 -43t134.5 -96q13 -15 25 -31.5t26.5 -38t22.5 -32.5q15 -18 36.5 -66.5t24.5 -69.5 q21 -75 27 -149q1 -15 3.5 -50t2 -58t-5.5 -46q-2 -23 -6 -45t-6.5 -36t-11 -40.5t-11.5 -36t-16 -45t-17 -46.5q-14 -39 -27 -70t-21 -49.5t-22 -42.5t-19 -32t-23.5 -35t-24.5 -36q-48 -68 -159.5 -151.5t-188.5 -116.5q-19 -5 -41 -18q-34 -17 -102 -33 q-139 -39 -279 -29q-99 9 -193 72.5t-141 142.5q-52 77 -71 178q-2 15 -13 113zM238 193q39 -100 114 -142q34 -20 88 -29t99 -6q106 10 180 43q17 7 31.5 14t24.5 12t22.5 13.5t18 12t19 15.5t17 15t20 19t21.5 20q16 16 51 58q12 17 51 65.5t54 77.5q3 6 15 30.5 t16.5 33.5t14 30t14.5 34t11 31.5t10 34.5q39 152 52 256q9 61 7 190.5t-18 186.5q-27 110 -92 170q-65 62 -170 72q-25 2 -49.5 -1t-46.5 -10.5t-36.5 -14t-32.5 -16.5t-21 -11q-32 -16 -39 -19q-7 -4 -20 -16t-15 -14q-101 -88 -135 -150q-3 -5 -13 -16t-14 -19 q-12 -21 -28 -37q-27 -27 -45 -63q-7 -14 -21.5 -42.5t-21.5 -43.5q-5 -15 -19.5 -43.5t-19.5 -44.5q-2 -6 -17 -41q-3 -8 -7 -24.5t-7 -24.5q-27 -66 -55 -195q-60 -275 -8 -411zM643 1670q-13 13 0 47q7 19 21 34q37 24 52.5 29.5t51.5 5.5q27 -1 63 -18t50 -29l28.5 -19 t44 -26t42.5 -15q47 -12 114 8q27 9 45 27q18 19 21 23t6 11.5t12 22.5q7 13 21 19h2q10 -26 2 -41q-6 -11 -9 -17.5t-3.5 -8t-2 -4.5t-5.5 -8.5t-13 -18.5q-10 -11 -88 -68q-7 -2 -25 -8.5t-36 -10.5t-37 -2q-71 -10 -156 31q-33 21 -61 43q-14 12 -30.5 23t-23.5 18 q-4 1 -12.5 2.5t-23.5 -6t-25 -22.5q-14 -33 -25 -22z" />
<glyph unicode="&#xd6;" horiz-adv-x="1433" d="M16 471q-5 45 2 111q2 37 17 102q23 83 35.5 123t32.5 90t42 86q68 121 113 170q10 11 31 37.5t35 40.5q134 134 258 192q13 5 52.5 21.5t63.5 25t63 19.5t80 15.5t85 2.5q104 -4 186.5 -43t134.5 -96q13 -15 25 -31.5t26.5 -38t22.5 -32.5q15 -18 36.5 -66.5t24.5 -69.5 q21 -75 27 -149q1 -15 3.5 -50t2 -58t-5.5 -46q-2 -23 -6 -45t-6.5 -36t-11 -40.5t-11.5 -36t-16 -45t-17 -46.5q-14 -39 -27 -70t-21 -49.5t-22 -42.5t-19 -32t-23.5 -35t-24.5 -36q-48 -68 -159.5 -151.5t-188.5 -116.5q-19 -5 -41 -18q-34 -17 -102 -33 q-139 -39 -279 -29q-99 9 -193 72.5t-141 142.5q-52 77 -71 178q-2 15 -13 113zM238 193q39 -100 114 -142q34 -20 88 -29t99 -6q106 10 180 43q17 7 31.5 14t24.5 12t22.5 13.5t18 12t19 15.5t17 15t20 19t21.5 20q16 16 51 58q12 17 51 65.5t54 77.5q3 6 15 30.5 t16.5 33.5t14 30t14.5 34t11 31.5t10 34.5q39 152 52 256q9 61 7 190.5t-18 186.5q-27 110 -92 170q-65 62 -170 72q-25 2 -49.5 -1t-46.5 -10.5t-36.5 -14t-32.5 -16.5t-21 -11q-32 -16 -39 -19q-7 -4 -20 -16t-15 -14q-101 -88 -135 -150q-3 -5 -13 -16t-14 -19 q-12 -21 -28 -37q-27 -27 -45 -63q-7 -14 -21.5 -42.5t-21.5 -43.5q-5 -15 -19.5 -43.5t-19.5 -44.5q-2 -6 -17 -41q-3 -8 -7 -24.5t-7 -24.5q-27 -66 -55 -195q-60 -275 -8 -411zM750 1679q-5 47 18 56q5 2 27 24q4 2 33 12q37 5 59 -22q25 -38 27 -60q4 -31 -16.5 -54.5 t-53.5 -31.5q-34 -9 -68 15q-16 12 -22 20q-4 28 -4 41zM1055 1679q-5 47 18 56q5 2 27 24q4 2 33 12q37 5 59 -22q25 -38 27 -60q4 -31 -16.5 -54.5t-53.5 -31.5q-33 -9 -67 15q-18 14 -23 20q-4 28 -4 41z" />
<glyph unicode="&#xd7;" horiz-adv-x="897" d="M82 1063q-6 8 2 15t18 7q12 -1 24 -9t19.5 -15t19 -20t15.5 -17q68 -78 162 -166q31 -28 59 -59q2 -2 7 -7.5t9 -9.5t10 -9t10.5 -7t10 -2t9.5 4q23 22 63.5 66.5t44.5 48.5q57 57 109 121q6 8 25.5 25t27.5 30q37 18 49 6q4 -2 2 -8t-6 -10q-10 -8 -22 -23 q-13 -18 -35 -33l-7 -9q-6 -8 -8 -13q-3 -6 -11 -13.5t-11 -11.5q-21 -21 -65.5 -77.5t-73.5 -82.5q-59 -50 -45 -73q8 -14 20.5 -27.5t29.5 -29.5t25 -25q10 -11 35.5 -36t38.5 -40q21 -25 27 -39q22 -25 47 -47q5 -4 31.5 -31.5t42.5 -38.5q19 -14 6 -22q-15 -8 -31 4 q-58 51 -148 145q-14 15 -81 82q-27 27 -39 41q-2 3 -7.5 9.5t-9 10.5t-8.5 9t-10 8q-9 2 -15 2.5t-15.5 -6t-15 -11.5t-13.5 -13l-11 -11q-1 -2 -6.5 -7.5t-7.5 -10.5q-18 -12 -21 -15q-6 -6 -17 -20.5t-17 -20.5t-15.5 -18t-15.5 -18q-4 -5 -15 -14t-16 -15 q-9 -13 -21.5 -25.5t-29.5 -27.5t-25 -23q-27 -27 -41 -39q-12 -16 -20 -20q-7 -4 -14 -1t-7 11q-2 12 15 29q9 10 60 62.5t75 82.5q59 71 156 168q1 9 -5.5 19t-13.5 17t-17.5 16.5t-13.5 12.5q-15 14 -44.5 41.5t-43.5 42.5q-33 30 -79 80q-6 7 -23 26t-29.5 32t-25.5 24 q-3 2 -8.5 6t-9.5 7t-8.5 7.5t-6.5 8.5z" />
<glyph unicode="&#xd8;" horiz-adv-x="1437" d="M16 465q-5 44 2 110q2 38 17 103q23 83 35.5 123t32.5 90t42 86q68 121 113 170q10 11 31 37.5t35 40.5q134 134 258 192q6 2 44.5 17.5t54 21t54.5 17.5t66 17t65.5 8.5t75.5 2.5q24 89 32 108.5t19 63.5q6 23 14.5 31.5t26.5 7.5q7 -1 10.5 -6.5t3 -14.5t-1.5 -17 t-3.5 -18t-2.5 -14q-4 -20 -24.5 -80t-22.5 -65q79 -14 146 -51.5t108 -83.5q13 -15 25 -31.5t26.5 -38t22.5 -32.5q15 -18 36.5 -66.5t24.5 -69.5q21 -75 27 -149q1 -15 3.5 -50t2 -58t-5.5 -46q-2 -19 -4 -36.5t-6.5 -36t-7.5 -30.5t-10.5 -34.5t-11 -32.5t-14 -39 t-14.5 -41q-14 -39 -27 -70t-21 -49.5t-21.5 -41.5t-19.5 -32t-23.5 -34.5t-24.5 -36.5q-48 -68 -159.5 -151.5t-188.5 -116.5q-16 -4 -41 -19q-30 -16 -102 -32q-114 -30 -213 -33q-32 -107 -49 -154q-6 -18 -15 -22t-14 1l-6 5q-12 9 -3.5 60.5t27.5 111.5q-99 9 -196 74 t-144 143q-52 77 -71 178q-2 14 -13 113zM238 186q38 -98 114 -141q51 -26 113 -37q6 21 14 45q16 48 35 117q10 40 37 123q10 27 21.5 73.5t35.5 110.5q7 18 30.5 89t39.5 106q3 15 13 42.5t14 43.5q15 40 100 297q7 18 16.5 55.5t14.5 52.5q80 264 86 279q-18 -1 -29 0.5 t-28.5 -2t-27 -5t-25.5 -7t-23 -8t-21 -8.5t-18.5 -8t-15 -7t-11.5 -6q-32 -16 -39 -19q-7 -4 -19.5 -16t-15.5 -15q-102 -89 -135 -149q-3 -5 -13 -16t-14 -19q-12 -21 -28 -37q-27 -27 -45 -63q-7 -14 -21.5 -42.5t-21.5 -43.5q-5 -15 -19.5 -44t-19.5 -44q-2 -6 -17 -41 q-3 -8 -7 -24.5t-7 -24.5q-27 -66 -55 -195q-60 -276 -8 -412zM514 0q108 11 205 53q17 7 31.5 14t24.5 12t22.5 13.5t18 12t19 15.5t17 15t20 19t21.5 20q21 21 51 57q11 16 50.5 65.5t54.5 78.5q3 6 15 30.5t16.5 33.5t14 30t14.5 34t11 31.5t10 34.5q39 152 52 256 q9 61 7 190.5t-18 186.5q-27 110 -92 170q-40 40 -108 62q-18 -75 -74 -240q-3 -13 -15 -45t-14 -47q-6 -18 -14 -58t-14 -57q-13 -34 -29.5 -89.5t-28.5 -88.5q-49 -132 -86 -244q-42 -132 -51 -145q-2 -16 -12 -45q-5 -18 -17 -43q-4 -22 -19 -72t-19 -70 q-11 -30 -33 -97.5t-31 -92.5z" />
<glyph unicode="&#xd9;" horiz-adv-x="1435" d="M65 413.5q2 22.5 1.5 28t3.5 27t5 27t5.5 28t5.5 29.5q5 32 24.5 106t24.5 99q3 10 13.5 41.5t13.5 48.5q5 24 23.5 78.5t21.5 66.5q23 63 51.5 147.5t60.5 170.5q16 41 -15 68.5t-75 29.5q-6 0 -21.5 0.5t-21.5 1t-14.5 2.5t-12.5 6t-5 11q8 22 99.5 25t115.5 -7 q7 -2 21.5 -6t20.5 -6t15 -5.5t15.5 -7.5t13.5 -10q15 -12 30.5 -34.5t23 -38.5t5.5 -15q24 62 102 89.5t170 12.5q2 0 6 -5.5t1 -10.5q-7 -14 -25 -14q-105 7 -158 -22t-100 -120q-30 -75 -46.5 -116t-30.5 -85t-19 -60t-23 -81q-34 -119 -35 -122q-5 -14 -15 -58.5 t-15 -58.5q-1 -6 -11 -40.5t-14 -53.5q-23 -96 -39 -211q-6 -32 -2 -103q5 -145 47 -196q26 -35 80 -50q73 -17 207 21q82 34 88 37q80 39 123.5 98t79.5 152q28 66 61 174q42 124 131 391l107 321q8 18 21 53.5t26 66.5t29 57q25 44 34 55q15 19 68 57q10 3 30.5 13 t32.5 12q26 5 42.5 -5.5t13.5 -35.5q-1 -10 -3 -18t-6 -16.5t-7 -13.5t-10.5 -15.5t-10.5 -14.5q-5 -5 -19.5 -14t-19.5 -13q-14 -7 -43 -32q-25 -17 -66 -68q-52 -64 -155 -360.5t-150 -460.5q-42 -145 -121.5 -260.5t-193.5 -167.5q-63 -26 -90 -33q-53 -16 -117.5 -21.5 t-120.5 3.5q-75 14 -125 45t-102 90q-31 33 -43 114t-12 152q-3 8 -1 30.5zM741 1802q15 29 52 28t63 -30q19 -21 32.5 -36t27 -28t20.5 -19.5t21 -17t19.5 -14.5t24.5 -17.5t29 -20.5q18 -12 31 -26.5t4 -21.5q-19 -2 -47 7q-12 4 -74.5 22t-104.5 36.5t-73 45.5 q-47 41 -25 92z" />
<glyph unicode="&#xda;" horiz-adv-x="1435" d="M65 413.5q2 22.5 1.5 28t3.5 27t5 27t5.5 28t5.5 29.5q5 32 24.5 106t24.5 99q3 10 13.5 41.5t13.5 48.5q5 24 23.5 78.5t21.5 66.5q23 63 51.5 147.5t60.5 170.5q16 41 -15 68.5t-75 29.5q-6 0 -21.5 0.5t-21.5 1t-14.5 2.5t-12.5 6t-5 11q8 22 99.5 25t115.5 -7 q7 -2 21.5 -6t20.5 -6t15 -5.5t15.5 -7.5t13.5 -10q15 -12 30.5 -34.5t23 -38.5t5.5 -15q24 62 102 89.5t170 12.5q2 0 6 -5.5t1 -10.5q-7 -14 -25 -14q-105 7 -158 -22t-100 -120q-30 -75 -46.5 -116t-30.5 -85t-19 -60t-23 -81q-34 -119 -35 -122q-5 -14 -15 -58.5 t-15 -58.5q-1 -6 -11 -40.5t-14 -53.5q-23 -96 -39 -211q-6 -32 -2 -103q5 -145 47 -196q26 -35 80 -50q73 -17 207 21q82 34 88 37q80 39 123.5 98t79.5 152q28 66 61 174q42 124 131 391l107 321q8 18 21 53.5t26 66.5t29 57q25 44 34 55q15 19 68 57q10 3 30.5 13 t32.5 12q26 5 42.5 -5.5t13.5 -35.5q-1 -10 -3 -18t-6 -16.5t-7 -13.5t-10.5 -15.5t-10.5 -14.5q-5 -5 -19.5 -14t-19.5 -13q-14 -7 -43 -32q-25 -17 -66 -68q-52 -64 -155 -360.5t-150 -460.5q-42 -145 -121.5 -260.5t-193.5 -167.5q-63 -26 -90 -33q-53 -16 -117.5 -21.5 t-120.5 3.5q-75 14 -125 45t-102 90q-31 33 -43 114t-12 152q-3 8 -1 30.5zM662 1599q-9 7 3.5 21.5t30.5 26.5q10 7 29 20.5t24.5 17.5t19.5 14.5t21 17t20.5 19.5t27 28t32.5 36q26 29 63 30t52 -28q23 -51 -24 -92q-31 -27 -73 -45.5t-104.5 -36.5t-74.5 -22 q-28 -9 -47 -7z" />
<glyph unicode="&#xdb;" horiz-adv-x="1435" d="M65 413.5q2 22.5 1.5 28t3.5 27t5 27t5.5 28t5.5 29.5q5 32 24.5 106t24.5 99q3 10 13.5 41.5t13.5 48.5q5 24 23.5 78.5t21.5 66.5q23 63 51.5 147.5t60.5 170.5q16 41 -15 68.5t-75 29.5q-6 0 -21.5 0.5t-21.5 1t-14.5 2.5t-12.5 6t-5 11q8 22 99.5 25t115.5 -7 q7 -2 21.5 -6t20.5 -6t15 -5.5t15.5 -7.5t13.5 -10q15 -12 30.5 -34.5t23 -38.5t5.5 -15q24 62 102 89.5t170 12.5q2 0 6 -5.5t1 -10.5q-7 -14 -25 -14q-105 7 -158 -22t-100 -120q-30 -75 -46.5 -116t-30.5 -85t-19 -60t-23 -81q-34 -119 -35 -122q-5 -14 -15 -58.5 t-15 -58.5q-1 -6 -11 -40.5t-14 -53.5q-23 -96 -39 -211q-6 -32 -2 -103q5 -145 47 -196q26 -35 80 -50q73 -17 207 21q82 34 88 37q80 39 123.5 98t79.5 152q28 66 61 174q42 124 131 391l107 321q8 18 21 53.5t26 66.5t29 57q25 44 34 55q15 19 68 57q10 3 30.5 13 t32.5 12q26 5 42.5 -5.5t13.5 -35.5q-1 -10 -3 -18t-6 -16.5t-7 -13.5t-10.5 -15.5t-10.5 -14.5q-5 -5 -19.5 -14t-19.5 -13q-14 -7 -43 -32q-25 -17 -66 -68q-52 -64 -155 -360.5t-150 -460.5q-42 -145 -121.5 -260.5t-193.5 -167.5q-63 -26 -90 -33q-53 -16 -117.5 -21.5 t-120.5 3.5q-75 14 -125 45t-102 90q-31 33 -43 114t-12 152q-3 8 -1 30.5zM690 1614q-15 15 55 92q11 13 18 20.5t12 13t13.5 13t13.5 11.5l22.5 18t29.5 24q22 19 30.5 26t25.5 16t36 14q22 -19 40.5 -40t25.5 -31t26 -39.5t23 -35.5q15 -24 26.5 -62t-0.5 -46 q-1 -7 -27 13t-50 44q-12 12 -36.5 35t-47.5 47q-92 -61 -131 -86q-29 -19 -66.5 -36.5t-38.5 -10.5z" />
<glyph unicode="&#xdc;" horiz-adv-x="1435" d="M65 413.5q2 22.5 1.5 28t3.5 27t5 27t5.5 28t5.5 29.5q5 32 24.5 106t24.5 99q3 10 13.5 41.5t13.5 48.5q5 24 23.5 78.5t21.5 66.5q23 63 51.5 147.5t60.5 170.5q16 41 -15 68.5t-75 29.5q-6 0 -21.5 0.5t-21.5 1t-14.5 2.5t-12.5 6t-5 11q8 22 99.5 25t115.5 -7 q7 -2 21.5 -6t20.5 -6t15 -5.5t15.5 -7.5t13.5 -10q15 -12 30.5 -34.5t23 -38.5t5.5 -15q24 62 102 89.5t170 12.5q2 0 6 -5.5t1 -10.5q-7 -14 -25 -14q-105 7 -158 -22t-100 -120q-30 -75 -46.5 -116t-30.5 -85t-19 -60t-23 -81q-34 -119 -35 -122q-5 -14 -15 -58.5 t-15 -58.5q-1 -6 -11 -40.5t-14 -53.5q-23 -96 -39 -211q-6 -32 -2 -103q5 -145 47 -196q26 -35 80 -50q73 -17 207 21q82 34 88 37q80 39 123.5 98t79.5 152q28 66 61 174q42 124 131 391l107 321q8 18 21 53.5t26 66.5t29 57q25 44 34 55q15 19 68 57q10 3 30.5 13 t32.5 12q26 5 42.5 -5.5t13.5 -35.5q-1 -10 -3 -18t-6 -16.5t-7 -13.5t-10.5 -15.5t-10.5 -14.5q-5 -5 -19.5 -14t-19.5 -13q-14 -7 -43 -32q-25 -17 -66 -68q-52 -64 -155 -360.5t-150 -460.5q-42 -145 -121.5 -260.5t-193.5 -167.5q-63 -26 -90 -33q-53 -16 -117.5 -21.5 t-120.5 3.5q-75 14 -125 45t-102 90q-31 33 -43 114t-12 152q-3 8 -1 30.5zM649 1677q-5 46 19 56q4 2 8.5 5.5t10 10t7.5 8.5q4 2 33 12q37 5 59 -22q25 -38 27 -59q4 -31 -16.5 -54.5t-53.5 -31.5q-34 -9 -67 14q-18 14 -23 20q-4 28 -4 41zM954 1677q-5 46 19 56 q4 2 8.5 5.5t10 10t7.5 8.5q4 2 33 12q38 6 60 -22q24 -36 26 -59q4 -31 -16.5 -54.5t-52.5 -31.5q-35 -9 -68 14q-18 14 -23 20q-4 28 -4 41z" />
<glyph unicode="&#xdd;" d="M-292.5 -412.5q-0.5 38.5 28.5 72.5q32 36 90 0q34 -28 113 -47q96 6 134.5 23.5t104.5 91.5q16 22 30 41t16 22l7 10.5t5 8.5t9 15t19.5 31t35 55.5t56.5 88.5q5 124 4 156q-3 100 2 177.5t5 104.5q0 47 -1.5 181.5t-0.5 199.5q1 52 4.5 116t3 84t-3.5 132 q-3 76 -10.5 106t-39.5 80q-16 24 -77 41t-99 17l-3 3t-5 6t-2 7q2 4 7.5 7.5t10.5 5.5l5 1l23 4q23 4 71.5 4t105.5 -10q80 -14 117 -49.5t66 -107.5q6 35 17.5 62.5t24 45t32 29.5t33.5 18t38.5 9t37.5 3.5t38 0.5h8q1 -1 2 -3t3 -7t1 -9t-5 -7t-7 -4l-4 -1h-31.5t-32 -3 t-34.5 -9t-31 -18.5t-30 -30.5t-21.5 -46.5t-16.5 -64.5q0 -92 -2 -278t-2 -285q0 -18 -2 -118t-2 -140v-7v-17t1.5 -11t5 -7.5t9.5 -0.5q181 321 262 475q26 45 98.5 174t106.5 182q11 17 27.5 44t30 49t32 50t34.5 50.5t36.5 46.5t39 41.5t40.5 32t43 21t45 6t47 -10.5 q21 -8 28.5 -32t-3.5 -50q-8 -22 -36.5 -28.5t-61.5 -4.5t-75.5 -13.5t-72.5 -53.5q-46 -61 -147.5 -230.5t-185 -316.5t-190.5 -338t-110 -197q-394 -698 -561 -753q-43 -14 -87 -21t-93 -2t-80 27q-28 34 -28.5 72.5zM698 1602q-9 7 3.5 21t31.5 26q10 7 29 20.5 t24.5 17.5t19.5 14.5t21 17t20.5 19.5t27 28t32.5 36q26 29 63 30t52 -28q22 -51 -25 -92q-31 -27 -73 -45.5t-104.5 -36.5t-74.5 -22q-26 -8 -47 -6z" />
<glyph unicode="&#xde;" horiz-adv-x="1431" d="M66.5 5.5q-0.5 3.5 0.5 8.5t3 9q1 3 3.5 5.5t4.5 3.5l2 1q6 0 35.5 -1t42.5 -0.5t40.5 6t44.5 17t38.5 34.5t37.5 56q64 190 122.5 369.5t123.5 382.5t109 338q11 36 15 58.5t0.5 44.5t-19.5 34q-54 41 -141 34l-5 -1q-2 0 -3.5 6t-0.5 10q1 3 4 6t6 5l2 2q0 1 35 3.5 t82 4t94 -1.5q29 -3 62 -13t59.5 -35t16.5 -57q-2 -6 -1 -6q2 -1 16 14q59 60 105 78q53 19 109 13q13 -1 18.5 -1.5t11 -2.5t4.5 -5t-1 -8q-7 -18 -43 -18q-60 0 -134 -56t-112 -159q68 0 158 -10q84 -5 157.5 -34t128 -80t78.5 -130t6 -174q-93 -426 -669 -426l-117 4 q-25 -62 -37 -116.5t-7 -97.5t30 -63q9 -6 18.5 -9.5t16 -3.5h19t19.5 -1q3 -1 14 0.5t20 1t11 -5.5q1 -3 -0.5 -6t-4.5 -5.5t-5 -3.5t-6.5 -3.5t-5.5 -2.5q-7 -2 -29.5 -10.5t-28 -9.5t-30 -7t-36 -4t-46.5 1q-29 2 -49 6.5t-28 8t-20 10.5t-18 10q-9 5 -33.5 35.5 t-23.5 37.5q0 3 -2 -2q-23 -49 -80 -76q-33 -16 -93 -19.5t-93 3.5q-1 0 -1.5 3.5zM614 399q0 -9 6.5 -11t18.5 0.5t14 2.5q96 -5 184.5 14t165 62t131 118t74.5 175q22 109 12 170t-57 121q-19 24 -71 45.5t-101 29.5q-74 9 -100 9h-16q-18 0 -21.5 -1.5t-6.5 -13.5 q-1 -3 -1 -4q-15 -51 -119 -368q-33 -92 -47 -140q-6 -22 -24.5 -68.5t-24.5 -72.5q-1 -6 -4 -17.5t-4 -17.5q0 -2 -5 -14.5t-4 -18.5z" />
<glyph unicode="&#xdf;" horiz-adv-x="1247" d="M-537.5 -474.5q-7.5 33.5 0.5 62.5q12 41 62 73.5t84 8.5q22 -13 29 -41t0 -53q-4 -11 -14 -31.5t-11 -23.5q-1 -4 -2 -14t-2 -15q1 -5 7 -9.5t7 -6.5q50 -14 98 6q14 8 26.5 19t21 19.5t20 25t17 24t18.5 29t18 28.5q23 34 52 106.5t43 98.5q17 35 40 104t35 97 q25 60 63 178.5t52 157.5q28 86 37 110q20 46 31 96q6 15 15 51t15 52q59 158 72 209q34 75 63 130.5t41.5 76t48.5 72.5t48 69q40 58 89 102.5t124 96.5q63 47 159 63q46 11 91.5 7t91.5 -27q19 -7 49 -27q2 -2 12.5 -16t20.5 -26.5t14 -16.5q19 -44 23.5 -80t-8 -88 t-63 -116.5t-138.5 -143.5q-46 -29 -80 -53t-53 -41.5t-28 -27t-17 -21.5t-9 -13q-26 -36 -26 -107q3 -49 24 -89.5t60 -90.5q63 -81 86 -151q7 -22 16 -99q1 -8 1.5 -15t-0.5 -16l-1.5 -13.5t-3.5 -15t-4 -13.5t-5 -16t-5 -15q-1 -1 -6.5 -17t-12 -29t-14.5 -24 q-8 -10 -17 -19t-15 -14.5t-17.5 -12.5t-15 -9t-18 -9.5t-16.5 -8.5q-67 -33 -92 -37q-95 -17 -133 -13q-98 12 -166 80q-2 3 -9.5 13t-12 16.5t-10 16.5t-8 19t-1.5 17q4 61 31 84q19 15 44.5 18.5t47.5 -8.5q38 -23 41 -69q1 -15 -2 -29.5t-8.5 -32t-7.5 -28.5 q-3 -27 4 -39.5t31 -18.5q29 -6 96 8q46 10 94 58q22 19 31 37q15 29 18 41q13 55 -2 102q-14 33 -14 43q-6 10 -25 39q-8 13 -24.5 38.5t-24.5 39.5q-8 11 -33 45.5t-36.5 52.5t-23.5 48.5t-13 58.5q0 28 6 55q6 31 30 69t52 60q29 25 111.5 77.5t158.5 114.5 q91 72 141 137.5t60.5 111t-2.5 85.5t-33 62t-47 39q-41 27 -89.5 33.5t-84 -2t-56.5 -25.5q-4 -3 -29.5 -21t-42 -31t-26.5 -24q-36 -40 -67.5 -89t-41.5 -63q-32 -56 -122 -249q-31 -64 -37 -99q-16 -37 -17 -45q-3 -9 -20 -54t-32 -84.5t-19 -55.5q-9 -42 -64 -213 q-17 -58 -61 -203q-23 -74 -42.5 -125t-43 -103.5t-35.5 -82.5q-6 -13 -25.5 -46t-27.5 -53q-6 -15 -14.5 -29.5t-20.5 -34t-17 -28.5q-21 -32 -67 -94l-29.5 -29.5l-33 -33t-30 -28t-36.5 -30t-35.5 -23.5t-44.5 -25t-47 -19q-22 -8 -60 -9.5t-55 4.5q-31 8 -47 19 q-8 6 -22.5 16.5t-22.5 16.5q-20 20 -27.5 53.5z" />
<glyph unicode="&#xe0;" horiz-adv-x="1052" d="M63 266q5 54 25 131q29 97 68.5 165t115.5 147q46 40 70 57q83 72 162 102q20 9 102 39q50 13 99 13q24 1 45.5 -1t32.5 -4.5t30 -7.5t25 -6q13 -4 24.5 -10t28.5 -18t22 -15q31 -21 39.5 -69.5t0.5 -95.5t-23 -85q-2 -5 -14.5 -36.5t-16.5 -49.5q-2 -15 -14.5 -43 t-14.5 -33q-4 -12 -28 -86q-20 -44 -60 -182q-16 -62 35 -121q19 -19 40 -20t51 29.5t69 95.5q1 1 4 7q24 46 33 28q-6 -18 -22 -46.5t-21 -39.5q-27 -55 -75.5 -94.5t-111.5 -39.5q-20 0 -38 6t-27.5 12.5t-23 17.5t-17.5 14l-7.5 7.5t-6.5 7.5t-5 6.5t-5 7l-4 6t-4 7.5 t-4 7.5t-4.5 9t-4.5 10.5q-6 14 -6 43q-3 26 -25 15q-151 -116 -260 -150q-38 -14 -90 -9.5t-82 30.5q-5 5 -17.5 14.5t-21 17.5t-14.5 17q-25 40 -41 90q-16 58 -13 102zM227.5 288q-12.5 -84 1.5 -155q11 -48 50 -73.5t88 -10.5q99 36 176 101q57 45 67 67q2 5 9 16.5 t10 16.5q4 8 20 72q36 110 107 303q14 38 26 84q2 4 10 21.5t11 29t4 24.5q3 32 -12 63.5t-45 41.5q-90 8 -195 -55q-18 -11 -43 -31q-76 -63 -129.5 -144.5t-106.5 -203.5q-36 -83 -48.5 -167zM428 1405q15 29 51.5 28t62.5 -30q19 -21 32.5 -36t27.5 -28t20.5 -20 t21 -17.5t19.5 -14.5t25 -17.5t29 -20.5q18 -12 30.5 -26t3.5 -21q-21 -2 -47 6q-12 4 -74.5 22t-104.5 36.5t-73 45.5q-47 41 -24 93z" />
<glyph unicode="&#xe1;" horiz-adv-x="1052" d="M63 266q5 54 25 131q29 97 68.5 165t115.5 147q46 40 70 57q83 72 162 102q20 9 102 39q50 13 99 13q24 1 45.5 -1t32.5 -4.5t30 -7.5t25 -6q13 -4 24.5 -10t28.5 -18t22 -15q31 -21 39.5 -69.5t0.5 -95.5t-23 -85q-2 -5 -14.5 -36.5t-16.5 -49.5q-2 -15 -14.5 -43 t-14.5 -33q-4 -12 -28 -86q-20 -44 -60 -182q-16 -62 35 -121q19 -19 40 -20t51 29.5t69 95.5q1 1 4 7q24 46 33 28q-6 -18 -22 -46.5t-21 -39.5q-27 -55 -75.5 -94.5t-111.5 -39.5q-20 0 -38 6t-27.5 12.5t-23 17.5t-17.5 14l-7.5 7.5t-6.5 7.5t-5 6.5t-5 7l-4 6t-4 7.5 t-4 7.5t-4.5 9t-4.5 10.5q-6 14 -6 43q-3 26 -25 15q-151 -116 -260 -150q-38 -14 -90 -9.5t-82 30.5q-5 5 -17.5 14.5t-21 17.5t-14.5 17q-25 40 -41 90q-16 58 -13 102zM227.5 288q-12.5 -84 1.5 -155q11 -48 50 -73.5t88 -10.5q99 36 176 101q57 45 67 67q2 5 9 16.5 t10 16.5q4 8 20 72q36 110 107 303q14 38 26 84q2 4 10 21.5t11 29t4 24.5q3 32 -12 63.5t-45 41.5q-90 8 -195 -55q-18 -11 -43 -31q-76 -63 -129.5 -144.5t-106.5 -203.5q-36 -83 -48.5 -167zM590 1186q-9 7 3.5 21t31.5 26q10 7 29 20.5t24.5 17.5t19.5 14.5t21 17 t20.5 19.5t27 28t32.5 36q26 29 63 30t52 -28q22 -51 -25 -92q-31 -27 -73 -45.5t-104.5 -36.5t-74.5 -22q-26 -8 -47 -6z" />
<glyph unicode="&#xe2;" horiz-adv-x="1052" d="M63 266q5 54 25 131q29 97 68.5 165t115.5 147q46 40 70 57q83 72 162 102q20 9 102 39q50 13 99 13q24 1 45.5 -1t32.5 -4.5t30 -7.5t25 -6q13 -4 24.5 -10t28.5 -18t22 -15q31 -21 39.5 -69.5t0.5 -95.5t-23 -85q-2 -5 -14.5 -36.5t-16.5 -49.5q-2 -15 -14.5 -43 t-14.5 -33q-4 -12 -28 -86q-20 -44 -60 -182q-16 -62 35 -121q19 -19 40 -20t51 29.5t69 95.5q1 1 4 7q24 46 33 28q-6 -18 -22 -46.5t-21 -39.5q-27 -55 -75.5 -94.5t-111.5 -39.5q-20 0 -38 6t-27.5 12.5t-23 17.5t-17.5 14l-7.5 7.5t-6.5 7.5t-5 6.5t-5 7l-4 6t-4 7.5 t-4 7.5t-4.5 9t-4.5 10.5q-6 14 -6 43q-3 26 -25 15q-151 -116 -260 -150q-38 -14 -90 -9.5t-82 30.5q-5 5 -17.5 14.5t-21 17.5t-14.5 17q-25 40 -41 90q-16 58 -13 102zM227.5 288q-12.5 -84 1.5 -155q11 -48 50 -73.5t88 -10.5q99 36 176 101q57 45 67 67q2 5 9 16.5 t10 16.5q4 8 20 72q36 110 107 303q14 38 26 84q2 4 10 21.5t11 29t4 24.5q3 32 -12 63.5t-45 41.5q-90 8 -195 -55q-18 -11 -43 -31q-76 -63 -129.5 -144.5t-106.5 -203.5q-36 -83 -48.5 -167zM551 1186q-15 15 55 92q11 13 18 20.5t12 13t13.5 13t13.5 11.5l22.5 18 t29.5 24q21 18 30.5 26t25.5 16t36 13q22 -19 40 -39.5t25.5 -31t25.5 -38.5t23 -36q15 -24 27 -62.5t0 -46.5q-1 -7 -27 13t-51 45q-12 12 -36.5 35t-47.5 47q-92 -61 -131 -86q-29 -19 -66 -36.5t-38 -10.5z" />
<glyph unicode="&#xe3;" horiz-adv-x="1052" d="M63 266q5 54 25 131q29 97 68.5 165t115.5 147q46 40 70 57q83 72 162 102q20 9 102 39q50 13 99 13q24 1 45.5 -1t32.5 -4.5t30 -7.5t25 -6q13 -4 24.5 -10t28.5 -18t22 -15q31 -21 39.5 -69.5t0.5 -95.5t-23 -85q-2 -5 -14.5 -36.5t-16.5 -49.5q-2 -15 -14.5 -43 t-14.5 -33q-4 -12 -28 -86q-20 -44 -60 -182q-16 -62 35 -121q19 -19 40 -20t51 29.5t69 95.5q1 1 4 7q24 46 33 28q-6 -18 -22 -46.5t-21 -39.5q-27 -55 -75.5 -94.5t-111.5 -39.5q-20 0 -38 6t-27.5 12.5t-23 17.5t-17.5 14l-7.5 7.5t-6.5 7.5t-5 6.5t-5 7l-4 6t-4 7.5 t-4 7.5t-4.5 9t-4.5 10.5q-6 14 -6 43q-3 26 -25 15q-151 -116 -260 -150q-38 -14 -90 -9.5t-82 30.5q-5 5 -17.5 14.5t-21 17.5t-14.5 17q-25 40 -41 90q-16 58 -13 102zM227.5 288q-12.5 -84 1.5 -155q11 -48 50 -73.5t88 -10.5q99 36 176 101q57 45 67 67q2 5 9 16.5 t10 16.5q4 8 20 72q36 110 107 303q14 38 26 84q2 4 10 21.5t11 29t4 24.5q3 32 -12 63.5t-45 41.5q-90 8 -195 -55q-18 -11 -43 -31q-76 -63 -129.5 -144.5t-106.5 -203.5q-36 -83 -48.5 -167zM479 1304q-13 13 0 47q7 19 21 34q37 24 52.5 29.5t51.5 5.5q27 -1 63 -18 t50 -29l28.5 -19t44 -26t42.5 -15q47 -12 114 8q27 9 45 27q18 19 21 23t6 11.5t12 22.5q7 13 21 19h2q10 -26 2 -41q-6 -11 -9 -17.5t-3.5 -8t-2 -4.5t-5.5 -8.5t-13 -18.5q-10 -11 -88 -68q-7 -2 -25 -8.5t-36 -10.5t-37 -2q-71 -10 -156 31q-33 21 -61 43 q-14 12 -30.5 23t-23.5 18q-4 1 -12.5 2.5t-23.5 -6t-25 -22.5q-14 -33 -25 -22z" />
<glyph unicode="&#xe4;" horiz-adv-x="1052" d="M63 266q5 54 25 131q29 97 68.5 165t115.5 147q46 40 70 57q83 72 162 102q20 9 102 39q50 13 99 13q24 1 45.5 -1t32.5 -4.5t30 -7.5t25 -6q13 -4 24.5 -10t28.5 -18t22 -15q31 -21 39.5 -69.5t0.5 -95.5t-23 -85q-2 -5 -14.5 -36.5t-16.5 -49.5q-2 -15 -14.5 -43 t-14.5 -33q-4 -12 -28 -86q-20 -44 -60 -182q-16 -62 35 -121q19 -19 40 -20t51 29.5t69 95.5q1 1 4 7q24 46 33 28q-6 -18 -22 -46.5t-21 -39.5q-27 -55 -75.5 -94.5t-111.5 -39.5q-20 0 -38 6t-27.5 12.5t-23 17.5t-17.5 14l-7.5 7.5t-6.5 7.5t-5 6.5t-5 7l-4 6t-4 7.5 t-4 7.5t-4.5 9t-4.5 10.5q-6 14 -6 43q-3 26 -25 15q-151 -116 -260 -150q-38 -14 -90 -9.5t-82 30.5q-5 5 -17.5 14.5t-21 17.5t-14.5 17q-25 40 -41 90q-16 58 -13 102zM227.5 288q-12.5 -84 1.5 -155q11 -48 50 -73.5t88 -10.5q99 36 176 101q57 45 67 67q2 5 9 16.5 t10 16.5q4 8 20 72q36 110 107 303q14 38 26 84q2 4 10 21.5t11 29t4 24.5q3 32 -12 63.5t-45 41.5q-90 8 -195 -55q-18 -11 -43 -31q-76 -63 -129.5 -144.5t-106.5 -203.5q-36 -83 -48.5 -167zM563 1335q-5 47 18 56q5 2 27 24q4 2 33 12q37 5 59 -22q25 -38 27 -60 q4 -31 -16.5 -54.5t-53.5 -31.5q-34 -9 -68 15q-16 12 -22 20q-4 28 -4 41zM868 1335q-5 47 18 56q5 2 27 24q4 2 33 12q37 5 59 -22q25 -38 27 -60q4 -31 -16.5 -54.5t-53.5 -31.5q-33 -9 -67 15q-18 14 -23 20q-4 28 -4 41z" />
<glyph unicode="&#xe5;" horiz-adv-x="1052" d="M63 266q5 54 25 131q29 97 68.5 165t115.5 147q46 40 70 57q83 72 162 102q20 9 102 39q50 13 99 13q24 1 45.5 -1t32.5 -4.5t30 -7.5t25 -6q13 -4 24.5 -10t28.5 -18t22 -15q31 -21 39.5 -69.5t0.5 -95.5t-23 -85q-2 -5 -14.5 -36.5t-16.5 -49.5q-2 -15 -14.5 -43 t-14.5 -33q-4 -12 -28 -86q-20 -44 -60 -182q-16 -62 35 -121q19 -19 40 -20t51 29.5t69 95.5q1 1 4 7q24 46 33 28q-6 -18 -22 -46.5t-21 -39.5q-27 -55 -75.5 -94.5t-111.5 -39.5q-20 0 -38 6t-27.5 12.5t-23 17.5t-17.5 14l-7.5 7.5t-6.5 7.5t-5 6.5t-5 7l-4 6t-4 7.5 t-4 7.5t-4.5 9t-4.5 10.5q-6 14 -6 43q-3 26 -25 15q-151 -116 -260 -150q-38 -14 -90 -9.5t-82 30.5q-5 5 -17.5 14.5t-21 17.5t-14.5 17q-25 40 -41 90q-16 58 -13 102zM227.5 288q-12.5 -84 1.5 -155q11 -48 50 -73.5t88 -10.5q99 36 176 101q57 45 67 67q2 5 9 16.5 t10 16.5q4 8 20 72q36 110 107 303q14 38 26 84q2 4 10 21.5t11 29t4 24.5q3 32 -12 63.5t-45 41.5q-90 8 -195 -55q-18 -11 -43 -31q-76 -63 -129.5 -144.5t-106.5 -203.5q-36 -83 -48.5 -167zM713 1330q0 17 12 41q4 10 43 45q24 16 57 16q70 3 111 -53q16 -24 16 -66 q0 -39 -16 -65q-54 -73 -131 -49q-74 21 -84 69q-8 28 -8 62zM772 1321q0 -12 4 -32q8 -25 45 -33q19 -7 36.5 0.5t27.5 23.5q8 8 8 33q0 15 -8 31q-29 29 -60 27q-15 0 -29 -11v2q-12 -12 -18 -20q-6 -9 -6 -21z" />
<glyph unicode="&#xe6;" horiz-adv-x="1423" d="M63 266q5 54 25 131q29 97 68.5 165t115.5 147q46 40 70 57q83 72 162 102q20 9 102 39q50 13 99 13q75 2 133 -19q24 -9 43 -38t20 -81q153 120 281 140q9 1 25.5 3.5t22 3.5t17 2t17.5 1t16.5 -1t20.5 -3.5t24 -5.5q59 -15 88 -86t4 -136q-17 -42 -47 -69 q-123 -123 -272 -146q-12 -4 -27 -5t-40.5 0t-29.5 1q-26 0 -49 6q-11 1 -28 4.5t-24 4t-15 -4.5t-13 -18q-27 -76 -34 -207q-1 -10 1 -34t5 -35q16 -59 55 -86q41 -27 86 -39t107 -4q39 7 86 47q14 10 41.5 31.5t40.5 31.5q3 2 19.5 14t29.5 19.5t18 3.5q8 -4 10 -8.5 t1 -7.5t-6 -9t-7 -8q-12 -18 -41 -43q-7 -5 -37 -30q-21 -21 -51 -46q-11 -9 -19 -14.5t-12 -8t-12.5 -7.5t-17.5 -10q-36 -20 -118 -30.5t-143 1.5q-3 1 -19 4t-22 4.5t-22 6.5t-24.5 10.5t-23.5 14.5t-26 21.5t-24.5 28.5t-25.5 37t-23 47q-3 25 -25 14q-14 -10 -50.5 -41 t-58.5 -47t-72.5 -42t-115.5 -48q-38 -15 -89.5 -10t-82.5 31q-5 5 -17.5 14.5t-21 17.5t-14.5 17q-25 40 -41 90q-16 58 -13 102zM227.5 288q-12.5 -84 1.5 -155q11 -48 50 -73.5t88 -10.5q99 36 176 101q57 45 67 67q2 5 9 16.5t10 16.5q4 8 20 72q36 110 107 303 q14 38 26 84q2 4 10 21.5t11 29t4 24.5q3 32 -12 63.5t-45 41.5q-90 8 -195 -55q-18 -11 -43 -31q-76 -63 -129.5 -144.5t-106.5 -203.5q-36 -83 -48.5 -167zM909 537.5q2 -5.5 9.5 -8t13 -3.5t16 -1.5t13.5 -0.5q13 0 47 -2t47 -2q31 0 71 12q38 8 56 19q3 1 20.5 10 t23.5 12t22 12.5t23 15.5t19 16.5t17.5 19.5t11 21.5t6.5 25.5q20 111 -33 162q-23 23 -65 16q-22 -4 -29 -8q-64 -37 -127 -88q-31 -20 -63 -64q-7 -7 -58 -79q-37 -52 -41 -72q-2 -8 0 -13.5z" />
<glyph unicode="&#xe7;" horiz-adv-x="849" d="M61 272v88q0 100 49 198t132 206q5 7 12 14t15.5 14.5t13.5 12.5q67 52 121.5 80t130.5 39q55 10 86 10q139 0 204 -123q19 -43 9 -84q-10 -56 -50 -78q-50 -26 -79 -10q-41 23 -43 61q0 8 4.5 17t9 14t12.5 13.5t10 11.5q34 50 21 82q-12 25 -43 34.5t-61.5 7 t-55.5 -11.5q-91 -36 -141 -100q-80 -101 -115 -186q-52 -132 -61 -211q-11 -91 4 -191q7 -42 32.5 -83.5t61.5 -57.5q31 -16 74 -18.5t93.5 9.5t107 49t104.5 95q1 1 9.5 11t16 17.5t16.5 13.5t15 3q3 -10 -12 -31q-5 -6 -13.5 -19t-13.5 -19q-23 -20 -63 -70 q-2 -1 -14 -11.5t-19 -15.5q-10 -3 -16 -12q-2 -1 -11 -4t-12 -6q-20 -23 -134.5 -37t-184.5 8q-98 35 -150 96q-66 79 -72 174zM297 -393q7 8 27 -2q24 -21 61 -17q63 8 96 37q40 29 50 101q7 52 1 81.5t-28 59.5q-12 13 -33 16.5t-54 -6t-73 -33.5q-7 -7 -16 -3 q-16 6 8 55l44 87l1 1q3 5 8 14q8 15 17 10q11 -7 1 -22q-1 -2 -3 -4q-3 -4 -33 -56q-15 -28 -21 -51q117 60 215 10q22 -15 49 -61q22 -47 7 -105q-12 -44 -39 -78.5t-60 -48.5q-64 -28 -139 -28q-25 2 -57 10q-38 21 -29 33z" />
<glyph unicode="&#xe8;" horiz-adv-x="817" d="M66 266q-4 18 4 111q3 42 18 102q17 79 78 158q39 62 51 72q31 31 37 36q30 30 41 37q154 120 280 140q9 1 25.5 4t22 3.5t17.5 1.5t18 1t16.5 -1t20.5 -3.5t24 -5.5q59 -15 88 -86t4 -136q-17 -42 -47 -69q-123 -123 -272 -146q-12 -4 -27 -5t-40.5 0t-29.5 1 q-26 0 -49 6q-11 1 -28 4.5t-24 4t-15 -4.5t-13 -18q-28 -80 -35 -207q-4 -30 7 -69q16 -59 55 -86q41 -27 86 -39q44 -11 106 -4q39 7 86 47q14 10 41 31.5t41 31.5q3 2 19.5 14t30 19.5t18.5 3.5q8 -4 10 -8.5t1 -7.5t-6 -9t-7 -8q-12 -18 -41 -43q-7 -5 -37 -30 q-21 -21 -51 -46q-8 -7 -62 -40q-39 -22 -120 -32t-140 9q-80 30 -139 98q-9 9 -16 19t-13 24t-9.5 21.5t-8 27t-6 23.5t-6 27.5t-4.5 25.5zM303 537.5q2 -5.5 9 -8t12.5 -3.5t16 -1.5t13.5 -0.5q12 0 47 -2t48 -2q31 0 71 12q36 7 55 19l21 10.5t23.5 12t22 12.5t23 15 t19 16.5t17.5 19.5t11.5 21.5t6.5 25.5q20 111 -33 162q-23 23 -65 16q-22 -4 -29 -8q-64 -37 -127 -88q-33 -21 -64 -64q-1 -1 -57 -79q-37 -52 -41 -72q-2 -8 0 -13.5zM312 1403q15 29 51.5 28t62.5 -30q19 -21 32.5 -36t27.5 -28t20.5 -20t21 -17.5t19.5 -14.5t25 -17.5 t29 -20.5q18 -12 30.5 -26t3.5 -21q-21 -2 -47 6q-12 4 -74.5 22t-104.5 36.5t-73 45.5q-47 41 -24 93z" />
<glyph unicode="&#xe9;" horiz-adv-x="817" d="M66 266q-4 18 4 111q3 42 18 102q17 79 78 158q39 62 51 72q31 31 37 36q30 30 41 37q154 120 280 140q9 1 25.5 4t22 3.5t17.5 1.5t18 1t16.5 -1t20.5 -3.5t24 -5.5q59 -15 88 -86t4 -136q-17 -42 -47 -69q-123 -123 -272 -146q-12 -4 -27 -5t-40.5 0t-29.5 1 q-26 0 -49 6q-11 1 -28 4.5t-24 4t-15 -4.5t-13 -18q-28 -80 -35 -207q-4 -30 7 -69q16 -59 55 -86q41 -27 86 -39q44 -11 106 -4q39 7 86 47q14 10 41 31.5t41 31.5q3 2 19.5 14t30 19.5t18.5 3.5q8 -4 10 -8.5t1 -7.5t-6 -9t-7 -8q-12 -18 -41 -43q-7 -5 -37 -30 q-21 -21 -51 -46q-8 -7 -62 -40q-39 -22 -120 -32t-140 9q-80 30 -139 98q-9 9 -16 19t-13 24t-9.5 21.5t-8 27t-6 23.5t-6 27.5t-4.5 25.5zM303 537.5q2 -5.5 9 -8t12.5 -3.5t16 -1.5t13.5 -0.5q12 0 47 -2t48 -2q31 0 71 12q36 7 55 19l21 10.5t23.5 12t22 12.5t23 15 t19 16.5t17.5 19.5t11.5 21.5t6.5 25.5q20 111 -33 162q-23 23 -65 16q-22 -4 -29 -8q-64 -37 -127 -88q-33 -21 -64 -64q-1 -1 -57 -79q-37 -52 -41 -72q-2 -8 0 -13.5zM371 1192q-9 7 3.5 21t31.5 26q10 7 29 20.5t24.5 17.5t19.5 14.5t21 17t20.5 19.5t27 28t32.5 36 q26 29 63 30t52 -28q22 -51 -25 -92q-31 -27 -73 -45.5t-104.5 -36.5t-74.5 -22q-26 -8 -47 -6z" />
<glyph unicode="&#xea;" horiz-adv-x="817" d="M66 266q-4 18 4 111q3 42 18 102q17 79 78 158q39 62 51 72q31 31 37 36q30 30 41 37q154 120 280 140q9 1 25.5 4t22 3.5t17.5 1.5t18 1t16.5 -1t20.5 -3.5t24 -5.5q59 -15 88 -86t4 -136q-17 -42 -47 -69q-123 -123 -272 -146q-12 -4 -27 -5t-40.5 0t-29.5 1 q-26 0 -49 6q-11 1 -28 4.5t-24 4t-15 -4.5t-13 -18q-28 -80 -35 -207q-4 -30 7 -69q16 -59 55 -86q41 -27 86 -39q44 -11 106 -4q39 7 86 47q14 10 41 31.5t41 31.5q3 2 19.5 14t30 19.5t18.5 3.5q8 -4 10 -8.5t1 -7.5t-6 -9t-7 -8q-12 -18 -41 -43q-7 -5 -37 -30 q-21 -21 -51 -46q-8 -7 -62 -40q-39 -22 -120 -32t-140 9q-80 30 -139 98q-9 9 -16 19t-13 24t-9.5 21.5t-8 27t-6 23.5t-6 27.5t-4.5 25.5zM303 537.5q2 -5.5 9 -8t12.5 -3.5t16 -1.5t13.5 -0.5q12 0 47 -2t48 -2q31 0 71 12q36 7 55 19l21 10.5t23.5 12t22 12.5t23 15 t19 16.5t17.5 19.5t11.5 21.5t6.5 25.5q20 111 -33 162q-23 23 -65 16q-22 -4 -29 -8q-64 -37 -127 -88q-33 -21 -64 -64q-1 -1 -57 -79q-37 -52 -41 -72q-2 -8 0 -13.5zM383 1186q-15 15 55 92q11 13 18 20.5t12 13t13.5 13t13.5 11.5l22.5 18t29.5 24q21 18 30.5 26 t25.5 16t36 13q22 -19 40 -39.5t25.5 -31t25.5 -38.5t23 -36q15 -24 27 -62.5t0 -46.5q-1 -7 -27 13t-51 45q-12 12 -36.5 35t-47.5 47q-92 -61 -131 -86q-29 -19 -66 -36.5t-38 -10.5z" />
<glyph unicode="&#xeb;" horiz-adv-x="817" d="M66 266q-4 18 4 111q3 42 18 102q17 79 78 158q39 62 51 72q31 31 37 36q30 30 41 37q154 120 280 140q9 1 25.5 4t22 3.5t17.5 1.5t18 1t16.5 -1t20.5 -3.5t24 -5.5q59 -15 88 -86t4 -136q-17 -42 -47 -69q-123 -123 -272 -146q-12 -4 -27 -5t-40.5 0t-29.5 1 q-26 0 -49 6q-11 1 -28 4.5t-24 4t-15 -4.5t-13 -18q-28 -80 -35 -207q-4 -30 7 -69q16 -59 55 -86q41 -27 86 -39q44 -11 106 -4q39 7 86 47q14 10 41 31.5t41 31.5q3 2 19.5 14t30 19.5t18.5 3.5q8 -4 10 -8.5t1 -7.5t-6 -9t-7 -8q-12 -18 -41 -43q-7 -5 -37 -30 q-21 -21 -51 -46q-8 -7 -62 -40q-39 -22 -120 -32t-140 9q-80 30 -139 98q-9 9 -16 19t-13 24t-9.5 21.5t-8 27t-6 23.5t-6 27.5t-4.5 25.5zM303 537.5q2 -5.5 9 -8t12.5 -3.5t16 -1.5t13.5 -0.5q12 0 47 -2t48 -2q31 0 71 12q36 7 55 19l21 10.5t23.5 12t22 12.5t23 15 t19 16.5t17.5 19.5t11.5 21.5t6.5 25.5q20 111 -33 162q-23 23 -65 16q-22 -4 -29 -8q-64 -37 -127 -88q-33 -21 -64 -64q-1 -1 -57 -79q-37 -52 -41 -72q-2 -8 0 -13.5zM355 1335q-5 47 18 56q5 2 27 24q4 2 33 12q37 5 59 -22q25 -38 27 -60q4 -31 -16.5 -54.5 t-53.5 -31.5q-34 -9 -68 15q-16 12 -22 20q-4 28 -4 41zM660 1335q-5 47 18 56q5 2 27 24q4 2 33 12q37 5 59 -22q25 -38 27 -60q4 -31 -16.5 -54.5t-53.5 -31.5q-33 -9 -67 15q-18 14 -23 20q-4 28 -4 41z" />
<glyph unicode="&#xec;" horiz-adv-x="522" d="M75 58q-18 62 7 145q9 37 31.5 103t29.5 91q0 8 6.5 22.5t8.5 20.5q2 10 7.5 29.5t6.5 24.5q6 22 27 80t26 73q26 82 29 96q10 54 -12 86q-3 6 -8.5 10t-9.5 6.5t-12.5 3.5t-12 1h-14.5h-13q-24 -4 -29 12q-5 7 4 14t17 7q5 5 46 4.5t48 -0.5q40 5 94 -21q20 -14 29 -28 q15 -23 29 -4q11 11 33.5 23.5t29.5 -1.5q-1 -20 -30.5 -90t-34.5 -84q-14 -50 -84 -239t-88 -285q-17 -82 2 -101q22 -20 54 -13.5t59.5 23t41.5 33.5q27 27 60 86q10 19 18 21q9 0 9.5 -16.5t-3.5 -22.5q-13 -39 -34.5 -67t-67.5 -70q-16 -14 -91 -34.5t-96 -14.5 q-46 12 -77 34q-28 23 -31 33zM217 1448q15 29 51.5 28t62.5 -30q19 -21 32.5 -36t27.5 -28t20.5 -20t21 -17.5t19.5 -14.5t25 -17.5t29 -20.5q18 -12 30.5 -26t3.5 -21q-21 -2 -47 6q-12 4 -74.5 22t-104.5 36.5t-73 45.5q-47 41 -24 93z" />
<glyph unicode="&#xed;" horiz-adv-x="522" d="M75 58q-18 62 7 145q9 37 31.5 103t29.5 91q0 8 6.5 22.5t8.5 20.5q2 10 7.5 29.5t6.5 24.5q6 22 27 80t26 73q26 82 29 96q10 54 -12 86q-3 6 -8.5 10t-9.5 6.5t-12.5 3.5t-12 1h-14.5h-13q-24 -4 -29 12q-5 7 4 14t17 7q5 5 46 4.5t48 -0.5q40 5 94 -21q20 -14 29 -28 q15 -23 29 -4q11 11 33.5 23.5t29.5 -1.5q-1 -20 -30.5 -90t-34.5 -84q-14 -50 -84 -239t-88 -285q-17 -82 2 -101q22 -20 54 -13.5t59.5 23t41.5 33.5q27 27 60 86q10 19 18 21q9 0 9.5 -16.5t-3.5 -22.5q-13 -39 -34.5 -67t-67.5 -70q-16 -14 -91 -34.5t-96 -14.5 q-46 12 -77 34q-28 23 -31 33zM266 1242q-9 7 3.5 21t31.5 26q10 7 29 20.5t24.5 17.5t19.5 14.5t21 17t20.5 19.5t27 28t32.5 36q26 29 63 30t52 -28q22 -51 -25 -92q-31 -27 -73 -45.5t-104.5 -36.5t-74.5 -22q-26 -8 -47 -6z" />
<glyph unicode="&#xee;" horiz-adv-x="522" d="M75 58q-18 62 7 145q9 37 31.5 103t29.5 91q0 8 6.5 22.5t8.5 20.5q2 10 7.5 29.5t6.5 24.5q6 22 27 80t26 73q26 82 29 96q10 54 -12 86q-3 6 -8.5 10t-9.5 6.5t-12.5 3.5t-12 1h-14.5h-13q-24 -4 -29 12q-5 7 4 14t17 7q5 5 46 4.5t48 -0.5q40 5 94 -21q20 -14 29 -28 q15 -23 29 -4q11 11 33.5 23.5t29.5 -1.5q-1 -20 -30.5 -90t-34.5 -84q-14 -50 -84 -239t-88 -285q-17 -82 2 -101q22 -20 54 -13.5t59.5 23t41.5 33.5q27 27 60 86q10 19 18 21q9 0 9.5 -16.5t-3.5 -22.5q-13 -39 -34.5 -67t-67.5 -70q-16 -14 -91 -34.5t-96 -14.5 q-46 12 -77 34q-28 23 -31 33zM238 1250q-15 15 55 92q11 13 18 20.5t12 13t13.5 13t13.5 11.5l22.5 18t29.5 24q21 18 30.5 26t25.5 16t36 13q22 -19 40 -39.5t25.5 -31t25.5 -38.5t23 -36q15 -24 27 -62.5t0 -46.5q-1 -7 -27 13t-51 45q-12 12 -36.5 35t-47.5 47 q-92 -61 -131 -86q-29 -19 -66 -36.5t-38 -10.5z" />
<glyph unicode="&#xef;" horiz-adv-x="522" d="M75 58q-18 62 7 145q9 37 31.5 103t29.5 91q0 8 6.5 22.5t8.5 20.5q2 10 7.5 29.5t6.5 24.5q6 22 27 80t26 73q26 82 29 96q10 54 -12 86q-3 6 -8.5 10t-9.5 6.5t-12.5 3.5t-12 1h-14.5h-13q-24 -4 -29 12q-5 7 4 14t17 7q5 5 46 4.5t48 -0.5q40 5 94 -21q20 -14 29 -28 q15 -23 29 -4q11 11 33.5 23.5t29.5 -1.5q-1 -20 -30.5 -90t-34.5 -84q-14 -50 -84 -239t-88 -285q-17 -82 2 -101q22 -20 54 -13.5t59.5 23t41.5 33.5q27 27 60 86q10 19 18 21q9 0 9.5 -16.5t-3.5 -22.5q-13 -39 -34.5 -67t-67.5 -70q-16 -14 -91 -34.5t-96 -14.5 q-46 12 -77 34q-28 23 -31 33zM219 1329q-5 47 18 56q5 2 27 24q4 2 33 12q37 5 59 -22q25 -38 27 -60q4 -31 -16.5 -54.5t-53.5 -31.5q-34 -9 -68 15q-16 12 -22 20q-4 28 -4 41zM524 1329q-5 47 18 56q5 2 27 24q4 2 33 12q37 5 59 -22q25 -38 27 -60q4 -31 -16.5 -54.5 t-53.5 -31.5q-33 -9 -67 15q-18 14 -23 20q-4 28 -4 41z" />
<glyph unicode="&#xf0;" horiz-adv-x="952" d="M16 307q-4 73 0 109q8 54 31 108q46 109 66 138q31 53 84 106q19 19 58 49.5t56 46.5q43 36 148 70q47 16 97 14t87.5 -12.5t65.5 -26.5q-3 20 -5.5 34.5t-3.5 20t-2 14t-2 21.5q-3 67 -8 95q0 2 -2 13t-2.5 13.5l-2.5 12.5t-3.5 14t-4 14t-4.5 16.5t-6 17t-8 20t-9 21 t-11 24.5q-38 -15 -112 -53.5t-101 -45.5q-21 -11 -35 -2q-8 7 2 19q7 3 45 24.5t55 28.5q1 1 52.5 26t72.5 41q-23 17 -43 30t-36.5 21t-26.5 12t-25.5 9.5t-21.5 7.5q-29 10 -63.5 15.5t-51.5 9.5q-11 3 -13.5 9t2 12t13.5 8t25.5 1.5t25.5 0.5q5 -1 44.5 -7.5t72 -14.5 t76.5 -31.5t74 -57.5q30 13 131 66q5 3 20.5 12t24.5 12q2 0 8.5 0.5t9 0.5t8 -1.5t5 -4.5t-0.5 -9q-2 -7 -5 -12t-5.5 -8t-8.5 -7t-10.5 -6.5t-16 -8t-19.5 -9.5q-27 -14 -44 -24t-30 -16.5t-41 -19.5q5 -6 12 -13.5t13 -15.5t16 -26q27 -47 29 -51q5 -11 14 -29 q16 -43 29 -68q3 -10 18.5 -57t28 -92.5t18.5 -89.5q21 -155 15 -283q-4 -90 -27 -157q-36 -96 -82 -173q-32 -52 -127 -143q-11 -10 -23 -19t-18 -12.5t-21 -11.5t-18 -10q-35 -21 -90 -35q-121 -33 -217 -2q-71 23 -102 47q-41 25 -72 76q-3 5 -16.5 25t-20.5 33t-12 28 q-15 34 -23 98zM176 207q11 -66 27 -103q13 -30 59 -56t80 -23q39 3 90 20q19 7 76 43q9 6 18 16t13.5 15.5t15 20.5t12.5 18q26 35 45 84q32 82 58 178q2 10 7 27.5t7 23.5q1 8 7 22t7 19q4 16 6 34.5t4 43t3 35.5q5 46 -3 97.5t-30 88.5q-17 28 -28.5 43t-33.5 29t-51 16 q-76 13 -159 -55q-64 -60 -95 -101q-6 -8 -13.5 -25t-10.5 -22q-4 -8 -70 -172q-34 -82 -41 -213q-5 -51 0 -104z" />
<glyph unicode="&#xf1;" horiz-adv-x="1015" d="M44 110q-4 24 2.5 58.5t21.5 81.5q4 13 17 46.5t17 51.5q33 142 80 256q31 81 35 96q8 25 4 41q-1 3 -4.5 20t-7.5 25q-3 4 -12.5 16t-12.5 19q-2 3 -6.5 7t-7 8t-2.5 8q-1 8 8 12.5t22.5 5.5t25 1t18.5 -1q6 0 20 -1t21 -1q5 -1 11 -4t13.5 -7.5t11.5 -6.5 q52 -27 66 -60q4 -3 7.5 -13t8.5 -13q4 1 8 4t6 5.5l6 7.5t5 7q46 50 70 74q23 21 88 45q77 25 110 23q43 -3 82.5 -23.5t65.5 -54.5q32 -46 41 -76q13 -36 2 -98q-4 -21 -27 -88q-55 -193 -82 -250q-28 -73 -41 -92q-13 -52 -30 -97q-6 -16 -8 -24.5t-1 -16.5t0 -26 q-3 -55 41 -72q32 -8 64.5 9.5t59 54t44 67.5t33.5 66q18 37 23 49q4 22 10 31q6 7 14.5 9t11.5 -9q1 -12 0 -23t-4 -23.5t-5 -21t-8 -22t-9 -20t-11 -21t-11 -19.5t-13 -21t-12 -20q-30 -52 -60 -78q-46 -39 -106 -45q-16 -2 -33 -1t-30 2.5t-27.5 5.5t-24.5 7.5t-20 8 t-16 7.5t-11 6l-6 3q-43 54 -43 92q0 16 1.5 34t3.5 30.5t7.5 33.5t8 29.5t10.5 33.5t10 30q10 30 37 116.5t37 116.5q6 18 20.5 49t19.5 45q7 18 23 55t23 56q9 22 13 44.5t1.5 45t-18.5 38t-44 17.5q-40 3 -86 -10q-14 -4 -27 -12t-28 -19t-24 -16q-23 -17 -25 -24 q-3 -6 -12 -15t-11 -14q-7 -16 -25.5 -42t-25.5 -40q-25 -51 -39 -72q-33 -47 -45 -69q-32 -63 -53 -148q-6 -19 -20 -53.5t-19 -48.5q-45 -114 -47 -193q0 -56 23 -63q2 -2 6.5 -4.5t6.5 -6t1 -8.5q-13 -18 -45 -22q-49 -9 -90 12q-25 12 -33 25q-2 3 -15 20t-16 27t-7 34z M422 1308q-13 13 0 47q7 19 21 34q37 24 52.5 29.5t51.5 5.5q27 -1 63 -18t50 -29l28.5 -19t44 -26t42.5 -15q47 -12 114 8q27 9 45 27q18 19 21 23t6 11.5t12 22.5q7 13 21 19h2q10 -26 2 -41q-6 -11 -9 -17.5t-3.5 -8t-2 -4.5t-5.5 -8.5t-13 -18.5q-10 -11 -88 -68 q-7 -2 -25 -8.5t-36 -10.5t-37 -2q-71 -10 -156 31q-33 21 -61 43q-14 12 -30.5 23t-23.5 18q-4 1 -12.5 2.5t-23.5 -6t-25 -22.5q-14 -33 -25 -22z" />
<glyph unicode="&#xf2;" horiz-adv-x="950" d="M66 307q-4 73 0 109q9 57 30 108q46 109 66 138q31 53 84 106q19 19 58 49.5t56 46.5q12 10 33 19.5t37 15t42.5 13t35.5 10.5q75 22 160.5 4.5t144.5 -62.5q57 -45 80 -110q4 -13 11.5 -37.5t10.5 -34.5q19 -79 11 -162q-3 -12 -7 -51.5t-12 -62.5q-36 -96 -82 -173 q-32 -52 -127 -143q-11 -10 -23 -19t-18 -12.5t-21 -11.5t-18 -10q-35 -21 -90 -35q-121 -33 -217 -2q-71 23 -102 47q-41 25 -72 76q-3 5 -16.5 25t-20.5 33t-12 28q-14 31 -22 98zM225 207q11 -66 27 -103q13 -30 59 -56t80 -23q39 3 90 20q19 7 76 43q9 6 18 16 t13.5 15.5t15 20.5t12.5 18q28 38 46 84q29 74 57 178q2 10 7 27.5t7 23.5q1 8 7 22t8 19q4 16 6 35t3.5 42.5t2.5 35.5q5 46 -3 97.5t-30 88.5q-17 28 -28.5 43t-33.5 29t-51 16q-76 13 -159 -55q-64 -60 -95 -101q-6 -8 -13.5 -25t-10.5 -22q-4 -8 -70 -172 q-34 -82 -41 -213q-5 -51 0 -104zM453 1395q15 29 51.5 28t62.5 -30q19 -21 32.5 -36t27.5 -28t20.5 -20t21 -17.5t19.5 -14.5t25 -17.5t29 -20.5q18 -12 30.5 -26t3.5 -21q-21 -2 -47 6q-12 4 -74.5 22t-104.5 36.5t-73 45.5q-47 41 -24 93z" />
<glyph unicode="&#xf3;" horiz-adv-x="950" d="M66 307q-4 73 0 109q9 57 30 108q46 109 66 138q31 53 84 106q19 19 58 49.5t56 46.5q12 10 33 19.5t37 15t42.5 13t35.5 10.5q75 22 160.5 4.5t144.5 -62.5q57 -45 80 -110q4 -13 11.5 -37.5t10.5 -34.5q19 -79 11 -162q-3 -12 -7 -51.5t-12 -62.5q-36 -96 -82 -173 q-32 -52 -127 -143q-11 -10 -23 -19t-18 -12.5t-21 -11.5t-18 -10q-35 -21 -90 -35q-121 -33 -217 -2q-71 23 -102 47q-41 25 -72 76q-3 5 -16.5 25t-20.5 33t-12 28q-14 31 -22 98zM225 207q11 -66 27 -103q13 -30 59 -56t80 -23q39 3 90 20q19 7 76 43q9 6 18 16 t13.5 15.5t15 20.5t12.5 18q28 38 46 84q29 74 57 178q2 10 7 27.5t7 23.5q1 8 7 22t8 19q4 16 6 35t3.5 42.5t2.5 35.5q5 46 -3 97.5t-30 88.5q-17 28 -28.5 43t-33.5 29t-51 16q-76 13 -159 -55q-64 -60 -95 -101q-6 -8 -13.5 -25t-10.5 -22q-4 -8 -70 -172 q-34 -82 -41 -213q-5 -51 0 -104zM610 1192q-9 7 3.5 21t31.5 26q10 7 29 20.5t24.5 17.5t19.5 14.5t21 17t20.5 19.5t27 28t32.5 36q26 29 63 30t52 -28q22 -51 -25 -92q-31 -27 -73 -45.5t-104.5 -36.5t-74.5 -22q-26 -8 -47 -6z" />
<glyph unicode="&#xf4;" horiz-adv-x="950" d="M66 307q-4 73 0 109q9 57 30 108q46 109 66 138q31 53 84 106q19 19 58 49.5t56 46.5q12 10 33 19.5t37 15t42.5 13t35.5 10.5q75 22 160.5 4.5t144.5 -62.5q57 -45 80 -110q4 -13 11.5 -37.5t10.5 -34.5q19 -79 11 -162q-3 -12 -7 -51.5t-12 -62.5q-36 -96 -82 -173 q-32 -52 -127 -143q-11 -10 -23 -19t-18 -12.5t-21 -11.5t-18 -10q-35 -21 -90 -35q-121 -33 -217 -2q-71 23 -102 47q-41 25 -72 76q-3 5 -16.5 25t-20.5 33t-12 28q-14 31 -22 98zM225 207q11 -66 27 -103q13 -30 59 -56t80 -23q39 3 90 20q19 7 76 43q9 6 18 16 t13.5 15.5t15 20.5t12.5 18q28 38 46 84q29 74 57 178q2 10 7 27.5t7 23.5q1 8 7 22t8 19q4 16 6 35t3.5 42.5t2.5 35.5q5 46 -3 97.5t-30 88.5q-17 28 -28.5 43t-33.5 29t-51 16q-76 13 -159 -55q-64 -60 -95 -101q-6 -8 -13.5 -25t-10.5 -22q-4 -8 -70 -172 q-34 -82 -41 -213q-5 -51 0 -104zM463 1184q-15 15 55 92q11 13 18 20.5t12 13t13.5 13t13.5 11.5l22.5 18t29.5 24q21 18 30.5 26t25.5 16t36 13q22 -19 40 -39.5t25.5 -31t25.5 -38.5t23 -36q15 -24 27 -62.5t0 -46.5q-1 -7 -27 13t-51 45q-12 12 -36.5 35t-47.5 47 q-92 -61 -131 -86q-29 -19 -66 -36.5t-38 -10.5z" />
<glyph unicode="&#xf5;" horiz-adv-x="950" d="M66 307q-4 73 0 109q9 57 30 108q46 109 66 138q31 53 84 106q19 19 58 49.5t56 46.5q12 10 33 19.5t37 15t42.5 13t35.5 10.5q75 22 160.5 4.5t144.5 -62.5q57 -45 80 -110q4 -13 11.5 -37.5t10.5 -34.5q19 -79 11 -162q-3 -12 -7 -51.5t-12 -62.5q-36 -96 -82 -173 q-32 -52 -127 -143q-11 -10 -23 -19t-18 -12.5t-21 -11.5t-18 -10q-35 -21 -90 -35q-121 -33 -217 -2q-71 23 -102 47q-41 25 -72 76q-3 5 -16.5 25t-20.5 33t-12 28q-14 31 -22 98zM225 207q11 -66 27 -103q13 -30 59 -56t80 -23q39 3 90 20q19 7 76 43q9 6 18 16 t13.5 15.5t15 20.5t12.5 18q28 38 46 84q29 74 57 178q2 10 7 27.5t7 23.5q1 8 7 22t8 19q4 16 6 35t3.5 42.5t2.5 35.5q5 46 -3 97.5t-30 88.5q-17 28 -28.5 43t-33.5 29t-51 16q-76 13 -159 -55q-64 -60 -95 -101q-6 -8 -13.5 -25t-10.5 -22q-4 -8 -70 -172 q-34 -82 -41 -213q-5 -51 0 -104zM375 1308q-13 13 0 47q7 19 21 34q37 24 52.5 29.5t51.5 5.5q27 -1 63 -18t50 -29l28.5 -19t44 -26t42.5 -15q47 -12 114 8q27 9 45 27q18 19 21 23t6 11.5t12 22.5q7 13 21 19h2q10 -26 2 -41q-6 -11 -9 -17.5t-3.5 -8t-2 -4.5t-5.5 -8.5 t-13 -18.5q-10 -11 -88 -68q-7 -2 -25 -8.5t-36 -10.5t-37 -2q-71 -10 -156 31q-33 21 -61 43q-14 12 -30.5 23t-23.5 18q-4 1 -12.5 2.5t-23.5 -6t-25 -22.5q-14 -33 -25 -22z" />
<glyph unicode="&#xf6;" horiz-adv-x="950" d="M66 307q-4 73 0 109q9 57 30 108q46 109 66 138q31 53 84 106q19 19 58 49.5t56 46.5q12 10 33 19.5t37 15t42.5 13t35.5 10.5q75 22 160.5 4.5t144.5 -62.5q57 -45 80 -110q4 -13 11.5 -37.5t10.5 -34.5q19 -79 11 -162q-3 -12 -7 -51.5t-12 -62.5q-36 -96 -82 -173 q-32 -52 -127 -143q-11 -10 -23 -19t-18 -12.5t-21 -11.5t-18 -10q-35 -21 -90 -35q-121 -33 -217 -2q-71 23 -102 47q-41 25 -72 76q-3 5 -16.5 25t-20.5 33t-12 28q-14 31 -22 98zM225 207q11 -66 27 -103q13 -30 59 -56t80 -23q39 3 90 20q19 7 76 43q9 6 18 16 t13.5 15.5t15 20.5t12.5 18q28 38 46 84q29 74 57 178q2 10 7 27.5t7 23.5q1 8 7 22t8 19q4 16 6 35t3.5 42.5t2.5 35.5q5 46 -3 97.5t-30 88.5q-17 28 -28.5 43t-33.5 29t-51 16q-76 13 -159 -55q-64 -60 -95 -101q-6 -8 -13.5 -25t-10.5 -22q-4 -8 -70 -172 q-34 -82 -41 -213q-5 -51 0 -104zM467 1335q-5 47 18 56q5 2 27 24q4 2 33 12q37 5 59 -22q25 -38 27 -60q4 -31 -16.5 -54.5t-53.5 -31.5q-34 -9 -68 15q-16 12 -22 20q-4 28 -4 41zM772 1335q-5 47 18 56q5 2 27 24q4 2 33 12q37 5 59 -22q25 -38 27 -60 q4 -31 -16.5 -54.5t-53.5 -31.5q-33 -9 -67 15q-18 14 -23 20q-4 28 -4 41z" />
<glyph unicode="&#xf7;" horiz-adv-x="1146" d="M73 749q1 9 15 13q16 4 34.5 4.5t42.5 -1t34 -1.5q5 0 21.5 1.5t25.5 0.5q1 0 115.5 5.5t134.5 4.5q16 -2 52 -0.5t52 -1.5q9 -1 26.5 0t26.5 0q1 2 33 1t33 -1q10 3 64.5 0.5t66.5 -2.5q19 0 67 2.5t74 1.5q9 -1 29.5 -2t28.5 -2q11 -2 27.5 -12t17.5 -19 q-2 -16 -72 -16q-25 0 -83.5 -1t-96.5 -1q-12 0 -56 1t-73 1q-463 -6 -465 -6q-69 -3 -148 6q-11 0 -19.5 7.5t-7.5 16.5zM444 1110q9 32 32 53.5t52 26.5q43 5 71 -5.5t54 -49.5q18 -25 4 -80q-5 -36 -43 -62q-23 -16 -71 -16q-5 1 -17.5 4t-16 4t-12 4.5t-12.5 6.5 t-9.5 8.5t-10.5 13.5q-28 42 -21 92zM471 404.5q0 9.5 1.5 15t6 18t6.5 21.5q4 17 12.5 28t22.5 17.5t21 8t24 5.5q23 6 41 2.5t35 -20.5q40 -28 43 -62q6 -29 -10 -67q-8 -15 -24 -34t-29 -28q-55 -19 -93 8q-3 3 -10 7.5t-9 6.5t-7 6t-6.5 6t-5 5.5t-5 6.5t-3.5 7.5 t-3.5 9.5t-3.5 11q-4 12 -4 21.5z" />
</font>
</defs>
</svg>
